<svg width="1363" height="163" viewBox="0 0 1363 163" fill="none" xmlns="http://www.w3.org/2000/svg">
<path d="M0 15C0 6.71573 6.71573 0 15 0H37V163H15C6.71573 163 0 156.284 0 148V15Z" fill="#424242"/>
<rect width="1097" height="163" transform="translate(37)" fill="#F0F0F0"/>
<path d="M101.906 53.9219L94.3945 51.2383V48.0859L104.602 52.375V54.6367L101.906 53.9219ZM94.3945 56.1719L101.918 53.4297L104.602 52.7852V55.0352L94.3945 59.3242V56.1719ZM122.789 55.3398H126.293C126.223 56.4883 125.906 57.5078 125.344 58.3984C124.789 59.2891 124.012 59.9844 123.012 60.4844C122.02 60.9844 120.824 61.2344 119.426 61.2344C118.332 61.2344 117.352 61.0469 116.484 60.6719C115.617 60.2891 114.875 59.7422 114.258 59.0312C113.648 58.3203 113.184 57.4609 112.863 56.4531C112.543 55.4453 112.383 54.3164 112.383 53.0664V51.8828C112.383 50.6328 112.547 49.5039 112.875 48.4961C113.211 47.4805 113.688 46.6172 114.305 45.9062C114.93 45.1953 115.676 44.6484 116.543 44.2656C117.41 43.8828 118.379 43.6914 119.449 43.6914C120.871 43.6914 122.07 43.9492 123.047 44.4648C124.031 44.9805 124.793 45.6914 125.332 46.5977C125.879 47.5039 126.207 48.5352 126.316 49.6914H122.801C122.762 49.0039 122.625 48.4219 122.391 47.9453C122.156 47.4609 121.801 47.0977 121.324 46.8555C120.855 46.6055 120.23 46.4805 119.449 46.4805C118.863 46.4805 118.352 46.5898 117.914 46.8086C117.477 47.0273 117.109 47.3594 116.812 47.8047C116.516 48.25 116.293 48.8125 116.145 49.4922C116.004 50.1641 115.934 50.9531 115.934 51.8594V53.0664C115.934 53.9492 116 54.7266 116.133 55.3984C116.266 56.0625 116.469 56.625 116.742 57.0859C117.023 57.5391 117.383 57.8828 117.82 58.1172C118.266 58.3438 118.801 58.457 119.426 58.457C120.16 58.457 120.766 58.3398 121.242 58.1055C121.719 57.8711 122.082 57.5234 122.332 57.0625C122.59 56.6016 122.742 56.0273 122.789 55.3398ZM135.234 58.1406V52.4922C135.234 52.0859 135.168 51.7383 135.035 51.4492C134.902 51.1523 134.695 50.9219 134.414 50.7578C134.141 50.5938 133.785 50.5117 133.348 50.5117C132.973 50.5117 132.648 50.5781 132.375 50.7109C132.102 50.8359 131.891 51.0195 131.742 51.2617C131.594 51.4961 131.52 51.7734 131.52 52.0938H128.145C128.145 51.5547 128.27 51.043 128.52 50.5586C128.77 50.0742 129.133 49.6484 129.609 49.2812C130.086 48.9062 130.652 48.6133 131.309 48.4023C131.973 48.1914 132.715 48.0859 133.535 48.0859C134.52 48.0859 135.395 48.25 136.16 48.5781C136.926 48.9062 137.527 49.3984 137.965 50.0547C138.41 50.7109 138.633 51.5312 138.633 52.5156V57.9414C138.633 58.6367 138.676 59.207 138.762 59.6523C138.848 60.0898 138.973 60.4727 139.137 60.8008V61H135.727C135.562 60.6562 135.438 60.2266 135.352 59.7109C135.273 59.1875 135.234 58.6641 135.234 58.1406ZM135.68 53.2773L135.703 55.1875H133.816C133.371 55.1875 132.984 55.2383 132.656 55.3398C132.328 55.4414 132.059 55.5859 131.848 55.7734C131.637 55.9531 131.48 56.1641 131.379 56.4062C131.285 56.6484 131.238 56.9141 131.238 57.2031C131.238 57.4922 131.305 57.7539 131.438 57.9883C131.57 58.2148 131.762 58.3945 132.012 58.5273C132.262 58.6523 132.555 58.7148 132.891 58.7148C133.398 58.7148 133.84 58.6133 134.215 58.4102C134.59 58.207 134.879 57.957 135.082 57.6602C135.293 57.3633 135.402 57.082 135.41 56.8164L136.301 58.2461C136.176 58.5664 136.004 58.8984 135.785 59.2422C135.574 59.5859 135.305 59.9102 134.977 60.2148C134.648 60.5117 134.254 60.7578 133.793 60.9531C133.332 61.1406 132.785 61.2344 132.152 61.2344C131.348 61.2344 130.617 61.0742 129.961 60.7539C129.312 60.4258 128.797 59.9766 128.414 59.4062C128.039 58.8281 127.852 58.1719 127.852 57.4375C127.852 56.7734 127.977 56.1836 128.227 55.668C128.477 55.1523 128.844 54.7188 129.328 54.3672C129.82 54.0078 130.434 53.7383 131.168 53.5586C131.902 53.3711 132.754 53.2773 133.723 53.2773H135.68ZM144.609 51.0859V61H141.234V48.3203H144.41L144.609 51.0859ZM148.43 48.2383L148.371 51.3672C148.207 51.3438 148.008 51.3242 147.773 51.3086C147.547 51.2852 147.34 51.2734 147.152 51.2734C146.676 51.2734 146.262 51.3359 145.91 51.4609C145.566 51.5781 145.277 51.7539 145.043 51.9883C144.816 52.2227 144.645 52.5078 144.527 52.8438C144.418 53.1797 144.355 53.5625 144.34 53.9922L143.66 53.7812C143.66 52.9609 143.742 52.207 143.906 51.5195C144.07 50.8242 144.309 50.2188 144.621 49.7031C144.941 49.1875 145.332 48.7891 145.793 48.5078C146.254 48.2266 146.781 48.0859 147.375 48.0859C147.562 48.0859 147.754 48.1016 147.949 48.1328C148.145 48.1562 148.305 48.1914 148.43 48.2383ZM157.816 48.3203H160.875V60.5781C160.875 61.7344 160.617 62.7148 160.102 63.5195C159.594 64.332 158.883 64.9453 157.969 65.3594C157.055 65.7812 155.992 65.9922 154.781 65.9922C154.25 65.9922 153.688 65.9219 153.094 65.7812C152.508 65.6406 151.945 65.4219 151.406 65.125C150.875 64.8281 150.43 64.4531 150.07 64L151.559 62.0078C151.949 62.4609 152.402 62.8125 152.918 63.0625C153.434 63.3203 154.004 63.4492 154.629 63.4492C155.238 63.4492 155.754 63.3359 156.176 63.1094C156.598 62.8906 156.922 62.5664 157.148 62.1367C157.375 61.7148 157.488 61.2031 157.488 60.6016V51.25L157.816 48.3203ZM149.285 54.8125V54.5664C149.285 53.5977 149.402 52.7188 149.637 51.9297C149.879 51.1328 150.219 50.4492 150.656 49.8789C151.102 49.3086 151.641 48.8672 152.273 48.5547C152.906 48.2422 153.621 48.0859 154.418 48.0859C155.262 48.0859 155.969 48.2422 156.539 48.5547C157.109 48.8672 157.578 49.3125 157.945 49.8906C158.312 50.4609 158.598 51.1367 158.801 51.918C159.012 52.6914 159.176 53.5391 159.293 54.4609V55C159.176 55.8828 159 56.7031 158.766 57.4609C158.531 58.2188 158.223 58.8828 157.84 59.4531C157.457 60.0156 156.98 60.4531 156.41 60.7656C155.848 61.0781 155.176 61.2344 154.395 61.2344C153.613 61.2344 152.906 61.0742 152.273 60.7539C151.648 60.4336 151.113 59.9844 150.668 59.4062C150.223 58.8281 149.879 58.1484 149.637 57.3672C149.402 56.5859 149.285 55.7344 149.285 54.8125ZM152.66 54.5664V54.8125C152.66 55.3359 152.711 55.8242 152.812 56.2773C152.914 56.7305 153.07 57.1328 153.281 57.4844C153.5 57.8281 153.77 58.0977 154.09 58.293C154.418 58.4805 154.805 58.5742 155.25 58.5742C155.867 58.5742 156.371 58.4453 156.762 58.1875C157.152 57.9219 157.445 57.5586 157.641 57.0977C157.836 56.6367 157.949 56.1055 157.98 55.5039V53.9688C157.965 53.4766 157.898 53.0352 157.781 52.6445C157.664 52.2461 157.5 51.9062 157.289 51.625C157.078 51.3438 156.805 51.125 156.469 50.9688C156.133 50.8125 155.734 50.7344 155.273 50.7344C154.828 50.7344 154.441 50.8359 154.113 51.0391C153.793 51.2344 153.523 51.5039 153.305 51.8477C153.094 52.1914 152.934 52.5977 152.824 53.0664C152.715 53.5273 152.66 54.0273 152.66 54.5664ZM162.961 54.7891V54.543C162.961 53.6133 163.094 52.7578 163.359 51.9766C163.625 51.1875 164.012 50.5039 164.52 49.9258C165.027 49.3477 165.652 48.8984 166.395 48.5781C167.137 48.25 167.988 48.0859 168.949 48.0859C169.91 48.0859 170.766 48.25 171.516 48.5781C172.266 48.8984 172.895 49.3477 173.402 49.9258C173.918 50.5039 174.309 51.1875 174.574 51.9766C174.84 52.7578 174.973 53.6133 174.973 54.543V54.7891C174.973 55.7109 174.84 56.5664 174.574 57.3555C174.309 58.1367 173.918 58.8203 173.402 59.4062C172.895 59.9844 172.27 60.4336 171.527 60.7539C170.785 61.0742 169.934 61.2344 168.973 61.2344C168.012 61.2344 167.156 61.0742 166.406 60.7539C165.664 60.4336 165.035 59.9844 164.52 59.4062C164.012 58.8203 163.625 58.1367 163.359 57.3555C163.094 56.5664 162.961 55.7109 162.961 54.7891ZM166.336 54.543V54.7891C166.336 55.3203 166.383 55.8164 166.477 56.2773C166.57 56.7383 166.719 57.1445 166.922 57.4961C167.133 57.8398 167.406 58.1094 167.742 58.3047C168.078 58.5 168.488 58.5977 168.973 58.5977C169.441 58.5977 169.844 58.5 170.18 58.3047C170.516 58.1094 170.785 57.8398 170.988 57.4961C171.191 57.1445 171.34 56.7383 171.434 56.2773C171.535 55.8164 171.586 55.3203 171.586 54.7891V54.543C171.586 54.0273 171.535 53.543 171.434 53.0898C171.34 52.6289 171.188 52.2227 170.977 51.8711C170.773 51.5117 170.504 51.2305 170.168 51.0273C169.832 50.8242 169.426 50.7227 168.949 50.7227C168.473 50.7227 168.066 50.8242 167.73 51.0273C167.402 51.2305 167.133 51.5117 166.922 51.8711C166.719 52.2227 166.57 52.6289 166.477 53.0898C166.383 53.543 166.336 54.0273 166.336 54.543ZM192.117 56.5352C192.117 56.2305 192.07 55.957 191.977 55.7148C191.891 55.4648 191.727 55.2383 191.484 55.0352C191.242 54.8242 190.902 54.6172 190.465 54.4141C190.027 54.2109 189.461 54 188.766 53.7812C187.992 53.5312 187.258 53.25 186.562 52.9375C185.875 52.625 185.266 52.2617 184.734 51.8477C184.211 51.4258 183.797 50.9375 183.492 50.3828C183.195 49.8281 183.047 49.1836 183.047 48.4492C183.047 47.7383 183.203 47.0938 183.516 46.5156C183.828 45.9297 184.266 45.4297 184.828 45.0156C185.391 44.5938 186.055 44.2695 186.82 44.043C187.594 43.8164 188.441 43.7031 189.363 43.7031C190.621 43.7031 191.719 43.9297 192.656 44.3828C193.594 44.8359 194.32 45.457 194.836 46.2461C195.359 47.0352 195.621 47.9375 195.621 48.9531H192.129C192.129 48.4531 192.023 48.0156 191.812 47.6406C191.609 47.2578 191.297 46.957 190.875 46.7383C190.461 46.5195 189.938 46.4102 189.305 46.4102C188.695 46.4102 188.188 46.5039 187.781 46.6914C187.375 46.8711 187.07 47.1172 186.867 47.4297C186.664 47.7344 186.562 48.0781 186.562 48.4609C186.562 48.75 186.633 49.0117 186.773 49.2461C186.922 49.4805 187.141 49.6992 187.43 49.9023C187.719 50.1055 188.074 50.2969 188.496 50.4766C188.918 50.6562 189.406 50.832 189.961 51.0039C190.891 51.2852 191.707 51.6016 192.41 51.9531C193.121 52.3047 193.715 52.6992 194.191 53.1367C194.668 53.5742 195.027 54.0703 195.27 54.625C195.512 55.1797 195.633 55.8086 195.633 56.5117C195.633 57.2539 195.488 57.918 195.199 58.5039C194.91 59.0898 194.492 59.5859 193.945 59.9922C193.398 60.3984 192.746 60.707 191.988 60.918C191.23 61.1289 190.383 61.2344 189.445 61.2344C188.602 61.2344 187.77 61.125 186.949 60.9062C186.129 60.6797 185.383 60.3398 184.711 59.8867C184.047 59.4336 183.516 58.8555 183.117 58.1523C182.719 57.4492 182.52 56.6172 182.52 55.6562H186.047C186.047 56.1875 186.129 56.6367 186.293 57.0039C186.457 57.3711 186.688 57.668 186.984 57.8945C187.289 58.1211 187.648 58.2852 188.062 58.3867C188.484 58.4883 188.945 58.5391 189.445 58.5391C190.055 58.5391 190.555 58.4531 190.945 58.2812C191.344 58.1094 191.637 57.8711 191.824 57.5664C192.02 57.2617 192.117 56.918 192.117 56.5352ZM201.188 50.9453V61H197.801V48.3203H200.977L201.188 50.9453ZM200.719 54.2148H199.781C199.781 53.332 199.887 52.5195 200.098 51.7773C200.316 51.0273 200.633 50.3789 201.047 49.832C201.469 49.2773 201.988 48.8477 202.605 48.543C203.223 48.2383 203.938 48.0859 204.75 48.0859C205.312 48.0859 205.828 48.1719 206.297 48.3438C206.766 48.5078 207.168 48.7695 207.504 49.1289C207.848 49.4805 208.113 49.9414 208.301 50.5117C208.488 51.0742 208.582 51.75 208.582 52.5391V61H205.207V52.9141C205.207 52.3359 205.129 51.8906 204.973 51.5781C204.816 51.2656 204.594 51.0469 204.305 50.9219C204.023 50.7969 203.684 50.7344 203.285 50.7344C202.848 50.7344 202.465 50.8242 202.137 51.0039C201.816 51.1836 201.551 51.4336 201.34 51.7539C201.129 52.0664 200.973 52.4336 200.871 52.8555C200.77 53.2773 200.719 53.7305 200.719 54.2148ZM208.266 53.8281L207.059 53.9805C207.059 53.1523 207.16 52.3828 207.363 51.6719C207.574 50.9609 207.883 50.3359 208.289 49.7969C208.703 49.2578 209.215 48.8398 209.824 48.543C210.434 48.2383 211.137 48.0859 211.934 48.0859C212.543 48.0859 213.098 48.1758 213.598 48.3555C214.098 48.5273 214.523 48.8047 214.875 49.1875C215.234 49.5625 215.508 50.0547 215.695 50.6641C215.891 51.2734 215.988 52.0195 215.988 52.9023V61H212.602V52.9023C212.602 52.3164 212.523 51.8711 212.367 51.5664C212.219 51.2539 212 51.0391 211.711 50.9219C211.43 50.7969 211.094 50.7344 210.703 50.7344C210.297 50.7344 209.941 50.8164 209.637 50.9805C209.332 51.1367 209.078 51.3555 208.875 51.6367C208.672 51.918 208.52 52.2461 208.418 52.6211C208.316 52.9883 208.266 53.3906 208.266 53.8281ZM225.445 58.1406V52.4922C225.445 52.0859 225.379 51.7383 225.246 51.4492C225.113 51.1523 224.906 50.9219 224.625 50.7578C224.352 50.5938 223.996 50.5117 223.559 50.5117C223.184 50.5117 222.859 50.5781 222.586 50.7109C222.312 50.8359 222.102 51.0195 221.953 51.2617C221.805 51.4961 221.73 51.7734 221.73 52.0938H218.355C218.355 51.5547 218.48 51.043 218.73 50.5586C218.98 50.0742 219.344 49.6484 219.82 49.2812C220.297 48.9062 220.863 48.6133 221.52 48.4023C222.184 48.1914 222.926 48.0859 223.746 48.0859C224.73 48.0859 225.605 48.25 226.371 48.5781C227.137 48.9062 227.738 49.3984 228.176 50.0547C228.621 50.7109 228.844 51.5312 228.844 52.5156V57.9414C228.844 58.6367 228.887 59.207 228.973 59.6523C229.059 60.0898 229.184 60.4727 229.348 60.8008V61H225.938C225.773 60.6562 225.648 60.2266 225.562 59.7109C225.484 59.1875 225.445 58.6641 225.445 58.1406ZM225.891 53.2773L225.914 55.1875H224.027C223.582 55.1875 223.195 55.2383 222.867 55.3398C222.539 55.4414 222.27 55.5859 222.059 55.7734C221.848 55.9531 221.691 56.1641 221.59 56.4062C221.496 56.6484 221.449 56.9141 221.449 57.2031C221.449 57.4922 221.516 57.7539 221.648 57.9883C221.781 58.2148 221.973 58.3945 222.223 58.5273C222.473 58.6523 222.766 58.7148 223.102 58.7148C223.609 58.7148 224.051 58.6133 224.426 58.4102C224.801 58.207 225.09 57.957 225.293 57.6602C225.504 57.3633 225.613 57.082 225.621 56.8164L226.512 58.2461C226.387 58.5664 226.215 58.8984 225.996 59.2422C225.785 59.5859 225.516 59.9102 225.188 60.2148C224.859 60.5117 224.465 60.7578 224.004 60.9531C223.543 61.1406 222.996 61.2344 222.363 61.2344C221.559 61.2344 220.828 61.0742 220.172 60.7539C219.523 60.4258 219.008 59.9766 218.625 59.4062C218.25 58.8281 218.062 58.1719 218.062 57.4375C218.062 56.7734 218.188 56.1836 218.438 55.668C218.688 55.1523 219.055 54.7188 219.539 54.3672C220.031 54.0078 220.645 53.7383 221.379 53.5586C222.113 53.3711 222.965 53.2773 223.934 53.2773H225.891ZM234.82 51.0859V61H231.445V48.3203H234.621L234.82 51.0859ZM238.641 48.2383L238.582 51.3672C238.418 51.3438 238.219 51.3242 237.984 51.3086C237.758 51.2852 237.551 51.2734 237.363 51.2734C236.887 51.2734 236.473 51.3359 236.121 51.4609C235.777 51.5781 235.488 51.7539 235.254 51.9883C235.027 52.2227 234.855 52.5078 234.738 52.8438C234.629 53.1797 234.566 53.5625 234.551 53.9922L233.871 53.7812C233.871 52.9609 233.953 52.207 234.117 51.5195C234.281 50.8242 234.52 50.2188 234.832 49.7031C235.152 49.1875 235.543 48.7891 236.004 48.5078C236.465 48.2266 236.992 48.0859 237.586 48.0859C237.773 48.0859 237.965 48.1016 238.16 48.1328C238.355 48.1562 238.516 48.1914 238.641 48.2383ZM247.031 48.3203V50.7109H239.648V48.3203H247.031ZM241.477 45.1914H244.852V57.1797C244.852 57.5469 244.898 57.8281 244.992 58.0234C245.094 58.2188 245.242 58.3555 245.438 58.4336C245.633 58.5039 245.879 58.5391 246.176 58.5391C246.387 58.5391 246.574 58.5312 246.738 58.5156C246.91 58.4922 247.055 58.4688 247.172 58.4453L247.184 60.9297C246.895 61.0234 246.582 61.0977 246.246 61.1523C245.91 61.207 245.539 61.2344 245.133 61.2344C244.391 61.2344 243.742 61.1133 243.188 60.8711C242.641 60.6211 242.219 60.2227 241.922 59.6758C241.625 59.1289 241.477 58.4102 241.477 57.5195V45.1914Z" fill="#888888"/>
<path d="M109.219 107.422H100.734V101.07H109.219C110.375 101.07 111.312 100.875 112.031 100.484C112.75 100.094 113.273 99.5547 113.602 98.8672C113.945 98.1641 114.117 97.375 114.117 96.5C114.117 95.5625 113.945 94.6953 113.602 93.8984C113.273 93.1016 112.75 92.4609 112.031 91.9766C111.312 91.4766 110.375 91.2266 109.219 91.2266H103.828V119H95.6016V84.875H109.219C111.953 84.875 114.305 85.375 116.273 86.375C118.258 87.375 119.781 88.75 120.844 90.5C121.906 92.2344 122.438 94.2188 122.438 96.4531C122.438 98.6562 121.906 100.578 120.844 102.219C119.781 103.859 118.258 105.141 116.273 106.062C114.305 106.969 111.953 107.422 109.219 107.422ZM134.461 99.9219V119H126.562V93.6406H133.945L134.461 99.9219ZM141.961 93.4531L141.82 100.789C141.508 100.758 141.086 100.719 140.555 100.672C140.023 100.625 139.578 100.602 139.219 100.602C138.297 100.602 137.5 100.711 136.828 100.93C136.172 101.133 135.625 101.445 135.188 101.867C134.766 102.273 134.453 102.789 134.25 103.414C134.062 104.039 133.977 104.766 133.992 105.594L132.562 104.656C132.562 102.953 132.727 101.406 133.055 100.016C133.398 98.6094 133.883 97.3984 134.508 96.3828C135.133 95.3516 135.891 94.5625 136.781 94.0156C137.672 93.4531 138.672 93.1719 139.781 93.1719C140.172 93.1719 140.555 93.1953 140.93 93.2422C141.32 93.2891 141.664 93.3594 141.961 93.4531ZM142.852 106.578V106.086C142.852 104.227 143.117 102.516 143.648 100.953C144.18 99.375 144.961 98.0078 145.992 96.8516C147.023 95.6953 148.297 94.7969 149.812 94.1562C151.328 93.5 153.078 93.1719 155.062 93.1719C157.062 93.1719 158.82 93.5 160.336 94.1562C161.867 94.7969 163.148 95.6953 164.18 96.8516C165.211 98.0078 165.992 99.375 166.523 100.953C167.055 102.516 167.32 104.227 167.32 106.086V106.578C167.32 108.422 167.055 110.133 166.523 111.711C165.992 113.273 165.211 114.641 164.18 115.812C163.148 116.969 161.875 117.867 160.359 118.508C158.844 119.148 157.094 119.469 155.109 119.469C153.125 119.469 151.367 119.148 149.836 118.508C148.305 117.867 147.023 116.969 145.992 115.812C144.961 114.641 144.18 113.273 143.648 111.711C143.117 110.133 142.852 108.422 142.852 106.578ZM150.75 106.086V106.578C150.75 107.531 150.82 108.422 150.961 109.25C151.102 110.078 151.336 110.805 151.664 111.43C151.992 112.039 152.438 112.516 153 112.859C153.562 113.203 154.266 113.375 155.109 113.375C155.938 113.375 156.625 113.203 157.172 112.859C157.734 112.516 158.18 112.039 158.508 111.43C158.836 110.805 159.07 110.078 159.211 109.25C159.352 108.422 159.422 107.531 159.422 106.578V106.086C159.422 105.164 159.352 104.297 159.211 103.484C159.07 102.656 158.836 101.93 158.508 101.305C158.18 100.664 157.734 100.164 157.172 99.8047C156.609 99.4453 155.906 99.2656 155.062 99.2656C154.234 99.2656 153.539 99.4453 152.977 99.8047C152.43 100.164 151.992 100.664 151.664 101.305C151.336 101.93 151.102 102.656 150.961 103.484C150.82 104.297 150.75 105.164 150.75 106.086ZM171.422 93.6406H179.344V119.82C179.344 121.852 178.953 123.562 178.172 124.953C177.391 126.359 176.273 127.422 174.82 128.141C173.367 128.875 171.633 129.242 169.617 129.242C168.945 129.242 168.328 129.211 167.766 129.148C167.188 129.102 166.555 129 165.867 128.844V122.867C166.273 122.93 166.648 122.977 166.992 123.008C167.336 123.055 167.711 123.078 168.117 123.078C168.836 123.078 169.438 122.961 169.922 122.727C170.406 122.492 170.773 122.133 171.023 121.648C171.289 121.164 171.422 120.555 171.422 119.82V93.6406ZM170.836 87.1016C170.836 85.9766 171.242 85.0547 172.055 84.3359C172.867 83.6172 173.922 83.2578 175.219 83.2578C176.516 83.2578 177.57 83.6172 178.383 84.3359C179.195 85.0547 179.602 85.9766 179.602 87.1016C179.602 88.2266 179.195 89.1484 178.383 89.8672C177.57 90.5859 176.516 90.9453 175.219 90.9453C173.922 90.9453 172.867 90.5859 172.055 89.8672C171.242 89.1484 170.836 88.2266 170.836 87.1016ZM196.102 119.469C194.039 119.469 192.195 119.148 190.57 118.508C188.945 117.852 187.57 116.953 186.445 115.812C185.336 114.672 184.484 113.359 183.891 111.875C183.312 110.391 183.023 108.82 183.023 107.164V106.273C183.023 104.414 183.281 102.695 183.797 101.117C184.312 99.5234 185.078 98.1328 186.094 96.9453C187.109 95.7578 188.383 94.8359 189.914 94.1797C191.445 93.5078 193.227 93.1719 195.258 93.1719C197.055 93.1719 198.664 93.4609 200.086 94.0391C201.508 94.6172 202.711 95.4453 203.695 96.5234C204.695 97.6016 205.453 98.9062 205.969 100.438C206.5 101.969 206.766 103.688 206.766 105.594V108.805H186.047V103.859H199.055V103.25C199.07 102.406 198.922 101.688 198.609 101.094C198.312 100.5 197.875 100.047 197.297 99.7344C196.719 99.4219 196.016 99.2656 195.188 99.2656C194.328 99.2656 193.617 99.4531 193.055 99.8281C192.508 100.203 192.078 100.719 191.766 101.375C191.469 102.016 191.258 102.758 191.133 103.602C191.008 104.445 190.945 105.336 190.945 106.273V107.164C190.945 108.102 191.07 108.953 191.32 109.719C191.586 110.484 191.961 111.141 192.445 111.688C192.945 112.219 193.539 112.633 194.227 112.93C194.93 113.227 195.727 113.375 196.617 113.375C197.695 113.375 198.758 113.172 199.805 112.766C200.852 112.359 201.75 111.688 202.5 110.75L206.086 115.016C205.57 115.75 204.836 116.461 203.883 117.148C202.945 117.836 201.82 118.398 200.508 118.836C199.195 119.258 197.727 119.469 196.102 119.469ZM220.688 113.375C221.422 113.375 222.047 113.242 222.562 112.977C223.094 112.695 223.492 112.305 223.758 111.805C224.039 111.289 224.172 110.672 224.156 109.953H231.586C231.602 111.859 231.133 113.531 230.18 114.969C229.242 116.391 227.961 117.5 226.336 118.297C224.727 119.078 222.906 119.469 220.875 119.469C218.891 119.469 217.156 119.148 215.672 118.508C214.188 117.852 212.945 116.945 211.945 115.789C210.961 114.617 210.219 113.25 209.719 111.688C209.234 110.125 208.992 108.43 208.992 106.602V106.062C208.992 104.234 209.234 102.539 209.719 100.977C210.219 99.3984 210.961 98.0312 211.945 96.875C212.945 95.7031 214.18 94.7969 215.648 94.1562C217.133 93.5 218.859 93.1719 220.828 93.1719C222.938 93.1719 224.797 93.5703 226.406 94.3672C228.031 95.1641 229.305 96.3203 230.227 97.8359C231.148 99.3516 231.602 101.188 231.586 103.344H224.156C224.172 102.578 224.055 101.891 223.805 101.281C223.555 100.672 223.164 100.188 222.633 99.8281C222.117 99.4531 221.453 99.2656 220.641 99.2656C219.828 99.2656 219.172 99.4453 218.672 99.8047C218.172 100.164 217.789 100.664 217.523 101.305C217.273 101.93 217.102 102.648 217.008 103.461C216.93 104.273 216.891 105.141 216.891 106.062V106.602C216.891 107.539 216.93 108.422 217.008 109.25C217.102 110.062 217.281 110.781 217.547 111.406C217.812 112.016 218.195 112.5 218.695 112.859C219.195 113.203 219.859 113.375 220.688 113.375ZM248.32 93.6406V99.125H233.039V93.6406H248.32ZM236.25 87.3359H244.148V110.727C244.148 111.398 244.227 111.922 244.383 112.297C244.539 112.656 244.805 112.914 245.18 113.07C245.57 113.211 246.086 113.281 246.727 113.281C247.18 113.281 247.555 113.273 247.852 113.258C248.148 113.227 248.43 113.188 248.695 113.141V118.789C248.023 119.008 247.32 119.172 246.586 119.281C245.852 119.406 245.07 119.469 244.242 119.469C242.555 119.469 241.109 119.203 239.906 118.672C238.719 118.141 237.812 117.305 237.188 116.164C236.562 115.023 236.25 113.539 236.25 111.711V87.3359ZM267.867 84.875H274.57L282.188 108.617L289.805 84.875H296.508L284.906 119H279.469L267.867 84.875ZM263.789 84.875H270.727L272.016 111.031V119H263.789V84.875ZM293.648 84.875H300.609V119H292.359V111.031L293.648 84.875ZM318.68 112.625V102.172C318.68 101.453 318.578 100.836 318.375 100.32C318.172 99.8047 317.852 99.4062 317.414 99.125C316.977 98.8281 316.391 98.6797 315.656 98.6797C315.062 98.6797 314.555 98.7812 314.133 98.9844C313.711 99.1875 313.391 99.4922 313.172 99.8984C312.953 100.305 312.844 100.82 312.844 101.445H304.945C304.945 100.273 305.203 99.1875 305.719 98.1875C306.25 97.1719 307 96.2891 307.969 95.5391C308.953 94.7891 310.125 94.2109 311.484 93.8047C312.859 93.3828 314.391 93.1719 316.078 93.1719C318.094 93.1719 319.891 93.5078 321.469 94.1797C323.062 94.8516 324.32 95.8594 325.242 97.2031C326.164 98.5312 326.625 100.203 326.625 102.219V112.602C326.625 114.258 326.719 115.516 326.906 116.375C327.094 117.219 327.359 117.961 327.703 118.602V119H319.781C319.406 118.219 319.125 117.266 318.938 116.141C318.766 115 318.68 113.828 318.68 112.625ZM319.641 103.508L319.688 107.727H316.195C315.461 107.727 314.836 107.828 314.32 108.031C313.82 108.234 313.414 108.516 313.102 108.875C312.805 109.219 312.586 109.609 312.445 110.047C312.32 110.484 312.258 110.945 312.258 111.43C312.258 111.898 312.367 112.32 312.586 112.695C312.82 113.055 313.133 113.336 313.523 113.539C313.914 113.742 314.352 113.844 314.836 113.844C315.711 113.844 316.453 113.68 317.062 113.352C317.688 113.008 318.164 112.594 318.492 112.109C318.82 111.625 318.984 111.172 318.984 110.75L320.719 113.984C320.406 114.609 320.047 115.242 319.641 115.883C319.25 116.523 318.758 117.117 318.164 117.664C317.586 118.195 316.875 118.633 316.031 118.977C315.188 119.305 314.164 119.469 312.961 119.469C311.398 119.469 309.961 119.148 308.648 118.508C307.352 117.867 306.312 116.977 305.531 115.836C304.75 114.68 304.359 113.352 304.359 111.852C304.359 110.539 304.594 109.367 305.062 108.336C305.547 107.305 306.273 106.43 307.242 105.711C308.211 104.992 309.445 104.445 310.945 104.07C312.445 103.695 314.211 103.508 316.242 103.508H319.641ZM338.766 99.0547V119H330.867V93.6406H338.273L338.766 99.0547ZM337.828 105.453L335.977 105.5C335.977 103.562 336.211 101.836 336.68 100.32C337.148 98.7891 337.812 97.4922 338.672 96.4297C339.531 95.3672 340.555 94.5625 341.742 94.0156C342.945 93.4531 344.281 93.1719 345.75 93.1719C346.922 93.1719 347.992 93.3438 348.961 93.6875C349.945 94.0312 350.789 94.5859 351.492 95.3516C352.211 96.1172 352.758 97.1328 353.133 98.3984C353.523 99.6484 353.719 101.195 353.719 103.039V119H345.773V103.016C345.773 102 345.633 101.227 345.352 100.695C345.07 100.148 344.664 99.7734 344.133 99.5703C343.602 99.3672 342.953 99.2656 342.188 99.2656C341.375 99.2656 340.688 99.4219 340.125 99.7344C339.562 100.047 339.109 100.484 338.766 101.047C338.438 101.594 338.195 102.242 338.039 102.992C337.898 103.742 337.828 104.562 337.828 105.453ZM371.273 112.625V102.172C371.273 101.453 371.172 100.836 370.969 100.32C370.766 99.8047 370.445 99.4062 370.008 99.125C369.57 98.8281 368.984 98.6797 368.25 98.6797C367.656 98.6797 367.148 98.7812 366.727 98.9844C366.305 99.1875 365.984 99.4922 365.766 99.8984C365.547 100.305 365.438 100.82 365.438 101.445H357.539C357.539 100.273 357.797 99.1875 358.312 98.1875C358.844 97.1719 359.594 96.2891 360.562 95.5391C361.547 94.7891 362.719 94.2109 364.078 93.8047C365.453 93.3828 366.984 93.1719 368.672 93.1719C370.688 93.1719 372.484 93.5078 374.062 94.1797C375.656 94.8516 376.914 95.8594 377.836 97.2031C378.758 98.5312 379.219 100.203 379.219 102.219V112.602C379.219 114.258 379.312 115.516 379.5 116.375C379.688 117.219 379.953 117.961 380.297 118.602V119H372.375C372 118.219 371.719 117.266 371.531 116.141C371.359 115 371.273 113.828 371.273 112.625ZM372.234 103.508L372.281 107.727H368.789C368.055 107.727 367.43 107.828 366.914 108.031C366.414 108.234 366.008 108.516 365.695 108.875C365.398 109.219 365.18 109.609 365.039 110.047C364.914 110.484 364.852 110.945 364.852 111.43C364.852 111.898 364.961 112.32 365.18 112.695C365.414 113.055 365.727 113.336 366.117 113.539C366.508 113.742 366.945 113.844 367.43 113.844C368.305 113.844 369.047 113.68 369.656 113.352C370.281 113.008 370.758 112.594 371.086 112.109C371.414 111.625 371.578 111.172 371.578 110.75L373.312 113.984C373 114.609 372.641 115.242 372.234 115.883C371.844 116.523 371.352 117.117 370.758 117.664C370.18 118.195 369.469 118.633 368.625 118.977C367.781 119.305 366.758 119.469 365.555 119.469C363.992 119.469 362.555 119.148 361.242 118.508C359.945 117.867 358.906 116.977 358.125 115.836C357.344 114.68 356.953 113.352 356.953 111.852C356.953 110.539 357.188 109.367 357.656 108.336C358.141 107.305 358.867 106.43 359.836 105.711C360.805 104.992 362.039 104.445 363.539 104.07C365.039 103.695 366.805 103.508 368.836 103.508H372.234ZM399.539 93.6406H406.711V118.016C406.711 120.359 406.172 122.344 405.094 123.969C404.016 125.609 402.508 126.852 400.57 127.695C398.648 128.555 396.398 128.984 393.82 128.984C392.68 128.984 391.516 128.836 390.328 128.539C389.141 128.258 388.031 127.836 387 127.273C385.969 126.711 385.102 126.016 384.398 125.188L387.703 120.547C388.344 121.266 389.148 121.875 390.117 122.375C391.086 122.891 392.227 123.148 393.539 123.148C394.68 123.148 395.633 122.945 396.398 122.539C397.18 122.133 397.773 121.539 398.18 120.758C398.586 119.992 398.789 119.062 398.789 117.969V99.6406L399.539 93.6406ZM382.688 106.625V106.133C382.688 104.211 382.922 102.461 383.391 100.883C383.875 99.2891 384.562 97.9219 385.453 96.7812C386.359 95.625 387.453 94.7344 388.734 94.1094C390.016 93.4844 391.461 93.1719 393.07 93.1719C394.805 93.1719 396.227 93.5078 397.336 94.1797C398.461 94.8359 399.359 95.7578 400.031 96.9453C400.719 98.1328 401.25 99.5234 401.625 101.117C402.016 102.695 402.344 104.398 402.609 106.227V106.812C402.344 108.531 401.977 110.156 401.508 111.688C401.055 113.203 400.461 114.547 399.727 115.719C398.992 116.891 398.07 117.812 396.961 118.484C395.867 119.141 394.555 119.469 393.023 119.469C391.43 119.469 389.992 119.148 388.711 118.508C387.445 117.867 386.359 116.969 385.453 115.812C384.562 114.656 383.875 113.297 383.391 111.734C382.922 110.172 382.688 108.469 382.688 106.625ZM390.586 106.133V106.625C390.586 107.578 390.672 108.461 390.844 109.273C391.031 110.086 391.312 110.805 391.688 111.43C392.062 112.039 392.523 112.516 393.07 112.859C393.633 113.203 394.289 113.375 395.039 113.375C396.18 113.375 397.102 113.133 397.805 112.648C398.508 112.164 399.016 111.477 399.328 110.586C399.641 109.695 399.773 108.648 399.727 107.445V105.594C399.758 104.562 399.688 103.656 399.516 102.875C399.344 102.078 399.07 101.414 398.695 100.883C398.336 100.352 397.852 99.9531 397.242 99.6875C396.648 99.4062 395.93 99.2656 395.086 99.2656C394.352 99.2656 393.703 99.4375 393.141 99.7812C392.578 100.125 392.109 100.609 391.734 101.234C391.359 101.844 391.07 102.57 390.867 103.414C390.68 104.242 390.586 105.148 390.586 106.133ZM423.539 119.469C421.477 119.469 419.633 119.148 418.008 118.508C416.383 117.852 415.008 116.953 413.883 115.812C412.773 114.672 411.922 113.359 411.328 111.875C410.75 110.391 410.461 108.82 410.461 107.164V106.273C410.461 104.414 410.719 102.695 411.234 101.117C411.75 99.5234 412.516 98.1328 413.531 96.9453C414.547 95.7578 415.82 94.8359 417.352 94.1797C418.883 93.5078 420.664 93.1719 422.695 93.1719C424.492 93.1719 426.102 93.4609 427.523 94.0391C428.945 94.6172 430.148 95.4453 431.133 96.5234C432.133 97.6016 432.891 98.9062 433.406 100.438C433.938 101.969 434.203 103.688 434.203 105.594V108.805H413.484V103.859H426.492V103.25C426.508 102.406 426.359 101.688 426.047 101.094C425.75 100.5 425.312 100.047 424.734 99.7344C424.156 99.4219 423.453 99.2656 422.625 99.2656C421.766 99.2656 421.055 99.4531 420.492 99.8281C419.945 100.203 419.516 100.719 419.203 101.375C418.906 102.016 418.695 102.758 418.57 103.602C418.445 104.445 418.383 105.336 418.383 106.273V107.164C418.383 108.102 418.508 108.953 418.758 109.719C419.023 110.484 419.398 111.141 419.883 111.688C420.383 112.219 420.977 112.633 421.664 112.93C422.367 113.227 423.164 113.375 424.055 113.375C425.133 113.375 426.195 113.172 427.242 112.766C428.289 112.359 429.188 111.688 429.938 110.75L433.523 115.016C433.008 115.75 432.273 116.461 431.32 117.148C430.383 117.836 429.258 118.398 427.945 118.836C426.633 119.258 425.164 119.469 423.539 119.469ZM445.383 99.0078V119H437.484V93.6406H444.891L445.383 99.0078ZM444.422 105.453L442.617 105.5C442.617 103.719 442.828 102.078 443.25 100.578C443.672 99.0781 444.297 97.7734 445.125 96.6641C445.953 95.5547 446.969 94.6953 448.172 94.0859C449.391 93.4766 450.797 93.1719 452.391 93.1719C453.5 93.1719 454.508 93.3438 455.414 93.6875C456.32 94.0156 457.102 94.5391 457.758 95.2578C458.414 95.9609 458.914 96.8828 459.258 98.0234C459.617 99.1484 459.797 100.5 459.797 102.078V119H451.898V103.086C451.898 102.008 451.773 101.195 451.523 100.648C451.289 100.102 450.945 99.7344 450.492 99.5469C450.039 99.3594 449.484 99.2656 448.828 99.2656C448.141 99.2656 447.523 99.4219 446.977 99.7344C446.43 100.047 445.961 100.484 445.57 101.047C445.195 101.594 444.906 102.242 444.703 102.992C444.516 103.742 444.422 104.562 444.422 105.453ZM458.906 105.453L456.703 105.5C456.703 103.719 456.898 102.078 457.289 100.578C457.695 99.0781 458.297 97.7734 459.094 96.6641C459.906 95.5547 460.914 94.6953 462.117 94.0859C463.32 93.4766 464.719 93.1719 466.312 93.1719C467.469 93.1719 468.531 93.3438 469.5 93.6875C470.469 94.0312 471.305 94.5859 472.008 95.3516C472.711 96.1172 473.258 97.1328 473.648 98.3984C474.039 99.6484 474.234 101.195 474.234 103.039V119H466.312V103.039C466.312 101.992 466.188 101.203 465.938 100.672C465.703 100.125 465.359 99.7578 464.906 99.5703C464.453 99.3672 463.914 99.2656 463.289 99.2656C462.539 99.2656 461.891 99.4219 461.344 99.7344C460.797 100.047 460.336 100.484 459.961 101.047C459.602 101.594 459.336 102.242 459.164 102.992C458.992 103.742 458.906 104.562 458.906 105.453ZM491.039 119.469C488.977 119.469 487.133 119.148 485.508 118.508C483.883 117.852 482.508 116.953 481.383 115.812C480.273 114.672 479.422 113.359 478.828 111.875C478.25 110.391 477.961 108.82 477.961 107.164V106.273C477.961 104.414 478.219 102.695 478.734 101.117C479.25 99.5234 480.016 98.1328 481.031 96.9453C482.047 95.7578 483.32 94.8359 484.852 94.1797C486.383 93.5078 488.164 93.1719 490.195 93.1719C491.992 93.1719 493.602 93.4609 495.023 94.0391C496.445 94.6172 497.648 95.4453 498.633 96.5234C499.633 97.6016 500.391 98.9062 500.906 100.438C501.438 101.969 501.703 103.688 501.703 105.594V108.805H480.984V103.859H493.992V103.25C494.008 102.406 493.859 101.688 493.547 101.094C493.25 100.5 492.812 100.047 492.234 99.7344C491.656 99.4219 490.953 99.2656 490.125 99.2656C489.266 99.2656 488.555 99.4531 487.992 99.8281C487.445 100.203 487.016 100.719 486.703 101.375C486.406 102.016 486.195 102.758 486.07 103.602C485.945 104.445 485.883 105.336 485.883 106.273V107.164C485.883 108.102 486.008 108.953 486.258 109.719C486.523 110.484 486.898 111.141 487.383 111.688C487.883 112.219 488.477 112.633 489.164 112.93C489.867 113.227 490.664 113.375 491.555 113.375C492.633 113.375 493.695 113.172 494.742 112.766C495.789 112.359 496.688 111.688 497.438 110.75L501.023 115.016C500.508 115.75 499.773 116.461 498.82 117.148C497.883 117.836 496.758 118.398 495.445 118.836C494.133 119.258 492.664 119.469 491.039 119.469ZM512.672 99.0547V119H504.773V93.6406H512.18L512.672 99.0547ZM511.734 105.453L509.883 105.5C509.883 103.562 510.117 101.836 510.586 100.32C511.055 98.7891 511.719 97.4922 512.578 96.4297C513.438 95.3672 514.461 94.5625 515.648 94.0156C516.852 93.4531 518.188 93.1719 519.656 93.1719C520.828 93.1719 521.898 93.3438 522.867 93.6875C523.852 94.0312 524.695 94.5859 525.398 95.3516C526.117 96.1172 526.664 97.1328 527.039 98.3984C527.43 99.6484 527.625 101.195 527.625 103.039V119H519.68V103.016C519.68 102 519.539 101.227 519.258 100.695C518.977 100.148 518.57 99.7734 518.039 99.5703C517.508 99.3672 516.859 99.2656 516.094 99.2656C515.281 99.2656 514.594 99.4219 514.031 99.7344C513.469 100.047 513.016 100.484 512.672 101.047C512.344 101.594 512.102 102.242 511.945 102.992C511.805 103.742 511.734 104.562 511.734 105.453ZM545.367 93.6406V99.125H530.086V93.6406H545.367ZM533.297 87.3359H541.195V110.727C541.195 111.398 541.273 111.922 541.43 112.297C541.586 112.656 541.852 112.914 542.227 113.07C542.617 113.211 543.133 113.281 543.773 113.281C544.227 113.281 544.602 113.273 544.898 113.258C545.195 113.227 545.477 113.188 545.742 113.141V118.789C545.07 119.008 544.367 119.172 543.633 119.281C542.898 119.406 542.117 119.469 541.289 119.469C539.602 119.469 538.156 119.203 536.953 118.672C535.766 118.141 534.859 117.305 534.234 116.164C533.609 115.023 533.297 113.539 533.297 111.711V87.3359Z" fill="black"/>
<path d="M1134 0H1348C1356.28 0 1363 6.71573 1363 15V148C1363 156.284 1356.28 163 1348 163H1134V0Z" fill="#358C9C"/>
<path d="M1221.25 54.375H1275.75Z" fill="#D9D9D9"/>
<path d="M1221.25 54.375H1275.75" stroke="white" stroke-width="6" stroke-linecap="round" stroke-linejoin="round"/>
<path d="M1212.17 81.5H1257.58Z" fill="#D9D9D9"/>
<path d="M1212.17 81.5H1257.58" stroke="white" stroke-width="6" stroke-linecap="round" stroke-linejoin="round"/>
<path d="M1248.5 108.625H1284.83Z" fill="#D9D9D9"/>
<path d="M1248.5 108.625H1284.83" stroke="white" stroke-width="6" stroke-linecap="round" stroke-linejoin="round"/>
</svg>
