<svg width="1363" height="163" viewBox="0 0 1363 163" fill="none" xmlns="http://www.w3.org/2000/svg">
<path d="M0 15C0 6.71573 6.71573 0 15 0H37V163H15C6.71573 163 0 156.284 0 148V15Z" fill="#424242"/>
<rect width="1097" height="163" transform="translate(37)" fill="#F0F0F0"/>
<path d="M101.906 53.9219L94.3945 51.2383V48.0859L104.602 52.375V54.6367L101.906 53.9219ZM94.3945 56.1719L101.918 53.4297L104.602 52.7852V55.0352L94.3945 59.3242V56.1719ZM122.789 55.3398H126.293C126.223 56.4883 125.906 57.5078 125.344 58.3984C124.789 59.2891 124.012 59.9844 123.012 60.4844C122.02 60.9844 120.824 61.2344 119.426 61.2344C118.332 61.2344 117.352 61.0469 116.484 60.6719C115.617 60.2891 114.875 59.7422 114.258 59.0312C113.648 58.3203 113.184 57.4609 112.863 56.4531C112.543 55.4453 112.383 54.3164 112.383 53.0664V51.8828C112.383 50.6328 112.547 49.5039 112.875 48.4961C113.211 47.4805 113.688 46.6172 114.305 45.9062C114.93 45.1953 115.676 44.6484 116.543 44.2656C117.41 43.8828 118.379 43.6914 119.449 43.6914C120.871 43.6914 122.07 43.9492 123.047 44.4648C124.031 44.9805 124.793 45.6914 125.332 46.5977C125.879 47.5039 126.207 48.5352 126.316 49.6914H122.801C122.762 49.0039 122.625 48.4219 122.391 47.9453C122.156 47.4609 121.801 47.0977 121.324 46.8555C120.855 46.6055 120.23 46.4805 119.449 46.4805C118.863 46.4805 118.352 46.5898 117.914 46.8086C117.477 47.0273 117.109 47.3594 116.812 47.8047C116.516 48.25 116.293 48.8125 116.145 49.4922C116.004 50.1641 115.934 50.9531 115.934 51.8594V53.0664C115.934 53.9492 116 54.7266 116.133 55.3984C116.266 56.0625 116.469 56.625 116.742 57.0859C117.023 57.5391 117.383 57.8828 117.82 58.1172C118.266 58.3438 118.801 58.457 119.426 58.457C120.16 58.457 120.766 58.3398 121.242 58.1055C121.719 57.8711 122.082 57.5234 122.332 57.0625C122.59 56.6016 122.742 56.0273 122.789 55.3398ZM135.234 58.1406V52.4922C135.234 52.0859 135.168 51.7383 135.035 51.4492C134.902 51.1523 134.695 50.9219 134.414 50.7578C134.141 50.5938 133.785 50.5117 133.348 50.5117C132.973 50.5117 132.648 50.5781 132.375 50.7109C132.102 50.8359 131.891 51.0195 131.742 51.2617C131.594 51.4961 131.52 51.7734 131.52 52.0938H128.145C128.145 51.5547 128.27 51.043 128.52 50.5586C128.77 50.0742 129.133 49.6484 129.609 49.2812C130.086 48.9062 130.652 48.6133 131.309 48.4023C131.973 48.1914 132.715 48.0859 133.535 48.0859C134.52 48.0859 135.395 48.25 136.16 48.5781C136.926 48.9062 137.527 49.3984 137.965 50.0547C138.41 50.7109 138.633 51.5312 138.633 52.5156V57.9414C138.633 58.6367 138.676 59.207 138.762 59.6523C138.848 60.0898 138.973 60.4727 139.137 60.8008V61H135.727C135.562 60.6562 135.438 60.2266 135.352 59.7109C135.273 59.1875 135.234 58.6641 135.234 58.1406ZM135.68 53.2773L135.703 55.1875H133.816C133.371 55.1875 132.984 55.2383 132.656 55.3398C132.328 55.4414 132.059 55.5859 131.848 55.7734C131.637 55.9531 131.48 56.1641 131.379 56.4062C131.285 56.6484 131.238 56.9141 131.238 57.2031C131.238 57.4922 131.305 57.7539 131.438 57.9883C131.57 58.2148 131.762 58.3945 132.012 58.5273C132.262 58.6523 132.555 58.7148 132.891 58.7148C133.398 58.7148 133.84 58.6133 134.215 58.4102C134.59 58.207 134.879 57.957 135.082 57.6602C135.293 57.3633 135.402 57.082 135.41 56.8164L136.301 58.2461C136.176 58.5664 136.004 58.8984 135.785 59.2422C135.574 59.5859 135.305 59.9102 134.977 60.2148C134.648 60.5117 134.254 60.7578 133.793 60.9531C133.332 61.1406 132.785 61.2344 132.152 61.2344C131.348 61.2344 130.617 61.0742 129.961 60.7539C129.312 60.4258 128.797 59.9766 128.414 59.4062C128.039 58.8281 127.852 58.1719 127.852 57.4375C127.852 56.7734 127.977 56.1836 128.227 55.668C128.477 55.1523 128.844 54.7188 129.328 54.3672C129.82 54.0078 130.434 53.7383 131.168 53.5586C131.902 53.3711 132.754 53.2773 133.723 53.2773H135.68ZM144.609 51.0859V61H141.234V48.3203H144.41L144.609 51.0859ZM148.43 48.2383L148.371 51.3672C148.207 51.3438 148.008 51.3242 147.773 51.3086C147.547 51.2852 147.34 51.2734 147.152 51.2734C146.676 51.2734 146.262 51.3359 145.91 51.4609C145.566 51.5781 145.277 51.7539 145.043 51.9883C144.816 52.2227 144.645 52.5078 144.527 52.8438C144.418 53.1797 144.355 53.5625 144.34 53.9922L143.66 53.7812C143.66 52.9609 143.742 52.207 143.906 51.5195C144.07 50.8242 144.309 50.2188 144.621 49.7031C144.941 49.1875 145.332 48.7891 145.793 48.5078C146.254 48.2266 146.781 48.0859 147.375 48.0859C147.562 48.0859 147.754 48.1016 147.949 48.1328C148.145 48.1562 148.305 48.1914 148.43 48.2383ZM157.816 48.3203H160.875V60.5781C160.875 61.7344 160.617 62.7148 160.102 63.5195C159.594 64.332 158.883 64.9453 157.969 65.3594C157.055 65.7812 155.992 65.9922 154.781 65.9922C154.25 65.9922 153.688 65.9219 153.094 65.7812C152.508 65.6406 151.945 65.4219 151.406 65.125C150.875 64.8281 150.43 64.4531 150.07 64L151.559 62.0078C151.949 62.4609 152.402 62.8125 152.918 63.0625C153.434 63.3203 154.004 63.4492 154.629 63.4492C155.238 63.4492 155.754 63.3359 156.176 63.1094C156.598 62.8906 156.922 62.5664 157.148 62.1367C157.375 61.7148 157.488 61.2031 157.488 60.6016V51.25L157.816 48.3203ZM149.285 54.8125V54.5664C149.285 53.5977 149.402 52.7188 149.637 51.9297C149.879 51.1328 150.219 50.4492 150.656 49.8789C151.102 49.3086 151.641 48.8672 152.273 48.5547C152.906 48.2422 153.621 48.0859 154.418 48.0859C155.262 48.0859 155.969 48.2422 156.539 48.5547C157.109 48.8672 157.578 49.3125 157.945 49.8906C158.312 50.4609 158.598 51.1367 158.801 51.918C159.012 52.6914 159.176 53.5391 159.293 54.4609V55C159.176 55.8828 159 56.7031 158.766 57.4609C158.531 58.2188 158.223 58.8828 157.84 59.4531C157.457 60.0156 156.98 60.4531 156.41 60.7656C155.848 61.0781 155.176 61.2344 154.395 61.2344C153.613 61.2344 152.906 61.0742 152.273 60.7539C151.648 60.4336 151.113 59.9844 150.668 59.4062C150.223 58.8281 149.879 58.1484 149.637 57.3672C149.402 56.5859 149.285 55.7344 149.285 54.8125ZM152.66 54.5664V54.8125C152.66 55.3359 152.711 55.8242 152.812 56.2773C152.914 56.7305 153.07 57.1328 153.281 57.4844C153.5 57.8281 153.77 58.0977 154.09 58.293C154.418 58.4805 154.805 58.5742 155.25 58.5742C155.867 58.5742 156.371 58.4453 156.762 58.1875C157.152 57.9219 157.445 57.5586 157.641 57.0977C157.836 56.6367 157.949 56.1055 157.98 55.5039V53.9688C157.965 53.4766 157.898 53.0352 157.781 52.6445C157.664 52.2461 157.5 51.9062 157.289 51.625C157.078 51.3438 156.805 51.125 156.469 50.9688C156.133 50.8125 155.734 50.7344 155.273 50.7344C154.828 50.7344 154.441 50.8359 154.113 51.0391C153.793 51.2344 153.523 51.5039 153.305 51.8477C153.094 52.1914 152.934 52.5977 152.824 53.0664C152.715 53.5273 152.66 54.0273 152.66 54.5664ZM162.961 54.7891V54.543C162.961 53.6133 163.094 52.7578 163.359 51.9766C163.625 51.1875 164.012 50.5039 164.52 49.9258C165.027 49.3477 165.652 48.8984 166.395 48.5781C167.137 48.25 167.988 48.0859 168.949 48.0859C169.91 48.0859 170.766 48.25 171.516 48.5781C172.266 48.8984 172.895 49.3477 173.402 49.9258C173.918 50.5039 174.309 51.1875 174.574 51.9766C174.84 52.7578 174.973 53.6133 174.973 54.543V54.7891C174.973 55.7109 174.84 56.5664 174.574 57.3555C174.309 58.1367 173.918 58.8203 173.402 59.4062C172.895 59.9844 172.27 60.4336 171.527 60.7539C170.785 61.0742 169.934 61.2344 168.973 61.2344C168.012 61.2344 167.156 61.0742 166.406 60.7539C165.664 60.4336 165.035 59.9844 164.52 59.4062C164.012 58.8203 163.625 58.1367 163.359 57.3555C163.094 56.5664 162.961 55.7109 162.961 54.7891ZM166.336 54.543V54.7891C166.336 55.3203 166.383 55.8164 166.477 56.2773C166.57 56.7383 166.719 57.1445 166.922 57.4961C167.133 57.8398 167.406 58.1094 167.742 58.3047C168.078 58.5 168.488 58.5977 168.973 58.5977C169.441 58.5977 169.844 58.5 170.18 58.3047C170.516 58.1094 170.785 57.8398 170.988 57.4961C171.191 57.1445 171.34 56.7383 171.434 56.2773C171.535 55.8164 171.586 55.3203 171.586 54.7891V54.543C171.586 54.0273 171.535 53.543 171.434 53.0898C171.34 52.6289 171.188 52.2227 170.977 51.8711C170.773 51.5117 170.504 51.2305 170.168 51.0273C169.832 50.8242 169.426 50.7227 168.949 50.7227C168.473 50.7227 168.066 50.8242 167.73 51.0273C167.402 51.2305 167.133 51.5117 166.922 51.8711C166.719 52.2227 166.57 52.6289 166.477 53.0898C166.383 53.543 166.336 54.0273 166.336 54.543ZM192.117 56.5352C192.117 56.2305 192.07 55.957 191.977 55.7148C191.891 55.4648 191.727 55.2383 191.484 55.0352C191.242 54.8242 190.902 54.6172 190.465 54.4141C190.027 54.2109 189.461 54 188.766 53.7812C187.992 53.5312 187.258 53.25 186.562 52.9375C185.875 52.625 185.266 52.2617 184.734 51.8477C184.211 51.4258 183.797 50.9375 183.492 50.3828C183.195 49.8281 183.047 49.1836 183.047 48.4492C183.047 47.7383 183.203 47.0938 183.516 46.5156C183.828 45.9297 184.266 45.4297 184.828 45.0156C185.391 44.5938 186.055 44.2695 186.82 44.043C187.594 43.8164 188.441 43.7031 189.363 43.7031C190.621 43.7031 191.719 43.9297 192.656 44.3828C193.594 44.8359 194.32 45.457 194.836 46.2461C195.359 47.0352 195.621 47.9375 195.621 48.9531H192.129C192.129 48.4531 192.023 48.0156 191.812 47.6406C191.609 47.2578 191.297 46.957 190.875 46.7383C190.461 46.5195 189.938 46.4102 189.305 46.4102C188.695 46.4102 188.188 46.5039 187.781 46.6914C187.375 46.8711 187.07 47.1172 186.867 47.4297C186.664 47.7344 186.562 48.0781 186.562 48.4609C186.562 48.75 186.633 49.0117 186.773 49.2461C186.922 49.4805 187.141 49.6992 187.43 49.9023C187.719 50.1055 188.074 50.2969 188.496 50.4766C188.918 50.6562 189.406 50.832 189.961 51.0039C190.891 51.2852 191.707 51.6016 192.41 51.9531C193.121 52.3047 193.715 52.6992 194.191 53.1367C194.668 53.5742 195.027 54.0703 195.27 54.625C195.512 55.1797 195.633 55.8086 195.633 56.5117C195.633 57.2539 195.488 57.918 195.199 58.5039C194.91 59.0898 194.492 59.5859 193.945 59.9922C193.398 60.3984 192.746 60.707 191.988 60.918C191.23 61.1289 190.383 61.2344 189.445 61.2344C188.602 61.2344 187.77 61.125 186.949 60.9062C186.129 60.6797 185.383 60.3398 184.711 59.8867C184.047 59.4336 183.516 58.8555 183.117 58.1523C182.719 57.4492 182.52 56.6172 182.52 55.6562H186.047C186.047 56.1875 186.129 56.6367 186.293 57.0039C186.457 57.3711 186.688 57.668 186.984 57.8945C187.289 58.1211 187.648 58.2852 188.062 58.3867C188.484 58.4883 188.945 58.5391 189.445 58.5391C190.055 58.5391 190.555 58.4531 190.945 58.2812C191.344 58.1094 191.637 57.8711 191.824 57.5664C192.02 57.2617 192.117 56.918 192.117 56.5352ZM201.188 50.9453V61H197.801V48.3203H200.977L201.188 50.9453ZM200.719 54.2148H199.781C199.781 53.332 199.887 52.5195 200.098 51.7773C200.316 51.0273 200.633 50.3789 201.047 49.832C201.469 49.2773 201.988 48.8477 202.605 48.543C203.223 48.2383 203.938 48.0859 204.75 48.0859C205.312 48.0859 205.828 48.1719 206.297 48.3438C206.766 48.5078 207.168 48.7695 207.504 49.1289C207.848 49.4805 208.113 49.9414 208.301 50.5117C208.488 51.0742 208.582 51.75 208.582 52.5391V61H205.207V52.9141C205.207 52.3359 205.129 51.8906 204.973 51.5781C204.816 51.2656 204.594 51.0469 204.305 50.9219C204.023 50.7969 203.684 50.7344 203.285 50.7344C202.848 50.7344 202.465 50.8242 202.137 51.0039C201.816 51.1836 201.551 51.4336 201.34 51.7539C201.129 52.0664 200.973 52.4336 200.871 52.8555C200.77 53.2773 200.719 53.7305 200.719 54.2148ZM208.266 53.8281L207.059 53.9805C207.059 53.1523 207.16 52.3828 207.363 51.6719C207.574 50.9609 207.883 50.3359 208.289 49.7969C208.703 49.2578 209.215 48.8398 209.824 48.543C210.434 48.2383 211.137 48.0859 211.934 48.0859C212.543 48.0859 213.098 48.1758 213.598 48.3555C214.098 48.5273 214.523 48.8047 214.875 49.1875C215.234 49.5625 215.508 50.0547 215.695 50.6641C215.891 51.2734 215.988 52.0195 215.988 52.9023V61H212.602V52.9023C212.602 52.3164 212.523 51.8711 212.367 51.5664C212.219 51.2539 212 51.0391 211.711 50.9219C211.43 50.7969 211.094 50.7344 210.703 50.7344C210.297 50.7344 209.941 50.8164 209.637 50.9805C209.332 51.1367 209.078 51.3555 208.875 51.6367C208.672 51.918 208.52 52.2461 208.418 52.6211C208.316 52.9883 208.266 53.3906 208.266 53.8281ZM225.445 58.1406V52.4922C225.445 52.0859 225.379 51.7383 225.246 51.4492C225.113 51.1523 224.906 50.9219 224.625 50.7578C224.352 50.5938 223.996 50.5117 223.559 50.5117C223.184 50.5117 222.859 50.5781 222.586 50.7109C222.312 50.8359 222.102 51.0195 221.953 51.2617C221.805 51.4961 221.73 51.7734 221.73 52.0938H218.355C218.355 51.5547 218.48 51.043 218.73 50.5586C218.98 50.0742 219.344 49.6484 219.82 49.2812C220.297 48.9062 220.863 48.6133 221.52 48.4023C222.184 48.1914 222.926 48.0859 223.746 48.0859C224.73 48.0859 225.605 48.25 226.371 48.5781C227.137 48.9062 227.738 49.3984 228.176 50.0547C228.621 50.7109 228.844 51.5312 228.844 52.5156V57.9414C228.844 58.6367 228.887 59.207 228.973 59.6523C229.059 60.0898 229.184 60.4727 229.348 60.8008V61H225.938C225.773 60.6562 225.648 60.2266 225.562 59.7109C225.484 59.1875 225.445 58.6641 225.445 58.1406ZM225.891 53.2773L225.914 55.1875H224.027C223.582 55.1875 223.195 55.2383 222.867 55.3398C222.539 55.4414 222.27 55.5859 222.059 55.7734C221.848 55.9531 221.691 56.1641 221.59 56.4062C221.496 56.6484 221.449 56.9141 221.449 57.2031C221.449 57.4922 221.516 57.7539 221.648 57.9883C221.781 58.2148 221.973 58.3945 222.223 58.5273C222.473 58.6523 222.766 58.7148 223.102 58.7148C223.609 58.7148 224.051 58.6133 224.426 58.4102C224.801 58.207 225.09 57.957 225.293 57.6602C225.504 57.3633 225.613 57.082 225.621 56.8164L226.512 58.2461C226.387 58.5664 226.215 58.8984 225.996 59.2422C225.785 59.5859 225.516 59.9102 225.188 60.2148C224.859 60.5117 224.465 60.7578 224.004 60.9531C223.543 61.1406 222.996 61.2344 222.363 61.2344C221.559 61.2344 220.828 61.0742 220.172 60.7539C219.523 60.4258 219.008 59.9766 218.625 59.4062C218.25 58.8281 218.062 58.1719 218.062 57.4375C218.062 56.7734 218.188 56.1836 218.438 55.668C218.688 55.1523 219.055 54.7188 219.539 54.3672C220.031 54.0078 220.645 53.7383 221.379 53.5586C222.113 53.3711 222.965 53.2773 223.934 53.2773H225.891ZM234.82 51.0859V61H231.445V48.3203H234.621L234.82 51.0859ZM238.641 48.2383L238.582 51.3672C238.418 51.3438 238.219 51.3242 237.984 51.3086C237.758 51.2852 237.551 51.2734 237.363 51.2734C236.887 51.2734 236.473 51.3359 236.121 51.4609C235.777 51.5781 235.488 51.7539 235.254 51.9883C235.027 52.2227 234.855 52.5078 234.738 52.8438C234.629 53.1797 234.566 53.5625 234.551 53.9922L233.871 53.7812C233.871 52.9609 233.953 52.207 234.117 51.5195C234.281 50.8242 234.52 50.2188 234.832 49.7031C235.152 49.1875 235.543 48.7891 236.004 48.5078C236.465 48.2266 236.992 48.0859 237.586 48.0859C237.773 48.0859 237.965 48.1016 238.16 48.1328C238.355 48.1562 238.516 48.1914 238.641 48.2383ZM247.031 48.3203V50.7109H239.648V48.3203H247.031ZM241.477 45.1914H244.852V57.1797C244.852 57.5469 244.898 57.8281 244.992 58.0234C245.094 58.2188 245.242 58.3555 245.438 58.4336C245.633 58.5039 245.879 58.5391 246.176 58.5391C246.387 58.5391 246.574 58.5312 246.738 58.5156C246.91 58.4922 247.055 58.4688 247.172 58.4453L247.184 60.9297C246.895 61.0234 246.582 61.0977 246.246 61.1523C245.91 61.207 245.539 61.2344 245.133 61.2344C244.391 61.2344 243.742 61.1133 243.188 60.8711C242.641 60.6211 242.219 60.2227 241.922 59.6758C241.625 59.1289 241.477 58.4102 241.477 57.5195V45.1914Z" fill="#888888"/>
<path d="M113.18 109.93C113.18 109.398 113.102 108.922 112.945 108.5C112.789 108.062 112.5 107.656 112.078 107.281C111.656 106.906 111.047 106.531 110.25 106.156C109.469 105.766 108.438 105.359 107.156 104.938C105.656 104.438 104.211 103.875 102.82 103.25C101.43 102.609 100.188 101.867 99.0938 101.023C98 100.164 97.1328 99.1641 96.4922 98.0234C95.8516 96.8672 95.5312 95.5234 95.5312 93.9922C95.5312 92.5234 95.8594 91.2031 96.5156 90.0312C97.1719 88.8438 98.0859 87.8359 99.2578 87.0078C100.445 86.1641 101.836 85.5234 103.43 85.0859C105.023 84.6328 106.766 84.4062 108.656 84.4062C111.156 84.4062 113.359 84.8438 115.266 85.7188C117.188 86.5781 118.688 87.8047 119.766 89.3984C120.859 90.9766 121.406 92.8438 121.406 95H113.227C113.227 94.1406 113.047 93.3828 112.688 92.7266C112.344 92.0703 111.82 91.5547 111.117 91.1797C110.414 90.8047 109.531 90.6172 108.469 90.6172C107.438 90.6172 106.57 90.7734 105.867 91.0859C105.164 91.3984 104.633 91.8203 104.273 92.3516C103.914 92.8672 103.734 93.4375 103.734 94.0625C103.734 94.5781 103.875 95.0469 104.156 95.4688C104.453 95.875 104.867 96.2578 105.398 96.6172C105.945 96.9766 106.602 97.3203 107.367 97.6484C108.148 97.9766 109.023 98.2969 109.992 98.6094C111.805 99.1875 113.414 99.8359 114.82 100.555C116.242 101.258 117.438 102.062 118.406 102.969C119.391 103.859 120.133 104.875 120.633 106.016C121.148 107.156 121.406 108.445 121.406 109.883C121.406 111.414 121.109 112.773 120.516 113.961C119.922 115.148 119.07 116.156 117.961 116.984C116.852 117.797 115.523 118.414 113.977 118.836C112.43 119.258 110.703 119.469 108.797 119.469C107.047 119.469 105.32 119.25 103.617 118.812C101.93 118.359 100.398 117.672 99.0234 116.75C97.6484 115.812 96.5469 114.617 95.7188 113.164C94.9062 111.695 94.5 109.953 94.5 107.938H102.75C102.75 108.938 102.883 109.781 103.148 110.469C103.414 111.156 103.805 111.711 104.32 112.133C104.836 112.539 105.469 112.836 106.219 113.023C106.969 113.195 107.828 113.281 108.797 113.281C109.844 113.281 110.688 113.133 111.328 112.836C111.969 112.523 112.438 112.117 112.734 111.617C113.031 111.102 113.18 110.539 113.18 109.93ZM133.055 116.023L139.617 93.6406H148.102L137.906 122.773C137.688 123.414 137.398 124.102 137.039 124.836C136.68 125.586 136.188 126.297 135.562 126.969C134.938 127.641 134.133 128.188 133.148 128.609C132.18 129.031 130.977 129.242 129.539 129.242C128.773 129.242 128.211 129.203 127.852 129.125C127.508 129.062 126.977 128.945 126.258 128.773V123.125C126.461 123.125 126.633 123.125 126.773 123.125C126.93 123.125 127.102 123.125 127.289 123.125C128.133 123.125 128.805 123.039 129.305 122.867C129.82 122.695 130.211 122.445 130.477 122.117C130.758 121.789 130.977 121.391 131.133 120.922L133.055 116.023ZM131.391 93.6406L136.383 111.383L137.25 119.75H131.953L122.93 93.6406H131.391ZM163.453 111.875C163.453 111.438 163.305 111.062 163.008 110.75C162.727 110.422 162.227 110.125 161.508 109.859C160.789 109.578 159.781 109.297 158.484 109.016C157.25 108.75 156.086 108.398 154.992 107.961C153.914 107.523 152.969 106.992 152.156 106.367C151.344 105.742 150.703 105 150.234 104.141C149.781 103.281 149.555 102.297 149.555 101.188C149.555 100.109 149.781 99.0938 150.234 98.1406C150.703 97.1719 151.383 96.3203 152.273 95.5859C153.18 94.8359 154.281 94.25 155.578 93.8281C156.875 93.3906 158.352 93.1719 160.008 93.1719C162.289 93.1719 164.258 93.5234 165.914 94.2266C167.57 94.9141 168.844 95.8828 169.734 97.1328C170.641 98.3672 171.094 99.7969 171.094 101.422H163.195C163.195 100.781 163.086 100.234 162.867 99.7812C162.664 99.3281 162.328 98.9844 161.859 98.75C161.391 98.5 160.766 98.375 159.984 98.375C159.438 98.375 158.938 98.4766 158.484 98.6797C158.047 98.8828 157.695 99.1641 157.43 99.5234C157.164 99.8828 157.031 100.305 157.031 100.789C157.031 101.133 157.109 101.445 157.266 101.727C157.438 101.992 157.695 102.242 158.039 102.477C158.383 102.695 158.82 102.898 159.352 103.086C159.883 103.258 160.523 103.414 161.273 103.555C162.977 103.867 164.57 104.312 166.055 104.891C167.539 105.469 168.742 106.289 169.664 107.352C170.602 108.414 171.07 109.844 171.07 111.641C171.07 112.766 170.812 113.805 170.297 114.758C169.781 115.695 169.039 116.523 168.07 117.242C167.102 117.945 165.938 118.492 164.578 118.883C163.219 119.273 161.688 119.469 159.984 119.469C157.562 119.469 155.516 119.039 153.844 118.18C152.172 117.305 150.906 116.211 150.047 114.898C149.203 113.57 148.781 112.227 148.781 110.867H156.141C156.172 111.648 156.359 112.289 156.703 112.789C157.062 113.289 157.539 113.656 158.133 113.891C158.727 114.125 159.414 114.242 160.195 114.242C160.914 114.242 161.508 114.141 161.977 113.938C162.461 113.734 162.828 113.461 163.078 113.117C163.328 112.758 163.453 112.344 163.453 111.875ZM188.133 93.6406V99.125H172.852V93.6406H188.133ZM176.062 87.3359H183.961V110.727C183.961 111.398 184.039 111.922 184.195 112.297C184.352 112.656 184.617 112.914 184.992 113.07C185.383 113.211 185.898 113.281 186.539 113.281C186.992 113.281 187.367 113.273 187.664 113.258C187.961 113.227 188.242 113.188 188.508 113.141V118.789C187.836 119.008 187.133 119.172 186.398 119.281C185.664 119.406 184.883 119.469 184.055 119.469C182.367 119.469 180.922 119.203 179.719 118.672C178.531 118.141 177.625 117.305 177 116.164C176.375 115.023 176.062 113.539 176.062 111.711V87.3359ZM203.555 119.469C201.492 119.469 199.648 119.148 198.023 118.508C196.398 117.852 195.023 116.953 193.898 115.812C192.789 114.672 191.938 113.359 191.344 111.875C190.766 110.391 190.477 108.82 190.477 107.164V106.273C190.477 104.414 190.734 102.695 191.25 101.117C191.766 99.5234 192.531 98.1328 193.547 96.9453C194.562 95.7578 195.836 94.8359 197.367 94.1797C198.898 93.5078 200.68 93.1719 202.711 93.1719C204.508 93.1719 206.117 93.4609 207.539 94.0391C208.961 94.6172 210.164 95.4453 211.148 96.5234C212.148 97.6016 212.906 98.9062 213.422 100.438C213.953 101.969 214.219 103.688 214.219 105.594V108.805H193.5V103.859H206.508V103.25C206.523 102.406 206.375 101.688 206.062 101.094C205.766 100.5 205.328 100.047 204.75 99.7344C204.172 99.4219 203.469 99.2656 202.641 99.2656C201.781 99.2656 201.07 99.4531 200.508 99.8281C199.961 100.203 199.531 100.719 199.219 101.375C198.922 102.016 198.711 102.758 198.586 103.602C198.461 104.445 198.398 105.336 198.398 106.273V107.164C198.398 108.102 198.523 108.953 198.773 109.719C199.039 110.484 199.414 111.141 199.898 111.688C200.398 112.219 200.992 112.633 201.68 112.93C202.383 113.227 203.18 113.375 204.07 113.375C205.148 113.375 206.211 113.172 207.258 112.766C208.305 112.359 209.203 111.688 209.953 110.75L213.539 115.016C213.023 115.75 212.289 116.461 211.336 117.148C210.398 117.836 209.273 118.398 207.961 118.836C206.648 119.258 205.18 119.469 203.555 119.469ZM225.398 99.0078V119H217.5V93.6406H224.906L225.398 99.0078ZM224.438 105.453L222.633 105.5C222.633 103.719 222.844 102.078 223.266 100.578C223.688 99.0781 224.312 97.7734 225.141 96.6641C225.969 95.5547 226.984 94.6953 228.188 94.0859C229.406 93.4766 230.812 93.1719 232.406 93.1719C233.516 93.1719 234.523 93.3438 235.43 93.6875C236.336 94.0156 237.117 94.5391 237.773 95.2578C238.43 95.9609 238.93 96.8828 239.273 98.0234C239.633 99.1484 239.812 100.5 239.812 102.078V119H231.914V103.086C231.914 102.008 231.789 101.195 231.539 100.648C231.305 100.102 230.961 99.7344 230.508 99.5469C230.055 99.3594 229.5 99.2656 228.844 99.2656C228.156 99.2656 227.539 99.4219 226.992 99.7344C226.445 100.047 225.977 100.484 225.586 101.047C225.211 101.594 224.922 102.242 224.719 102.992C224.531 103.742 224.438 104.562 224.438 105.453ZM238.922 105.453L236.719 105.5C236.719 103.719 236.914 102.078 237.305 100.578C237.711 99.0781 238.312 97.7734 239.109 96.6641C239.922 95.5547 240.93 94.6953 242.133 94.0859C243.336 93.4766 244.734 93.1719 246.328 93.1719C247.484 93.1719 248.547 93.3438 249.516 93.6875C250.484 94.0312 251.32 94.5859 252.023 95.3516C252.727 96.1172 253.273 97.1328 253.664 98.3984C254.055 99.6484 254.25 101.195 254.25 103.039V119H246.328V103.039C246.328 101.992 246.203 101.203 245.953 100.672C245.719 100.125 245.375 99.7578 244.922 99.5703C244.469 99.3672 243.93 99.2656 243.305 99.2656C242.555 99.2656 241.906 99.4219 241.359 99.7344C240.812 100.047 240.352 100.484 239.977 101.047C239.617 101.594 239.352 102.242 239.18 102.992C239.008 103.742 238.922 104.562 238.922 105.453ZM282.188 119H274.617L274.664 112.672H282.188C283.75 112.672 285.07 112.297 286.148 111.547C287.242 110.797 288.07 109.68 288.633 108.195C289.211 106.695 289.5 104.852 289.5 102.664V101.188C289.5 99.5469 289.336 98.1094 289.008 96.875C288.695 95.625 288.227 94.5859 287.602 93.7578C286.977 92.9141 286.195 92.2812 285.258 91.8594C284.336 91.4375 283.273 91.2266 282.07 91.2266H274.477V84.875H282.07C284.383 84.875 286.5 85.2734 288.422 86.0703C290.359 86.8516 292.031 87.9766 293.438 89.4453C294.859 90.8984 295.953 92.625 296.719 94.625C297.5 96.6094 297.891 98.8125 297.891 101.234V102.664C297.891 105.07 297.5 107.273 296.719 109.273C295.953 111.273 294.867 113 293.461 114.453C292.055 115.906 290.391 117.031 288.469 117.828C286.562 118.609 284.469 119 282.188 119ZM279.328 84.875V119H271.102V84.875H279.328ZM314.086 119.469C312.023 119.469 310.18 119.148 308.555 118.508C306.93 117.852 305.555 116.953 304.43 115.812C303.32 114.672 302.469 113.359 301.875 111.875C301.297 110.391 301.008 108.82 301.008 107.164V106.273C301.008 104.414 301.266 102.695 301.781 101.117C302.297 99.5234 303.062 98.1328 304.078 96.9453C305.094 95.7578 306.367 94.8359 307.898 94.1797C309.43 93.5078 311.211 93.1719 313.242 93.1719C315.039 93.1719 316.648 93.4609 318.07 94.0391C319.492 94.6172 320.695 95.4453 321.68 96.5234C322.68 97.6016 323.438 98.9062 323.953 100.438C324.484 101.969 324.75 103.688 324.75 105.594V108.805H304.031V103.859H317.039V103.25C317.055 102.406 316.906 101.688 316.594 101.094C316.297 100.5 315.859 100.047 315.281 99.7344C314.703 99.4219 314 99.2656 313.172 99.2656C312.312 99.2656 311.602 99.4531 311.039 99.8281C310.492 100.203 310.062 100.719 309.75 101.375C309.453 102.016 309.242 102.758 309.117 103.602C308.992 104.445 308.93 105.336 308.93 106.273V107.164C308.93 108.102 309.055 108.953 309.305 109.719C309.57 110.484 309.945 111.141 310.43 111.688C310.93 112.219 311.523 112.633 312.211 112.93C312.914 113.227 313.711 113.375 314.602 113.375C315.68 113.375 316.742 113.172 317.789 112.766C318.836 112.359 319.734 111.688 320.484 110.75L324.07 115.016C323.555 115.75 322.82 116.461 321.867 117.148C320.93 117.836 319.805 118.398 318.492 118.836C317.18 119.258 315.711 119.469 314.086 119.469ZM341.25 111.875C341.25 111.438 341.102 111.062 340.805 110.75C340.523 110.422 340.023 110.125 339.305 109.859C338.586 109.578 337.578 109.297 336.281 109.016C335.047 108.75 333.883 108.398 332.789 107.961C331.711 107.523 330.766 106.992 329.953 106.367C329.141 105.742 328.5 105 328.031 104.141C327.578 103.281 327.352 102.297 327.352 101.188C327.352 100.109 327.578 99.0938 328.031 98.1406C328.5 97.1719 329.18 96.3203 330.07 95.5859C330.977 94.8359 332.078 94.25 333.375 93.8281C334.672 93.3906 336.148 93.1719 337.805 93.1719C340.086 93.1719 342.055 93.5234 343.711 94.2266C345.367 94.9141 346.641 95.8828 347.531 97.1328C348.438 98.3672 348.891 99.7969 348.891 101.422H340.992C340.992 100.781 340.883 100.234 340.664 99.7812C340.461 99.3281 340.125 98.9844 339.656 98.75C339.188 98.5 338.562 98.375 337.781 98.375C337.234 98.375 336.734 98.4766 336.281 98.6797C335.844 98.8828 335.492 99.1641 335.227 99.5234C334.961 99.8828 334.828 100.305 334.828 100.789C334.828 101.133 334.906 101.445 335.062 101.727C335.234 101.992 335.492 102.242 335.836 102.477C336.18 102.695 336.617 102.898 337.148 103.086C337.68 103.258 338.32 103.414 339.07 103.555C340.773 103.867 342.367 104.312 343.852 104.891C345.336 105.469 346.539 106.289 347.461 107.352C348.398 108.414 348.867 109.844 348.867 111.641C348.867 112.766 348.609 113.805 348.094 114.758C347.578 115.695 346.836 116.523 345.867 117.242C344.898 117.945 343.734 118.492 342.375 118.883C341.016 119.273 339.484 119.469 337.781 119.469C335.359 119.469 333.312 119.039 331.641 118.18C329.969 117.305 328.703 116.211 327.844 114.898C327 113.57 326.578 112.227 326.578 110.867H333.938C333.969 111.648 334.156 112.289 334.5 112.789C334.859 113.289 335.336 113.656 335.93 113.891C336.523 114.125 337.211 114.242 337.992 114.242C338.711 114.242 339.305 114.141 339.773 113.938C340.258 113.734 340.625 113.461 340.875 113.117C341.125 112.758 341.25 112.344 341.25 111.875ZM360.914 93.6406V119H352.992V93.6406H360.914ZM352.523 87.1016C352.523 85.9766 352.93 85.0547 353.742 84.3359C354.555 83.6172 355.609 83.2578 356.906 83.2578C358.203 83.2578 359.258 83.6172 360.07 84.3359C360.883 85.0547 361.289 85.9766 361.289 87.1016C361.289 88.2266 360.883 89.1484 360.07 89.8672C359.258 90.5859 358.203 90.9453 356.906 90.9453C355.609 90.9453 354.555 90.5859 353.742 89.8672C352.93 89.1484 352.523 88.2266 352.523 87.1016ZM381.727 93.6406H388.898V118.016C388.898 120.359 388.359 122.344 387.281 123.969C386.203 125.609 384.695 126.852 382.758 127.695C380.836 128.555 378.586 128.984 376.008 128.984C374.867 128.984 373.703 128.836 372.516 128.539C371.328 128.258 370.219 127.836 369.188 127.273C368.156 126.711 367.289 126.016 366.586 125.188L369.891 120.547C370.531 121.266 371.336 121.875 372.305 122.375C373.273 122.891 374.414 123.148 375.727 123.148C376.867 123.148 377.82 122.945 378.586 122.539C379.367 122.133 379.961 121.539 380.367 120.758C380.773 119.992 380.977 119.062 380.977 117.969V99.6406L381.727 93.6406ZM364.875 106.625V106.133C364.875 104.211 365.109 102.461 365.578 100.883C366.062 99.2891 366.75 97.9219 367.641 96.7812C368.547 95.625 369.641 94.7344 370.922 94.1094C372.203 93.4844 373.648 93.1719 375.258 93.1719C376.992 93.1719 378.414 93.5078 379.523 94.1797C380.648 94.8359 381.547 95.7578 382.219 96.9453C382.906 98.1328 383.438 99.5234 383.812 101.117C384.203 102.695 384.531 104.398 384.797 106.227V106.812C384.531 108.531 384.164 110.156 383.695 111.688C383.242 113.203 382.648 114.547 381.914 115.719C381.18 116.891 380.258 117.812 379.148 118.484C378.055 119.141 376.742 119.469 375.211 119.469C373.617 119.469 372.18 119.148 370.898 118.508C369.633 117.867 368.547 116.969 367.641 115.812C366.75 114.656 366.062 113.297 365.578 111.734C365.109 110.172 364.875 108.469 364.875 106.625ZM372.773 106.133V106.625C372.773 107.578 372.859 108.461 373.031 109.273C373.219 110.086 373.5 110.805 373.875 111.43C374.25 112.039 374.711 112.516 375.258 112.859C375.82 113.203 376.477 113.375 377.227 113.375C378.367 113.375 379.289 113.133 379.992 112.648C380.695 112.164 381.203 111.477 381.516 110.586C381.828 109.695 381.961 108.648 381.914 107.445V105.594C381.945 104.562 381.875 103.656 381.703 102.875C381.531 102.078 381.258 101.414 380.883 100.883C380.523 100.352 380.039 99.9531 379.43 99.6875C378.836 99.4062 378.117 99.2656 377.273 99.2656C376.539 99.2656 375.891 99.4375 375.328 99.7812C374.766 100.125 374.297 100.609 373.922 101.234C373.547 101.844 373.258 102.57 373.055 103.414C372.867 104.242 372.773 105.148 372.773 106.133ZM401.203 99.0547V119H393.305V93.6406H400.711L401.203 99.0547ZM400.266 105.453L398.414 105.5C398.414 103.562 398.648 101.836 399.117 100.32C399.586 98.7891 400.25 97.4922 401.109 96.4297C401.969 95.3672 402.992 94.5625 404.18 94.0156C405.383 93.4531 406.719 93.1719 408.188 93.1719C409.359 93.1719 410.43 93.3438 411.398 93.6875C412.383 94.0312 413.227 94.5859 413.93 95.3516C414.648 96.1172 415.195 97.1328 415.57 98.3984C415.961 99.6484 416.156 101.195 416.156 103.039V119H408.211V103.016C408.211 102 408.07 101.227 407.789 100.695C407.508 100.148 407.102 99.7734 406.57 99.5703C406.039 99.3672 405.391 99.2656 404.625 99.2656C403.812 99.2656 403.125 99.4219 402.562 99.7344C402 100.047 401.547 100.484 401.203 101.047C400.875 101.594 400.633 102.242 400.477 102.992C400.336 103.742 400.266 104.562 400.266 105.453Z" fill="black"/>
<path d="M1134 0H1348C1356.28 0 1363 6.71573 1363 15V148C1363 156.284 1356.28 163 1348 163H1134V0Z" fill="#052B47"/>
<path d="M1248.5 51.6667C1257.07 51.6667 1264.74 52.9907 1270.29 55.1784C1273.06 56.2717 1275.33 57.5902 1276.91 59.0895C1278.49 60.591 1279.42 62.3052 1279.42 64.1667C1279.42 66.0281 1278.49 67.7423 1276.91 69.2438C1275.33 70.7432 1273.06 72.0616 1270.29 73.1549C1264.74 75.3426 1257.07 76.6666 1248.5 76.6667C1239.93 76.6667 1232.26 75.3427 1226.71 73.1549C1223.94 72.0616 1221.67 70.7432 1220.09 69.2438C1218.51 67.7423 1217.58 66.0281 1217.58 64.1667C1217.58 62.3052 1218.51 60.591 1220.09 59.0895C1221.67 57.5901 1223.94 56.2717 1226.71 55.1784C1232.26 52.9906 1239.93 51.6667 1248.5 51.6667ZM1248.5 55.3337C1242.07 55.3337 1235.28 56.2867 1230.11 57.9147C1227.52 58.7295 1225.37 59.7039 1223.88 60.7917C1222.37 61.8873 1221.63 63.0283 1221.63 64.1667C1221.63 65.305 1222.37 66.446 1223.88 67.5417C1225.37 68.6295 1227.52 69.6039 1230.11 70.4186C1235.28 72.0466 1242.07 72.9997 1248.5 72.9997C1254.93 72.9996 1261.72 72.0466 1266.89 70.4186C1269.48 69.6038 1271.63 68.6296 1273.12 67.5417C1274.63 66.446 1275.38 65.305 1275.38 64.1667C1275.38 63.0283 1274.63 61.8873 1273.12 60.7917C1271.63 59.7037 1269.48 58.7296 1266.89 57.9147C1261.72 56.2868 1254.93 55.3337 1248.5 55.3337Z" fill="white" stroke="white"/>
<path d="M1277.4 62.3333C1277.91 62.3333 1278.42 62.5126 1278.8 62.848C1279.19 63.1851 1279.42 63.6575 1279.42 64.1663V74.8333C1279.42 76.6948 1278.49 78.409 1276.91 79.9105C1275.33 81.4099 1273.06 82.7283 1270.29 83.8216C1264.74 86.0093 1257.07 87.3333 1248.5 87.3333C1239.93 87.3333 1232.26 86.0094 1226.71 83.8216C1223.94 82.7283 1221.67 81.4099 1220.09 79.9105C1218.51 78.409 1217.58 76.6948 1217.58 74.8333V64.1663C1217.58 63.6574 1217.81 63.1851 1218.2 62.848C1218.58 62.5128 1219.09 62.3334 1219.6 62.3333C1220.12 62.3333 1220.63 62.5126 1221.01 62.848C1221.39 63.1851 1221.63 63.6574 1221.63 64.1663V74.8333C1221.63 75.9717 1222.37 77.1127 1223.88 78.2083C1225.37 79.2961 1227.52 80.2705 1230.11 81.0853C1235.28 82.7133 1242.07 83.6663 1248.5 83.6663C1254.93 83.6663 1261.72 82.7132 1266.89 81.0853C1269.48 80.2704 1271.63 79.2963 1273.12 78.2083C1274.63 77.1127 1275.38 75.9717 1275.38 74.8333V64.1663C1275.38 63.6575 1275.61 63.1851 1275.99 62.848C1276.37 62.5126 1276.88 62.3333 1277.4 62.3333Z" fill="white" stroke="white"/>
<path d="M1277.4 73C1277.91 73 1278.42 73.1793 1278.8 73.5146C1279.19 73.8518 1279.42 74.3242 1279.42 74.833V86.833C1279.42 88.6945 1278.49 90.4086 1276.91 91.9102C1275.33 93.4096 1273.06 94.7289 1270.29 95.8223C1264.74 98.0099 1257.07 99.333 1248.5 99.333C1239.93 99.333 1232.26 98.01 1226.71 95.8223C1223.94 94.7289 1221.67 93.4096 1220.09 91.9102C1218.51 90.4087 1217.58 88.6944 1217.58 86.833V74.833L1217.59 74.6445C1217.64 74.2084 1217.86 73.8097 1218.2 73.5146C1218.58 73.1795 1219.09 73.0001 1219.6 73C1220.12 73 1220.63 73.1793 1221.01 73.5146C1221.39 73.8518 1221.63 74.3241 1221.63 74.833V86.833C1221.63 87.9713 1222.37 89.1123 1223.88 90.208C1225.37 91.2959 1227.52 92.2711 1230.11 93.0859C1235.28 94.7139 1242.07 95.667 1248.5 95.667C1254.93 95.667 1261.72 94.7139 1266.89 93.0859C1269.48 92.2711 1271.63 91.296 1273.12 90.208C1274.63 89.1124 1275.38 87.9713 1275.38 86.833V74.833C1275.38 74.3242 1275.61 73.8518 1275.99 73.5146C1276.37 73.1793 1276.88 73 1277.4 73Z" fill="white" stroke="white"/>
<path d="M1277.4 85C1277.91 85 1278.42 85.1793 1278.8 85.5146C1279.19 85.8518 1279.42 86.3242 1279.42 86.833V98.833C1279.42 100.694 1278.49 102.409 1276.91 103.91C1275.33 105.41 1273.06 106.729 1270.29 107.822C1264.74 110.01 1257.07 111.333 1248.5 111.333C1239.93 111.333 1232.26 110.01 1226.71 107.822C1223.94 106.729 1221.67 105.41 1220.09 103.91C1218.51 102.409 1217.58 100.694 1217.58 98.833V86.833L1217.59 86.6445C1217.64 86.2084 1217.86 85.8097 1218.2 85.5146C1218.58 85.1795 1219.09 85.0001 1219.6 85C1220.12 85 1220.63 85.1793 1221.01 85.5146C1221.39 85.8518 1221.63 86.3241 1221.63 86.833V98.833C1221.63 99.9713 1222.37 101.112 1223.88 102.208C1225.37 103.296 1227.52 104.271 1230.11 105.086C1235.28 106.714 1242.07 107.667 1248.5 107.667C1254.93 107.667 1261.72 106.714 1266.89 105.086C1269.48 104.271 1271.63 103.296 1273.12 102.208C1274.63 101.112 1275.38 99.9713 1275.38 98.833V86.833C1275.38 86.3242 1275.61 85.8518 1275.99 85.5146C1276.37 85.1793 1276.88 85 1277.4 85Z" fill="white" stroke="white"/>
</svg>
