<svg width="1363" height="163" viewBox="0 0 1363 163" fill="none" xmlns="http://www.w3.org/2000/svg">
<path d="M0 15C0 6.71573 6.71573 0 15 0H37V163H15C6.71573 163 0 156.284 0 148V15Z" fill="#424242"/>
<rect width="1097" height="163" transform="translate(37)" fill="#F0F0F0"/>
<path d="M101.906 53.9219L94.3945 51.2383V48.0859L104.602 52.375V54.6367L101.906 53.9219ZM94.3945 56.1719L101.918 53.4297L104.602 52.7852V55.0352L94.3945 59.3242V56.1719ZM122.789 55.3398H126.293C126.223 56.4883 125.906 57.5078 125.344 58.3984C124.789 59.2891 124.012 59.9844 123.012 60.4844C122.02 60.9844 120.824 61.2344 119.426 61.2344C118.332 61.2344 117.352 61.0469 116.484 60.6719C115.617 60.2891 114.875 59.7422 114.258 59.0312C113.648 58.3203 113.184 57.4609 112.863 56.4531C112.543 55.4453 112.383 54.3164 112.383 53.0664V51.8828C112.383 50.6328 112.547 49.5039 112.875 48.4961C113.211 47.4805 113.688 46.6172 114.305 45.9062C114.93 45.1953 115.676 44.6484 116.543 44.2656C117.41 43.8828 118.379 43.6914 119.449 43.6914C120.871 43.6914 122.07 43.9492 123.047 44.4648C124.031 44.9805 124.793 45.6914 125.332 46.5977C125.879 47.5039 126.207 48.5352 126.316 49.6914H122.801C122.762 49.0039 122.625 48.4219 122.391 47.9453C122.156 47.4609 121.801 47.0977 121.324 46.8555C120.855 46.6055 120.23 46.4805 119.449 46.4805C118.863 46.4805 118.352 46.5898 117.914 46.8086C117.477 47.0273 117.109 47.3594 116.812 47.8047C116.516 48.25 116.293 48.8125 116.145 49.4922C116.004 50.1641 115.934 50.9531 115.934 51.8594V53.0664C115.934 53.9492 116 54.7266 116.133 55.3984C116.266 56.0625 116.469 56.625 116.742 57.0859C117.023 57.5391 117.383 57.8828 117.82 58.1172C118.266 58.3438 118.801 58.457 119.426 58.457C120.16 58.457 120.766 58.3398 121.242 58.1055C121.719 57.8711 122.082 57.5234 122.332 57.0625C122.59 56.6016 122.742 56.0273 122.789 55.3398ZM135.234 58.1406V52.4922C135.234 52.0859 135.168 51.7383 135.035 51.4492C134.902 51.1523 134.695 50.9219 134.414 50.7578C134.141 50.5938 133.785 50.5117 133.348 50.5117C132.973 50.5117 132.648 50.5781 132.375 50.7109C132.102 50.8359 131.891 51.0195 131.742 51.2617C131.594 51.4961 131.52 51.7734 131.52 52.0938H128.145C128.145 51.5547 128.27 51.043 128.52 50.5586C128.77 50.0742 129.133 49.6484 129.609 49.2812C130.086 48.9062 130.652 48.6133 131.309 48.4023C131.973 48.1914 132.715 48.0859 133.535 48.0859C134.52 48.0859 135.395 48.25 136.16 48.5781C136.926 48.9062 137.527 49.3984 137.965 50.0547C138.41 50.7109 138.633 51.5312 138.633 52.5156V57.9414C138.633 58.6367 138.676 59.207 138.762 59.6523C138.848 60.0898 138.973 60.4727 139.137 60.8008V61H135.727C135.562 60.6562 135.438 60.2266 135.352 59.7109C135.273 59.1875 135.234 58.6641 135.234 58.1406ZM135.68 53.2773L135.703 55.1875H133.816C133.371 55.1875 132.984 55.2383 132.656 55.3398C132.328 55.4414 132.059 55.5859 131.848 55.7734C131.637 55.9531 131.48 56.1641 131.379 56.4062C131.285 56.6484 131.238 56.9141 131.238 57.2031C131.238 57.4922 131.305 57.7539 131.438 57.9883C131.57 58.2148 131.762 58.3945 132.012 58.5273C132.262 58.6523 132.555 58.7148 132.891 58.7148C133.398 58.7148 133.84 58.6133 134.215 58.4102C134.59 58.207 134.879 57.957 135.082 57.6602C135.293 57.3633 135.402 57.082 135.41 56.8164L136.301 58.2461C136.176 58.5664 136.004 58.8984 135.785 59.2422C135.574 59.5859 135.305 59.9102 134.977 60.2148C134.648 60.5117 134.254 60.7578 133.793 60.9531C133.332 61.1406 132.785 61.2344 132.152 61.2344C131.348 61.2344 130.617 61.0742 129.961 60.7539C129.312 60.4258 128.797 59.9766 128.414 59.4062C128.039 58.8281 127.852 58.1719 127.852 57.4375C127.852 56.7734 127.977 56.1836 128.227 55.668C128.477 55.1523 128.844 54.7188 129.328 54.3672C129.82 54.0078 130.434 53.7383 131.168 53.5586C131.902 53.3711 132.754 53.2773 133.723 53.2773H135.68ZM144.609 51.0859V61H141.234V48.3203H144.41L144.609 51.0859ZM148.43 48.2383L148.371 51.3672C148.207 51.3438 148.008 51.3242 147.773 51.3086C147.547 51.2852 147.34 51.2734 147.152 51.2734C146.676 51.2734 146.262 51.3359 145.91 51.4609C145.566 51.5781 145.277 51.7539 145.043 51.9883C144.816 52.2227 144.645 52.5078 144.527 52.8438C144.418 53.1797 144.355 53.5625 144.34 53.9922L143.66 53.7812C143.66 52.9609 143.742 52.207 143.906 51.5195C144.07 50.8242 144.309 50.2188 144.621 49.7031C144.941 49.1875 145.332 48.7891 145.793 48.5078C146.254 48.2266 146.781 48.0859 147.375 48.0859C147.562 48.0859 147.754 48.1016 147.949 48.1328C148.145 48.1562 148.305 48.1914 148.43 48.2383ZM157.816 48.3203H160.875V60.5781C160.875 61.7344 160.617 62.7148 160.102 63.5195C159.594 64.332 158.883 64.9453 157.969 65.3594C157.055 65.7812 155.992 65.9922 154.781 65.9922C154.25 65.9922 153.688 65.9219 153.094 65.7812C152.508 65.6406 151.945 65.4219 151.406 65.125C150.875 64.8281 150.43 64.4531 150.07 64L151.559 62.0078C151.949 62.4609 152.402 62.8125 152.918 63.0625C153.434 63.3203 154.004 63.4492 154.629 63.4492C155.238 63.4492 155.754 63.3359 156.176 63.1094C156.598 62.8906 156.922 62.5664 157.148 62.1367C157.375 61.7148 157.488 61.2031 157.488 60.6016V51.25L157.816 48.3203ZM149.285 54.8125V54.5664C149.285 53.5977 149.402 52.7188 149.637 51.9297C149.879 51.1328 150.219 50.4492 150.656 49.8789C151.102 49.3086 151.641 48.8672 152.273 48.5547C152.906 48.2422 153.621 48.0859 154.418 48.0859C155.262 48.0859 155.969 48.2422 156.539 48.5547C157.109 48.8672 157.578 49.3125 157.945 49.8906C158.312 50.4609 158.598 51.1367 158.801 51.918C159.012 52.6914 159.176 53.5391 159.293 54.4609V55C159.176 55.8828 159 56.7031 158.766 57.4609C158.531 58.2188 158.223 58.8828 157.84 59.4531C157.457 60.0156 156.98 60.4531 156.41 60.7656C155.848 61.0781 155.176 61.2344 154.395 61.2344C153.613 61.2344 152.906 61.0742 152.273 60.7539C151.648 60.4336 151.113 59.9844 150.668 59.4062C150.223 58.8281 149.879 58.1484 149.637 57.3672C149.402 56.5859 149.285 55.7344 149.285 54.8125ZM152.66 54.5664V54.8125C152.66 55.3359 152.711 55.8242 152.812 56.2773C152.914 56.7305 153.07 57.1328 153.281 57.4844C153.5 57.8281 153.77 58.0977 154.09 58.293C154.418 58.4805 154.805 58.5742 155.25 58.5742C155.867 58.5742 156.371 58.4453 156.762 58.1875C157.152 57.9219 157.445 57.5586 157.641 57.0977C157.836 56.6367 157.949 56.1055 157.98 55.5039V53.9688C157.965 53.4766 157.898 53.0352 157.781 52.6445C157.664 52.2461 157.5 51.9062 157.289 51.625C157.078 51.3438 156.805 51.125 156.469 50.9688C156.133 50.8125 155.734 50.7344 155.273 50.7344C154.828 50.7344 154.441 50.8359 154.113 51.0391C153.793 51.2344 153.523 51.5039 153.305 51.8477C153.094 52.1914 152.934 52.5977 152.824 53.0664C152.715 53.5273 152.66 54.0273 152.66 54.5664ZM162.961 54.7891V54.543C162.961 53.6133 163.094 52.7578 163.359 51.9766C163.625 51.1875 164.012 50.5039 164.52 49.9258C165.027 49.3477 165.652 48.8984 166.395 48.5781C167.137 48.25 167.988 48.0859 168.949 48.0859C169.91 48.0859 170.766 48.25 171.516 48.5781C172.266 48.8984 172.895 49.3477 173.402 49.9258C173.918 50.5039 174.309 51.1875 174.574 51.9766C174.84 52.7578 174.973 53.6133 174.973 54.543V54.7891C174.973 55.7109 174.84 56.5664 174.574 57.3555C174.309 58.1367 173.918 58.8203 173.402 59.4062C172.895 59.9844 172.27 60.4336 171.527 60.7539C170.785 61.0742 169.934 61.2344 168.973 61.2344C168.012 61.2344 167.156 61.0742 166.406 60.7539C165.664 60.4336 165.035 59.9844 164.52 59.4062C164.012 58.8203 163.625 58.1367 163.359 57.3555C163.094 56.5664 162.961 55.7109 162.961 54.7891ZM166.336 54.543V54.7891C166.336 55.3203 166.383 55.8164 166.477 56.2773C166.57 56.7383 166.719 57.1445 166.922 57.4961C167.133 57.8398 167.406 58.1094 167.742 58.3047C168.078 58.5 168.488 58.5977 168.973 58.5977C169.441 58.5977 169.844 58.5 170.18 58.3047C170.516 58.1094 170.785 57.8398 170.988 57.4961C171.191 57.1445 171.34 56.7383 171.434 56.2773C171.535 55.8164 171.586 55.3203 171.586 54.7891V54.543C171.586 54.0273 171.535 53.543 171.434 53.0898C171.34 52.6289 171.188 52.2227 170.977 51.8711C170.773 51.5117 170.504 51.2305 170.168 51.0273C169.832 50.8242 169.426 50.7227 168.949 50.7227C168.473 50.7227 168.066 50.8242 167.73 51.0273C167.402 51.2305 167.133 51.5117 166.922 51.8711C166.719 52.2227 166.57 52.6289 166.477 53.0898C166.383 53.543 166.336 54.0273 166.336 54.543ZM192.117 56.5352C192.117 56.2305 192.07 55.957 191.977 55.7148C191.891 55.4648 191.727 55.2383 191.484 55.0352C191.242 54.8242 190.902 54.6172 190.465 54.4141C190.027 54.2109 189.461 54 188.766 53.7812C187.992 53.5312 187.258 53.25 186.562 52.9375C185.875 52.625 185.266 52.2617 184.734 51.8477C184.211 51.4258 183.797 50.9375 183.492 50.3828C183.195 49.8281 183.047 49.1836 183.047 48.4492C183.047 47.7383 183.203 47.0938 183.516 46.5156C183.828 45.9297 184.266 45.4297 184.828 45.0156C185.391 44.5938 186.055 44.2695 186.82 44.043C187.594 43.8164 188.441 43.7031 189.363 43.7031C190.621 43.7031 191.719 43.9297 192.656 44.3828C193.594 44.8359 194.32 45.457 194.836 46.2461C195.359 47.0352 195.621 47.9375 195.621 48.9531H192.129C192.129 48.4531 192.023 48.0156 191.812 47.6406C191.609 47.2578 191.297 46.957 190.875 46.7383C190.461 46.5195 189.938 46.4102 189.305 46.4102C188.695 46.4102 188.188 46.5039 187.781 46.6914C187.375 46.8711 187.07 47.1172 186.867 47.4297C186.664 47.7344 186.562 48.0781 186.562 48.4609C186.562 48.75 186.633 49.0117 186.773 49.2461C186.922 49.4805 187.141 49.6992 187.43 49.9023C187.719 50.1055 188.074 50.2969 188.496 50.4766C188.918 50.6562 189.406 50.832 189.961 51.0039C190.891 51.2852 191.707 51.6016 192.41 51.9531C193.121 52.3047 193.715 52.6992 194.191 53.1367C194.668 53.5742 195.027 54.0703 195.27 54.625C195.512 55.1797 195.633 55.8086 195.633 56.5117C195.633 57.2539 195.488 57.918 195.199 58.5039C194.91 59.0898 194.492 59.5859 193.945 59.9922C193.398 60.3984 192.746 60.707 191.988 60.918C191.23 61.1289 190.383 61.2344 189.445 61.2344C188.602 61.2344 187.77 61.125 186.949 60.9062C186.129 60.6797 185.383 60.3398 184.711 59.8867C184.047 59.4336 183.516 58.8555 183.117 58.1523C182.719 57.4492 182.52 56.6172 182.52 55.6562H186.047C186.047 56.1875 186.129 56.6367 186.293 57.0039C186.457 57.3711 186.688 57.668 186.984 57.8945C187.289 58.1211 187.648 58.2852 188.062 58.3867C188.484 58.4883 188.945 58.5391 189.445 58.5391C190.055 58.5391 190.555 58.4531 190.945 58.2812C191.344 58.1094 191.637 57.8711 191.824 57.5664C192.02 57.2617 192.117 56.918 192.117 56.5352ZM201.188 50.9453V61H197.801V48.3203H200.977L201.188 50.9453ZM200.719 54.2148H199.781C199.781 53.332 199.887 52.5195 200.098 51.7773C200.316 51.0273 200.633 50.3789 201.047 49.832C201.469 49.2773 201.988 48.8477 202.605 48.543C203.223 48.2383 203.938 48.0859 204.75 48.0859C205.312 48.0859 205.828 48.1719 206.297 48.3438C206.766 48.5078 207.168 48.7695 207.504 49.1289C207.848 49.4805 208.113 49.9414 208.301 50.5117C208.488 51.0742 208.582 51.75 208.582 52.5391V61H205.207V52.9141C205.207 52.3359 205.129 51.8906 204.973 51.5781C204.816 51.2656 204.594 51.0469 204.305 50.9219C204.023 50.7969 203.684 50.7344 203.285 50.7344C202.848 50.7344 202.465 50.8242 202.137 51.0039C201.816 51.1836 201.551 51.4336 201.34 51.7539C201.129 52.0664 200.973 52.4336 200.871 52.8555C200.77 53.2773 200.719 53.7305 200.719 54.2148ZM208.266 53.8281L207.059 53.9805C207.059 53.1523 207.16 52.3828 207.363 51.6719C207.574 50.9609 207.883 50.3359 208.289 49.7969C208.703 49.2578 209.215 48.8398 209.824 48.543C210.434 48.2383 211.137 48.0859 211.934 48.0859C212.543 48.0859 213.098 48.1758 213.598 48.3555C214.098 48.5273 214.523 48.8047 214.875 49.1875C215.234 49.5625 215.508 50.0547 215.695 50.6641C215.891 51.2734 215.988 52.0195 215.988 52.9023V61H212.602V52.9023C212.602 52.3164 212.523 51.8711 212.367 51.5664C212.219 51.2539 212 51.0391 211.711 50.9219C211.43 50.7969 211.094 50.7344 210.703 50.7344C210.297 50.7344 209.941 50.8164 209.637 50.9805C209.332 51.1367 209.078 51.3555 208.875 51.6367C208.672 51.918 208.52 52.2461 208.418 52.6211C208.316 52.9883 208.266 53.3906 208.266 53.8281ZM225.445 58.1406V52.4922C225.445 52.0859 225.379 51.7383 225.246 51.4492C225.113 51.1523 224.906 50.9219 224.625 50.7578C224.352 50.5938 223.996 50.5117 223.559 50.5117C223.184 50.5117 222.859 50.5781 222.586 50.7109C222.312 50.8359 222.102 51.0195 221.953 51.2617C221.805 51.4961 221.73 51.7734 221.73 52.0938H218.355C218.355 51.5547 218.48 51.043 218.73 50.5586C218.98 50.0742 219.344 49.6484 219.82 49.2812C220.297 48.9062 220.863 48.6133 221.52 48.4023C222.184 48.1914 222.926 48.0859 223.746 48.0859C224.73 48.0859 225.605 48.25 226.371 48.5781C227.137 48.9062 227.738 49.3984 228.176 50.0547C228.621 50.7109 228.844 51.5312 228.844 52.5156V57.9414C228.844 58.6367 228.887 59.207 228.973 59.6523C229.059 60.0898 229.184 60.4727 229.348 60.8008V61H225.938C225.773 60.6562 225.648 60.2266 225.562 59.7109C225.484 59.1875 225.445 58.6641 225.445 58.1406ZM225.891 53.2773L225.914 55.1875H224.027C223.582 55.1875 223.195 55.2383 222.867 55.3398C222.539 55.4414 222.27 55.5859 222.059 55.7734C221.848 55.9531 221.691 56.1641 221.59 56.4062C221.496 56.6484 221.449 56.9141 221.449 57.2031C221.449 57.4922 221.516 57.7539 221.648 57.9883C221.781 58.2148 221.973 58.3945 222.223 58.5273C222.473 58.6523 222.766 58.7148 223.102 58.7148C223.609 58.7148 224.051 58.6133 224.426 58.4102C224.801 58.207 225.09 57.957 225.293 57.6602C225.504 57.3633 225.613 57.082 225.621 56.8164L226.512 58.2461C226.387 58.5664 226.215 58.8984 225.996 59.2422C225.785 59.5859 225.516 59.9102 225.188 60.2148C224.859 60.5117 224.465 60.7578 224.004 60.9531C223.543 61.1406 222.996 61.2344 222.363 61.2344C221.559 61.2344 220.828 61.0742 220.172 60.7539C219.523 60.4258 219.008 59.9766 218.625 59.4062C218.25 58.8281 218.062 58.1719 218.062 57.4375C218.062 56.7734 218.188 56.1836 218.438 55.668C218.688 55.1523 219.055 54.7188 219.539 54.3672C220.031 54.0078 220.645 53.7383 221.379 53.5586C222.113 53.3711 222.965 53.2773 223.934 53.2773H225.891ZM234.82 51.0859V61H231.445V48.3203H234.621L234.82 51.0859ZM238.641 48.2383L238.582 51.3672C238.418 51.3438 238.219 51.3242 237.984 51.3086C237.758 51.2852 237.551 51.2734 237.363 51.2734C236.887 51.2734 236.473 51.3359 236.121 51.4609C235.777 51.5781 235.488 51.7539 235.254 51.9883C235.027 52.2227 234.855 52.5078 234.738 52.8438C234.629 53.1797 234.566 53.5625 234.551 53.9922L233.871 53.7812C233.871 52.9609 233.953 52.207 234.117 51.5195C234.281 50.8242 234.52 50.2188 234.832 49.7031C235.152 49.1875 235.543 48.7891 236.004 48.5078C236.465 48.2266 236.992 48.0859 237.586 48.0859C237.773 48.0859 237.965 48.1016 238.16 48.1328C238.355 48.1562 238.516 48.1914 238.641 48.2383ZM247.031 48.3203V50.7109H239.648V48.3203H247.031ZM241.477 45.1914H244.852V57.1797C244.852 57.5469 244.898 57.8281 244.992 58.0234C245.094 58.2188 245.242 58.3555 245.438 58.4336C245.633 58.5039 245.879 58.5391 246.176 58.5391C246.387 58.5391 246.574 58.5312 246.738 58.5156C246.91 58.4922 247.055 58.4688 247.172 58.4453L247.184 60.9297C246.895 61.0234 246.582 61.0977 246.246 61.1523C245.91 61.207 245.539 61.2344 245.133 61.2344C244.391 61.2344 243.742 61.1133 243.188 60.8711C242.641 60.6211 242.219 60.2227 241.922 59.6758C241.625 59.1289 241.477 58.4102 241.477 57.5195V45.1914Z" fill="#888888"/>
<path d="M106.688 119H99.1172L99.1641 112.672H106.688C108.25 112.672 109.57 112.297 110.648 111.547C111.742 110.797 112.57 109.68 113.133 108.195C113.711 106.695 114 104.852 114 102.664V101.188C114 99.5469 113.836 98.1094 113.508 96.875C113.195 95.625 112.727 94.5859 112.102 93.7578C111.477 92.9141 110.695 92.2812 109.758 91.8594C108.836 91.4375 107.773 91.2266 106.57 91.2266H98.9766V84.875H106.57C108.883 84.875 111 85.2734 112.922 86.0703C114.859 86.8516 116.531 87.9766 117.938 89.4453C119.359 90.8984 120.453 92.625 121.219 94.625C122 96.6094 122.391 98.8125 122.391 101.234V102.664C122.391 105.07 122 107.273 121.219 109.273C120.453 111.273 119.367 113 117.961 114.453C116.555 115.906 114.891 117.031 112.969 117.828C111.062 118.609 108.969 119 106.688 119ZM103.828 84.875V119H95.6016V84.875H103.828ZM138.586 119.469C136.523 119.469 134.68 119.148 133.055 118.508C131.43 117.852 130.055 116.953 128.93 115.812C127.82 114.672 126.969 113.359 126.375 111.875C125.797 110.391 125.508 108.82 125.508 107.164V106.273C125.508 104.414 125.766 102.695 126.281 101.117C126.797 99.5234 127.562 98.1328 128.578 96.9453C129.594 95.7578 130.867 94.8359 132.398 94.1797C133.93 93.5078 135.711 93.1719 137.742 93.1719C139.539 93.1719 141.148 93.4609 142.57 94.0391C143.992 94.6172 145.195 95.4453 146.18 96.5234C147.18 97.6016 147.938 98.9062 148.453 100.438C148.984 101.969 149.25 103.688 149.25 105.594V108.805H128.531V103.859H141.539V103.25C141.555 102.406 141.406 101.688 141.094 101.094C140.797 100.5 140.359 100.047 139.781 99.7344C139.203 99.4219 138.5 99.2656 137.672 99.2656C136.812 99.2656 136.102 99.4531 135.539 99.8281C134.992 100.203 134.562 100.719 134.25 101.375C133.953 102.016 133.742 102.758 133.617 103.602C133.492 104.445 133.43 105.336 133.43 106.273V107.164C133.43 108.102 133.555 108.953 133.805 109.719C134.07 110.484 134.445 111.141 134.93 111.688C135.43 112.219 136.023 112.633 136.711 112.93C137.414 113.227 138.211 113.375 139.102 113.375C140.18 113.375 141.242 113.172 142.289 112.766C143.336 112.359 144.234 111.688 144.984 110.75L148.57 115.016C148.055 115.75 147.32 116.461 146.367 117.148C145.43 117.836 144.305 118.398 142.992 118.836C141.68 119.258 140.211 119.469 138.586 119.469ZM160.43 99.0078V119H152.531V93.6406H159.938L160.43 99.0078ZM159.469 105.453L157.664 105.5C157.664 103.719 157.875 102.078 158.297 100.578C158.719 99.0781 159.344 97.7734 160.172 96.6641C161 95.5547 162.016 94.6953 163.219 94.0859C164.438 93.4766 165.844 93.1719 167.438 93.1719C168.547 93.1719 169.555 93.3438 170.461 93.6875C171.367 94.0156 172.148 94.5391 172.805 95.2578C173.461 95.9609 173.961 96.8828 174.305 98.0234C174.664 99.1484 174.844 100.5 174.844 102.078V119H166.945V103.086C166.945 102.008 166.82 101.195 166.57 100.648C166.336 100.102 165.992 99.7344 165.539 99.5469C165.086 99.3594 164.531 99.2656 163.875 99.2656C163.188 99.2656 162.57 99.4219 162.023 99.7344C161.477 100.047 161.008 100.484 160.617 101.047C160.242 101.594 159.953 102.242 159.75 102.992C159.562 103.742 159.469 104.562 159.469 105.453ZM173.953 105.453L171.75 105.5C171.75 103.719 171.945 102.078 172.336 100.578C172.742 99.0781 173.344 97.7734 174.141 96.6641C174.953 95.5547 175.961 94.6953 177.164 94.0859C178.367 93.4766 179.766 93.1719 181.359 93.1719C182.516 93.1719 183.578 93.3438 184.547 93.6875C185.516 94.0312 186.352 94.5859 187.055 95.3516C187.758 96.1172 188.305 97.1328 188.695 98.3984C189.086 99.6484 189.281 101.195 189.281 103.039V119H181.359V103.039C181.359 101.992 181.234 101.203 180.984 100.672C180.75 100.125 180.406 99.7578 179.953 99.5703C179.5 99.3672 178.961 99.2656 178.336 99.2656C177.586 99.2656 176.938 99.4219 176.391 99.7344C175.844 100.047 175.383 100.484 175.008 101.047C174.648 101.594 174.383 102.242 174.211 102.992C174.039 103.742 173.953 104.562 173.953 105.453ZM192.82 106.578V106.086C192.82 104.227 193.086 102.516 193.617 100.953C194.148 99.375 194.93 98.0078 195.961 96.8516C196.992 95.6953 198.266 94.7969 199.781 94.1562C201.297 93.5 203.047 93.1719 205.031 93.1719C207.031 93.1719 208.789 93.5 210.305 94.1562C211.836 94.7969 213.117 95.6953 214.148 96.8516C215.18 98.0078 215.961 99.375 216.492 100.953C217.023 102.516 217.289 104.227 217.289 106.086V106.578C217.289 108.422 217.023 110.133 216.492 111.711C215.961 113.273 215.18 114.641 214.148 115.812C213.117 116.969 211.844 117.867 210.328 118.508C208.812 119.148 207.062 119.469 205.078 119.469C203.094 119.469 201.336 119.148 199.805 118.508C198.273 117.867 196.992 116.969 195.961 115.812C194.93 114.641 194.148 113.273 193.617 111.711C193.086 110.133 192.82 108.422 192.82 106.578ZM200.719 106.086V106.578C200.719 107.531 200.789 108.422 200.93 109.25C201.07 110.078 201.305 110.805 201.633 111.43C201.961 112.039 202.406 112.516 202.969 112.859C203.531 113.203 204.234 113.375 205.078 113.375C205.906 113.375 206.594 113.203 207.141 112.859C207.703 112.516 208.148 112.039 208.477 111.43C208.805 110.805 209.039 110.078 209.18 109.25C209.32 108.422 209.391 107.531 209.391 106.578V106.086C209.391 105.164 209.32 104.297 209.18 103.484C209.039 102.656 208.805 101.93 208.477 101.305C208.148 100.664 207.703 100.164 207.141 99.8047C206.578 99.4453 205.875 99.2656 205.031 99.2656C204.203 99.2656 203.508 99.4453 202.945 99.8047C202.398 100.164 201.961 100.664 201.633 101.305C201.305 101.93 201.07 102.656 200.93 103.484C200.789 104.297 200.719 105.164 200.719 106.086Z" fill="black"/>
<path d="M1134 0H1348C1356.28 0 1363 6.71573 1363 15V148C1363 156.284 1356.28 163 1348 163H1134V0Z" fill="#052B47"/>
<path d="M1280.07 47.5H1216.93L1214.5 49.9286V113.071L1216.93 115.5H1280.07L1282.5 113.071V49.9286L1280.07 47.5ZM1277.64 110.643H1233.93V100.929H1245.1C1246.56 103.843 1249.96 105.786 1253.36 105.786C1258.7 105.786 1263.07 101.414 1263.07 96.0714C1263.07 90.7286 1258.7 86.3571 1253.36 86.3571C1248.01 86.3571 1243.64 90.7286 1243.64 96.0714H1229.07V110.643H1219.36V52.3571H1229.07V63.5286C1226.16 64.9857 1224.21 68.3857 1224.21 71.7857C1224.21 77.1286 1228.59 81.5 1233.93 81.5C1239.27 81.5 1243.64 77.1286 1243.64 71.7857H1253.36C1253.36 77.1286 1257.73 81.5 1263.07 81.5C1268.41 81.5 1272.79 77.1286 1272.79 71.7857C1272.79 66.4429 1268.41 62.0714 1263.07 62.0714C1259.67 62.0714 1256.27 64.0143 1254.81 66.9286H1242.19C1240.73 64.0143 1237.33 62.0714 1233.93 62.0714V52.3571H1277.64V110.643ZM1248.5 96.0714C1248.5 93.1571 1250.44 91.2143 1253.36 91.2143C1256.27 91.2143 1258.21 93.1571 1258.21 96.0714C1258.21 98.9857 1256.27 100.929 1253.36 100.929C1250.44 100.929 1248.5 98.9857 1248.5 96.0714ZM1233.93 66.9286C1236.84 66.9286 1238.79 68.8714 1238.79 71.7857C1238.79 74.7 1236.84 76.6429 1233.93 76.6429C1231.01 76.6429 1229.07 74.7 1229.07 71.7857C1229.07 68.8714 1231.01 66.9286 1233.93 66.9286ZM1263.07 66.9286C1265.99 66.9286 1267.93 68.8714 1267.93 71.7857C1267.93 74.7 1265.99 76.6429 1263.07 76.6429C1260.16 76.6429 1258.21 74.7 1258.21 71.7857C1258.21 68.8714 1260.16 66.9286 1263.07 66.9286Z" fill="white"/>
</svg>
