<svg width="1363" height="163" viewBox="0 0 1363 163" fill="none" xmlns="http://www.w3.org/2000/svg">
<path d="M0 15C0 6.71573 6.71573 0 15 0H37V163H15C6.71573 163 0 156.284 0 148V15Z" fill="#424242"/>
<rect width="1097" height="163" transform="translate(37)" fill="#F0F0F0"/>
<path d="M101.906 53.9219L94.3945 51.2383V48.0859L104.602 52.375V54.6367L101.906 53.9219ZM94.3945 56.1719L101.918 53.4297L104.602 52.7852V55.0352L94.3945 59.3242V56.1719ZM122.789 55.3398H126.293C126.223 56.4883 125.906 57.5078 125.344 58.3984C124.789 59.2891 124.012 59.9844 123.012 60.4844C122.02 60.9844 120.824 61.2344 119.426 61.2344C118.332 61.2344 117.352 61.0469 116.484 60.6719C115.617 60.2891 114.875 59.7422 114.258 59.0312C113.648 58.3203 113.184 57.4609 112.863 56.4531C112.543 55.4453 112.383 54.3164 112.383 53.0664V51.8828C112.383 50.6328 112.547 49.5039 112.875 48.4961C113.211 47.4805 113.688 46.6172 114.305 45.9062C114.93 45.1953 115.676 44.6484 116.543 44.2656C117.41 43.8828 118.379 43.6914 119.449 43.6914C120.871 43.6914 122.07 43.9492 123.047 44.4648C124.031 44.9805 124.793 45.6914 125.332 46.5977C125.879 47.5039 126.207 48.5352 126.316 49.6914H122.801C122.762 49.0039 122.625 48.4219 122.391 47.9453C122.156 47.4609 121.801 47.0977 121.324 46.8555C120.855 46.6055 120.23 46.4805 119.449 46.4805C118.863 46.4805 118.352 46.5898 117.914 46.8086C117.477 47.0273 117.109 47.3594 116.812 47.8047C116.516 48.25 116.293 48.8125 116.145 49.4922C116.004 50.1641 115.934 50.9531 115.934 51.8594V53.0664C115.934 53.9492 116 54.7266 116.133 55.3984C116.266 56.0625 116.469 56.625 116.742 57.0859C117.023 57.5391 117.383 57.8828 117.82 58.1172C118.266 58.3438 118.801 58.457 119.426 58.457C120.16 58.457 120.766 58.3398 121.242 58.1055C121.719 57.8711 122.082 57.5234 122.332 57.0625C122.59 56.6016 122.742 56.0273 122.789 55.3398ZM135.234 58.1406V52.4922C135.234 52.0859 135.168 51.7383 135.035 51.4492C134.902 51.1523 134.695 50.9219 134.414 50.7578C134.141 50.5938 133.785 50.5117 133.348 50.5117C132.973 50.5117 132.648 50.5781 132.375 50.7109C132.102 50.8359 131.891 51.0195 131.742 51.2617C131.594 51.4961 131.52 51.7734 131.52 52.0938H128.145C128.145 51.5547 128.27 51.043 128.52 50.5586C128.77 50.0742 129.133 49.6484 129.609 49.2812C130.086 48.9062 130.652 48.6133 131.309 48.4023C131.973 48.1914 132.715 48.0859 133.535 48.0859C134.52 48.0859 135.395 48.25 136.16 48.5781C136.926 48.9062 137.527 49.3984 137.965 50.0547C138.41 50.7109 138.633 51.5312 138.633 52.5156V57.9414C138.633 58.6367 138.676 59.207 138.762 59.6523C138.848 60.0898 138.973 60.4727 139.137 60.8008V61H135.727C135.562 60.6562 135.438 60.2266 135.352 59.7109C135.273 59.1875 135.234 58.6641 135.234 58.1406ZM135.68 53.2773L135.703 55.1875H133.816C133.371 55.1875 132.984 55.2383 132.656 55.3398C132.328 55.4414 132.059 55.5859 131.848 55.7734C131.637 55.9531 131.48 56.1641 131.379 56.4062C131.285 56.6484 131.238 56.9141 131.238 57.2031C131.238 57.4922 131.305 57.7539 131.438 57.9883C131.57 58.2148 131.762 58.3945 132.012 58.5273C132.262 58.6523 132.555 58.7148 132.891 58.7148C133.398 58.7148 133.84 58.6133 134.215 58.4102C134.59 58.207 134.879 57.957 135.082 57.6602C135.293 57.3633 135.402 57.082 135.41 56.8164L136.301 58.2461C136.176 58.5664 136.004 58.8984 135.785 59.2422C135.574 59.5859 135.305 59.9102 134.977 60.2148C134.648 60.5117 134.254 60.7578 133.793 60.9531C133.332 61.1406 132.785 61.2344 132.152 61.2344C131.348 61.2344 130.617 61.0742 129.961 60.7539C129.312 60.4258 128.797 59.9766 128.414 59.4062C128.039 58.8281 127.852 58.1719 127.852 57.4375C127.852 56.7734 127.977 56.1836 128.227 55.668C128.477 55.1523 128.844 54.7188 129.328 54.3672C129.82 54.0078 130.434 53.7383 131.168 53.5586C131.902 53.3711 132.754 53.2773 133.723 53.2773H135.68ZM144.609 51.0859V61H141.234V48.3203H144.41L144.609 51.0859ZM148.43 48.2383L148.371 51.3672C148.207 51.3438 148.008 51.3242 147.773 51.3086C147.547 51.2852 147.34 51.2734 147.152 51.2734C146.676 51.2734 146.262 51.3359 145.91 51.4609C145.566 51.5781 145.277 51.7539 145.043 51.9883C144.816 52.2227 144.645 52.5078 144.527 52.8438C144.418 53.1797 144.355 53.5625 144.34 53.9922L143.66 53.7812C143.66 52.9609 143.742 52.207 143.906 51.5195C144.07 50.8242 144.309 50.2188 144.621 49.7031C144.941 49.1875 145.332 48.7891 145.793 48.5078C146.254 48.2266 146.781 48.0859 147.375 48.0859C147.562 48.0859 147.754 48.1016 147.949 48.1328C148.145 48.1562 148.305 48.1914 148.43 48.2383ZM157.816 48.3203H160.875V60.5781C160.875 61.7344 160.617 62.7148 160.102 63.5195C159.594 64.332 158.883 64.9453 157.969 65.3594C157.055 65.7812 155.992 65.9922 154.781 65.9922C154.25 65.9922 153.688 65.9219 153.094 65.7812C152.508 65.6406 151.945 65.4219 151.406 65.125C150.875 64.8281 150.43 64.4531 150.07 64L151.559 62.0078C151.949 62.4609 152.402 62.8125 152.918 63.0625C153.434 63.3203 154.004 63.4492 154.629 63.4492C155.238 63.4492 155.754 63.3359 156.176 63.1094C156.598 62.8906 156.922 62.5664 157.148 62.1367C157.375 61.7148 157.488 61.2031 157.488 60.6016V51.25L157.816 48.3203ZM149.285 54.8125V54.5664C149.285 53.5977 149.402 52.7188 149.637 51.9297C149.879 51.1328 150.219 50.4492 150.656 49.8789C151.102 49.3086 151.641 48.8672 152.273 48.5547C152.906 48.2422 153.621 48.0859 154.418 48.0859C155.262 48.0859 155.969 48.2422 156.539 48.5547C157.109 48.8672 157.578 49.3125 157.945 49.8906C158.312 50.4609 158.598 51.1367 158.801 51.918C159.012 52.6914 159.176 53.5391 159.293 54.4609V55C159.176 55.8828 159 56.7031 158.766 57.4609C158.531 58.2188 158.223 58.8828 157.84 59.4531C157.457 60.0156 156.98 60.4531 156.41 60.7656C155.848 61.0781 155.176 61.2344 154.395 61.2344C153.613 61.2344 152.906 61.0742 152.273 60.7539C151.648 60.4336 151.113 59.9844 150.668 59.4062C150.223 58.8281 149.879 58.1484 149.637 57.3672C149.402 56.5859 149.285 55.7344 149.285 54.8125ZM152.66 54.5664V54.8125C152.66 55.3359 152.711 55.8242 152.812 56.2773C152.914 56.7305 153.07 57.1328 153.281 57.4844C153.5 57.8281 153.77 58.0977 154.09 58.293C154.418 58.4805 154.805 58.5742 155.25 58.5742C155.867 58.5742 156.371 58.4453 156.762 58.1875C157.152 57.9219 157.445 57.5586 157.641 57.0977C157.836 56.6367 157.949 56.1055 157.98 55.5039V53.9688C157.965 53.4766 157.898 53.0352 157.781 52.6445C157.664 52.2461 157.5 51.9062 157.289 51.625C157.078 51.3438 156.805 51.125 156.469 50.9688C156.133 50.8125 155.734 50.7344 155.273 50.7344C154.828 50.7344 154.441 50.8359 154.113 51.0391C153.793 51.2344 153.523 51.5039 153.305 51.8477C153.094 52.1914 152.934 52.5977 152.824 53.0664C152.715 53.5273 152.66 54.0273 152.66 54.5664ZM162.961 54.7891V54.543C162.961 53.6133 163.094 52.7578 163.359 51.9766C163.625 51.1875 164.012 50.5039 164.52 49.9258C165.027 49.3477 165.652 48.8984 166.395 48.5781C167.137 48.25 167.988 48.0859 168.949 48.0859C169.91 48.0859 170.766 48.25 171.516 48.5781C172.266 48.8984 172.895 49.3477 173.402 49.9258C173.918 50.5039 174.309 51.1875 174.574 51.9766C174.84 52.7578 174.973 53.6133 174.973 54.543V54.7891C174.973 55.7109 174.84 56.5664 174.574 57.3555C174.309 58.1367 173.918 58.8203 173.402 59.4062C172.895 59.9844 172.27 60.4336 171.527 60.7539C170.785 61.0742 169.934 61.2344 168.973 61.2344C168.012 61.2344 167.156 61.0742 166.406 60.7539C165.664 60.4336 165.035 59.9844 164.52 59.4062C164.012 58.8203 163.625 58.1367 163.359 57.3555C163.094 56.5664 162.961 55.7109 162.961 54.7891ZM166.336 54.543V54.7891C166.336 55.3203 166.383 55.8164 166.477 56.2773C166.57 56.7383 166.719 57.1445 166.922 57.4961C167.133 57.8398 167.406 58.1094 167.742 58.3047C168.078 58.5 168.488 58.5977 168.973 58.5977C169.441 58.5977 169.844 58.5 170.18 58.3047C170.516 58.1094 170.785 57.8398 170.988 57.4961C171.191 57.1445 171.34 56.7383 171.434 56.2773C171.535 55.8164 171.586 55.3203 171.586 54.7891V54.543C171.586 54.0273 171.535 53.543 171.434 53.0898C171.34 52.6289 171.188 52.2227 170.977 51.8711C170.773 51.5117 170.504 51.2305 170.168 51.0273C169.832 50.8242 169.426 50.7227 168.949 50.7227C168.473 50.7227 168.066 50.8242 167.73 51.0273C167.402 51.2305 167.133 51.5117 166.922 51.8711C166.719 52.2227 166.57 52.6289 166.477 53.0898C166.383 53.543 166.336 54.0273 166.336 54.543ZM192.117 56.5352C192.117 56.2305 192.07 55.957 191.977 55.7148C191.891 55.4648 191.727 55.2383 191.484 55.0352C191.242 54.8242 190.902 54.6172 190.465 54.4141C190.027 54.2109 189.461 54 188.766 53.7812C187.992 53.5312 187.258 53.25 186.562 52.9375C185.875 52.625 185.266 52.2617 184.734 51.8477C184.211 51.4258 183.797 50.9375 183.492 50.3828C183.195 49.8281 183.047 49.1836 183.047 48.4492C183.047 47.7383 183.203 47.0938 183.516 46.5156C183.828 45.9297 184.266 45.4297 184.828 45.0156C185.391 44.5938 186.055 44.2695 186.82 44.043C187.594 43.8164 188.441 43.7031 189.363 43.7031C190.621 43.7031 191.719 43.9297 192.656 44.3828C193.594 44.8359 194.32 45.457 194.836 46.2461C195.359 47.0352 195.621 47.9375 195.621 48.9531H192.129C192.129 48.4531 192.023 48.0156 191.812 47.6406C191.609 47.2578 191.297 46.957 190.875 46.7383C190.461 46.5195 189.938 46.4102 189.305 46.4102C188.695 46.4102 188.188 46.5039 187.781 46.6914C187.375 46.8711 187.07 47.1172 186.867 47.4297C186.664 47.7344 186.562 48.0781 186.562 48.4609C186.562 48.75 186.633 49.0117 186.773 49.2461C186.922 49.4805 187.141 49.6992 187.43 49.9023C187.719 50.1055 188.074 50.2969 188.496 50.4766C188.918 50.6562 189.406 50.832 189.961 51.0039C190.891 51.2852 191.707 51.6016 192.41 51.9531C193.121 52.3047 193.715 52.6992 194.191 53.1367C194.668 53.5742 195.027 54.0703 195.27 54.625C195.512 55.1797 195.633 55.8086 195.633 56.5117C195.633 57.2539 195.488 57.918 195.199 58.5039C194.91 59.0898 194.492 59.5859 193.945 59.9922C193.398 60.3984 192.746 60.707 191.988 60.918C191.23 61.1289 190.383 61.2344 189.445 61.2344C188.602 61.2344 187.77 61.125 186.949 60.9062C186.129 60.6797 185.383 60.3398 184.711 59.8867C184.047 59.4336 183.516 58.8555 183.117 58.1523C182.719 57.4492 182.52 56.6172 182.52 55.6562H186.047C186.047 56.1875 186.129 56.6367 186.293 57.0039C186.457 57.3711 186.688 57.668 186.984 57.8945C187.289 58.1211 187.648 58.2852 188.062 58.3867C188.484 58.4883 188.945 58.5391 189.445 58.5391C190.055 58.5391 190.555 58.4531 190.945 58.2812C191.344 58.1094 191.637 57.8711 191.824 57.5664C192.02 57.2617 192.117 56.918 192.117 56.5352ZM201.188 50.9453V61H197.801V48.3203H200.977L201.188 50.9453ZM200.719 54.2148H199.781C199.781 53.332 199.887 52.5195 200.098 51.7773C200.316 51.0273 200.633 50.3789 201.047 49.832C201.469 49.2773 201.988 48.8477 202.605 48.543C203.223 48.2383 203.938 48.0859 204.75 48.0859C205.312 48.0859 205.828 48.1719 206.297 48.3438C206.766 48.5078 207.168 48.7695 207.504 49.1289C207.848 49.4805 208.113 49.9414 208.301 50.5117C208.488 51.0742 208.582 51.75 208.582 52.5391V61H205.207V52.9141C205.207 52.3359 205.129 51.8906 204.973 51.5781C204.816 51.2656 204.594 51.0469 204.305 50.9219C204.023 50.7969 203.684 50.7344 203.285 50.7344C202.848 50.7344 202.465 50.8242 202.137 51.0039C201.816 51.1836 201.551 51.4336 201.34 51.7539C201.129 52.0664 200.973 52.4336 200.871 52.8555C200.77 53.2773 200.719 53.7305 200.719 54.2148ZM208.266 53.8281L207.059 53.9805C207.059 53.1523 207.16 52.3828 207.363 51.6719C207.574 50.9609 207.883 50.3359 208.289 49.7969C208.703 49.2578 209.215 48.8398 209.824 48.543C210.434 48.2383 211.137 48.0859 211.934 48.0859C212.543 48.0859 213.098 48.1758 213.598 48.3555C214.098 48.5273 214.523 48.8047 214.875 49.1875C215.234 49.5625 215.508 50.0547 215.695 50.6641C215.891 51.2734 215.988 52.0195 215.988 52.9023V61H212.602V52.9023C212.602 52.3164 212.523 51.8711 212.367 51.5664C212.219 51.2539 212 51.0391 211.711 50.9219C211.43 50.7969 211.094 50.7344 210.703 50.7344C210.297 50.7344 209.941 50.8164 209.637 50.9805C209.332 51.1367 209.078 51.3555 208.875 51.6367C208.672 51.918 208.52 52.2461 208.418 52.6211C208.316 52.9883 208.266 53.3906 208.266 53.8281ZM225.445 58.1406V52.4922C225.445 52.0859 225.379 51.7383 225.246 51.4492C225.113 51.1523 224.906 50.9219 224.625 50.7578C224.352 50.5938 223.996 50.5117 223.559 50.5117C223.184 50.5117 222.859 50.5781 222.586 50.7109C222.312 50.8359 222.102 51.0195 221.953 51.2617C221.805 51.4961 221.73 51.7734 221.73 52.0938H218.355C218.355 51.5547 218.48 51.043 218.73 50.5586C218.98 50.0742 219.344 49.6484 219.82 49.2812C220.297 48.9062 220.863 48.6133 221.52 48.4023C222.184 48.1914 222.926 48.0859 223.746 48.0859C224.73 48.0859 225.605 48.25 226.371 48.5781C227.137 48.9062 227.738 49.3984 228.176 50.0547C228.621 50.7109 228.844 51.5312 228.844 52.5156V57.9414C228.844 58.6367 228.887 59.207 228.973 59.6523C229.059 60.0898 229.184 60.4727 229.348 60.8008V61H225.938C225.773 60.6562 225.648 60.2266 225.562 59.7109C225.484 59.1875 225.445 58.6641 225.445 58.1406ZM225.891 53.2773L225.914 55.1875H224.027C223.582 55.1875 223.195 55.2383 222.867 55.3398C222.539 55.4414 222.27 55.5859 222.059 55.7734C221.848 55.9531 221.691 56.1641 221.59 56.4062C221.496 56.6484 221.449 56.9141 221.449 57.2031C221.449 57.4922 221.516 57.7539 221.648 57.9883C221.781 58.2148 221.973 58.3945 222.223 58.5273C222.473 58.6523 222.766 58.7148 223.102 58.7148C223.609 58.7148 224.051 58.6133 224.426 58.4102C224.801 58.207 225.09 57.957 225.293 57.6602C225.504 57.3633 225.613 57.082 225.621 56.8164L226.512 58.2461C226.387 58.5664 226.215 58.8984 225.996 59.2422C225.785 59.5859 225.516 59.9102 225.188 60.2148C224.859 60.5117 224.465 60.7578 224.004 60.9531C223.543 61.1406 222.996 61.2344 222.363 61.2344C221.559 61.2344 220.828 61.0742 220.172 60.7539C219.523 60.4258 219.008 59.9766 218.625 59.4062C218.25 58.8281 218.062 58.1719 218.062 57.4375C218.062 56.7734 218.188 56.1836 218.438 55.668C218.688 55.1523 219.055 54.7188 219.539 54.3672C220.031 54.0078 220.645 53.7383 221.379 53.5586C222.113 53.3711 222.965 53.2773 223.934 53.2773H225.891ZM234.82 51.0859V61H231.445V48.3203H234.621L234.82 51.0859ZM238.641 48.2383L238.582 51.3672C238.418 51.3438 238.219 51.3242 237.984 51.3086C237.758 51.2852 237.551 51.2734 237.363 51.2734C236.887 51.2734 236.473 51.3359 236.121 51.4609C235.777 51.5781 235.488 51.7539 235.254 51.9883C235.027 52.2227 234.855 52.5078 234.738 52.8438C234.629 53.1797 234.566 53.5625 234.551 53.9922L233.871 53.7812C233.871 52.9609 233.953 52.207 234.117 51.5195C234.281 50.8242 234.52 50.2188 234.832 49.7031C235.152 49.1875 235.543 48.7891 236.004 48.5078C236.465 48.2266 236.992 48.0859 237.586 48.0859C237.773 48.0859 237.965 48.1016 238.16 48.1328C238.355 48.1562 238.516 48.1914 238.641 48.2383ZM247.031 48.3203V50.7109H239.648V48.3203H247.031ZM241.477 45.1914H244.852V57.1797C244.852 57.5469 244.898 57.8281 244.992 58.0234C245.094 58.2188 245.242 58.3555 245.438 58.4336C245.633 58.5039 245.879 58.5391 246.176 58.5391C246.387 58.5391 246.574 58.5312 246.738 58.5156C246.91 58.4922 247.055 58.4688 247.172 58.4453L247.184 60.9297C246.895 61.0234 246.582 61.0977 246.246 61.1523C245.91 61.207 245.539 61.2344 245.133 61.2344C244.391 61.2344 243.742 61.1133 243.188 60.8711C242.641 60.6211 242.219 60.2227 241.922 59.6758C241.625 59.1289 241.477 58.4102 241.477 57.5195V45.1914Z" fill="#888888"/>
<path d="M109.219 107.422H100.734V101.07H109.219C110.375 101.07 111.312 100.875 112.031 100.484C112.75 100.094 113.273 99.5547 113.602 98.8672C113.945 98.1641 114.117 97.375 114.117 96.5C114.117 95.5625 113.945 94.6953 113.602 93.8984C113.273 93.1016 112.75 92.4609 112.031 91.9766C111.312 91.4766 110.375 91.2266 109.219 91.2266H103.828V119H95.6016V84.875H109.219C111.953 84.875 114.305 85.375 116.273 86.375C118.258 87.375 119.781 88.75 120.844 90.5C121.906 92.2344 122.438 94.2188 122.438 96.4531C122.438 98.6562 121.906 100.578 120.844 102.219C119.781 103.859 118.258 105.141 116.273 106.062C114.305 106.969 111.953 107.422 109.219 107.422ZM134.461 99.9219V119H126.562V93.6406H133.945L134.461 99.9219ZM141.961 93.4531L141.82 100.789C141.508 100.758 141.086 100.719 140.555 100.672C140.023 100.625 139.578 100.602 139.219 100.602C138.297 100.602 137.5 100.711 136.828 100.93C136.172 101.133 135.625 101.445 135.188 101.867C134.766 102.273 134.453 102.789 134.25 103.414C134.062 104.039 133.977 104.766 133.992 105.594L132.562 104.656C132.562 102.953 132.727 101.406 133.055 100.016C133.398 98.6094 133.883 97.3984 134.508 96.3828C135.133 95.3516 135.891 94.5625 136.781 94.0156C137.672 93.4531 138.672 93.1719 139.781 93.1719C140.172 93.1719 140.555 93.1953 140.93 93.2422C141.32 93.2891 141.664 93.3594 141.961 93.4531ZM142.852 106.578V106.086C142.852 104.227 143.117 102.516 143.648 100.953C144.18 99.375 144.961 98.0078 145.992 96.8516C147.023 95.6953 148.297 94.7969 149.812 94.1562C151.328 93.5 153.078 93.1719 155.062 93.1719C157.062 93.1719 158.82 93.5 160.336 94.1562C161.867 94.7969 163.148 95.6953 164.18 96.8516C165.211 98.0078 165.992 99.375 166.523 100.953C167.055 102.516 167.32 104.227 167.32 106.086V106.578C167.32 108.422 167.055 110.133 166.523 111.711C165.992 113.273 165.211 114.641 164.18 115.812C163.148 116.969 161.875 117.867 160.359 118.508C158.844 119.148 157.094 119.469 155.109 119.469C153.125 119.469 151.367 119.148 149.836 118.508C148.305 117.867 147.023 116.969 145.992 115.812C144.961 114.641 144.18 113.273 143.648 111.711C143.117 110.133 142.852 108.422 142.852 106.578ZM150.75 106.086V106.578C150.75 107.531 150.82 108.422 150.961 109.25C151.102 110.078 151.336 110.805 151.664 111.43C151.992 112.039 152.438 112.516 153 112.859C153.562 113.203 154.266 113.375 155.109 113.375C155.938 113.375 156.625 113.203 157.172 112.859C157.734 112.516 158.18 112.039 158.508 111.43C158.836 110.805 159.07 110.078 159.211 109.25C159.352 108.422 159.422 107.531 159.422 106.578V106.086C159.422 105.164 159.352 104.297 159.211 103.484C159.07 102.656 158.836 101.93 158.508 101.305C158.18 100.664 157.734 100.164 157.172 99.8047C156.609 99.4453 155.906 99.2656 155.062 99.2656C154.234 99.2656 153.539 99.4453 152.977 99.8047C152.43 100.164 151.992 100.664 151.664 101.305C151.336 101.93 151.102 102.656 150.961 103.484C150.82 104.297 150.75 105.164 150.75 106.086ZM171.422 93.6406H179.344V119.82C179.344 121.852 178.953 123.562 178.172 124.953C177.391 126.359 176.273 127.422 174.82 128.141C173.367 128.875 171.633 129.242 169.617 129.242C168.945 129.242 168.328 129.211 167.766 129.148C167.188 129.102 166.555 129 165.867 128.844V122.867C166.273 122.93 166.648 122.977 166.992 123.008C167.336 123.055 167.711 123.078 168.117 123.078C168.836 123.078 169.438 122.961 169.922 122.727C170.406 122.492 170.773 122.133 171.023 121.648C171.289 121.164 171.422 120.555 171.422 119.82V93.6406ZM170.836 87.1016C170.836 85.9766 171.242 85.0547 172.055 84.3359C172.867 83.6172 173.922 83.2578 175.219 83.2578C176.516 83.2578 177.57 83.6172 178.383 84.3359C179.195 85.0547 179.602 85.9766 179.602 87.1016C179.602 88.2266 179.195 89.1484 178.383 89.8672C177.57 90.5859 176.516 90.9453 175.219 90.9453C173.922 90.9453 172.867 90.5859 172.055 89.8672C171.242 89.1484 170.836 88.2266 170.836 87.1016ZM196.102 119.469C194.039 119.469 192.195 119.148 190.57 118.508C188.945 117.852 187.57 116.953 186.445 115.812C185.336 114.672 184.484 113.359 183.891 111.875C183.312 110.391 183.023 108.82 183.023 107.164V106.273C183.023 104.414 183.281 102.695 183.797 101.117C184.312 99.5234 185.078 98.1328 186.094 96.9453C187.109 95.7578 188.383 94.8359 189.914 94.1797C191.445 93.5078 193.227 93.1719 195.258 93.1719C197.055 93.1719 198.664 93.4609 200.086 94.0391C201.508 94.6172 202.711 95.4453 203.695 96.5234C204.695 97.6016 205.453 98.9062 205.969 100.438C206.5 101.969 206.766 103.688 206.766 105.594V108.805H186.047V103.859H199.055V103.25C199.07 102.406 198.922 101.688 198.609 101.094C198.312 100.5 197.875 100.047 197.297 99.7344C196.719 99.4219 196.016 99.2656 195.188 99.2656C194.328 99.2656 193.617 99.4531 193.055 99.8281C192.508 100.203 192.078 100.719 191.766 101.375C191.469 102.016 191.258 102.758 191.133 103.602C191.008 104.445 190.945 105.336 190.945 106.273V107.164C190.945 108.102 191.07 108.953 191.32 109.719C191.586 110.484 191.961 111.141 192.445 111.688C192.945 112.219 193.539 112.633 194.227 112.93C194.93 113.227 195.727 113.375 196.617 113.375C197.695 113.375 198.758 113.172 199.805 112.766C200.852 112.359 201.75 111.688 202.5 110.75L206.086 115.016C205.57 115.75 204.836 116.461 203.883 117.148C202.945 117.836 201.82 118.398 200.508 118.836C199.195 119.258 197.727 119.469 196.102 119.469ZM220.688 113.375C221.422 113.375 222.047 113.242 222.562 112.977C223.094 112.695 223.492 112.305 223.758 111.805C224.039 111.289 224.172 110.672 224.156 109.953H231.586C231.602 111.859 231.133 113.531 230.18 114.969C229.242 116.391 227.961 117.5 226.336 118.297C224.727 119.078 222.906 119.469 220.875 119.469C218.891 119.469 217.156 119.148 215.672 118.508C214.188 117.852 212.945 116.945 211.945 115.789C210.961 114.617 210.219 113.25 209.719 111.688C209.234 110.125 208.992 108.43 208.992 106.602V106.062C208.992 104.234 209.234 102.539 209.719 100.977C210.219 99.3984 210.961 98.0312 211.945 96.875C212.945 95.7031 214.18 94.7969 215.648 94.1562C217.133 93.5 218.859 93.1719 220.828 93.1719C222.938 93.1719 224.797 93.5703 226.406 94.3672C228.031 95.1641 229.305 96.3203 230.227 97.8359C231.148 99.3516 231.602 101.188 231.586 103.344H224.156C224.172 102.578 224.055 101.891 223.805 101.281C223.555 100.672 223.164 100.188 222.633 99.8281C222.117 99.4531 221.453 99.2656 220.641 99.2656C219.828 99.2656 219.172 99.4453 218.672 99.8047C218.172 100.164 217.789 100.664 217.523 101.305C217.273 101.93 217.102 102.648 217.008 103.461C216.93 104.273 216.891 105.141 216.891 106.062V106.602C216.891 107.539 216.93 108.422 217.008 109.25C217.102 110.062 217.281 110.781 217.547 111.406C217.812 112.016 218.195 112.5 218.695 112.859C219.195 113.203 219.859 113.375 220.688 113.375ZM248.32 93.6406V99.125H233.039V93.6406H248.32ZM236.25 87.3359H244.148V110.727C244.148 111.398 244.227 111.922 244.383 112.297C244.539 112.656 244.805 112.914 245.18 113.07C245.57 113.211 246.086 113.281 246.727 113.281C247.18 113.281 247.555 113.273 247.852 113.258C248.148 113.227 248.43 113.188 248.695 113.141V118.789C248.023 119.008 247.32 119.172 246.586 119.281C245.852 119.406 245.07 119.469 244.242 119.469C242.555 119.469 241.109 119.203 239.906 118.672C238.719 118.141 237.812 117.305 237.188 116.164C236.562 115.023 236.25 113.539 236.25 111.711V87.3359ZM286.781 98.4219V104.75H269.273V98.4219H286.781ZM272.016 84.875V119H263.789V84.875H272.016ZM292.312 84.875V119H284.109V84.875H292.312ZM305.508 93.6406V119H297.586V93.6406H305.508ZM297.117 87.1016C297.117 85.9766 297.523 85.0547 298.336 84.3359C299.148 83.6172 300.203 83.2578 301.5 83.2578C302.797 83.2578 303.852 83.6172 304.664 84.3359C305.477 85.0547 305.883 85.9766 305.883 87.1016C305.883 88.2266 305.477 89.1484 304.664 89.8672C303.852 90.5859 302.797 90.9453 301.5 90.9453C300.203 90.9453 299.148 90.5859 298.336 89.8672C297.523 89.1484 297.117 88.2266 297.117 87.1016ZM326.32 93.6406H333.492V118.016C333.492 120.359 332.953 122.344 331.875 123.969C330.797 125.609 329.289 126.852 327.352 127.695C325.43 128.555 323.18 128.984 320.602 128.984C319.461 128.984 318.297 128.836 317.109 128.539C315.922 128.258 314.812 127.836 313.781 127.273C312.75 126.711 311.883 126.016 311.18 125.188L314.484 120.547C315.125 121.266 315.93 121.875 316.898 122.375C317.867 122.891 319.008 123.148 320.32 123.148C321.461 123.148 322.414 122.945 323.18 122.539C323.961 122.133 324.555 121.539 324.961 120.758C325.367 119.992 325.57 119.062 325.57 117.969V99.6406L326.32 93.6406ZM309.469 106.625V106.133C309.469 104.211 309.703 102.461 310.172 100.883C310.656 99.2891 311.344 97.9219 312.234 96.7812C313.141 95.625 314.234 94.7344 315.516 94.1094C316.797 93.4844 318.242 93.1719 319.852 93.1719C321.586 93.1719 323.008 93.5078 324.117 94.1797C325.242 94.8359 326.141 95.7578 326.812 96.9453C327.5 98.1328 328.031 99.5234 328.406 101.117C328.797 102.695 329.125 104.398 329.391 106.227V106.812C329.125 108.531 328.758 110.156 328.289 111.688C327.836 113.203 327.242 114.547 326.508 115.719C325.773 116.891 324.852 117.812 323.742 118.484C322.648 119.141 321.336 119.469 319.805 119.469C318.211 119.469 316.773 119.148 315.492 118.508C314.227 117.867 313.141 116.969 312.234 115.812C311.344 114.656 310.656 113.297 310.172 111.734C309.703 110.172 309.469 108.469 309.469 106.625ZM317.367 106.133V106.625C317.367 107.578 317.453 108.461 317.625 109.273C317.812 110.086 318.094 110.805 318.469 111.43C318.844 112.039 319.305 112.516 319.852 112.859C320.414 113.203 321.07 113.375 321.82 113.375C322.961 113.375 323.883 113.133 324.586 112.648C325.289 112.164 325.797 111.477 326.109 110.586C326.422 109.695 326.555 108.648 326.508 107.445V105.594C326.539 104.562 326.469 103.656 326.297 102.875C326.125 102.078 325.852 101.414 325.477 100.883C325.117 100.352 324.633 99.9531 324.023 99.6875C323.43 99.4062 322.711 99.2656 321.867 99.2656C321.133 99.2656 320.484 99.4375 319.922 99.7812C319.359 100.125 318.891 100.609 318.516 101.234C318.141 101.844 317.852 102.57 317.648 103.414C317.461 104.242 317.367 105.148 317.367 106.133ZM345.773 83V119H337.875V83H345.773ZM344.836 105.453L342.984 105.5C342.984 103.719 343.203 102.078 343.641 100.578C344.078 99.0781 344.703 97.7734 345.516 96.6641C346.328 95.5547 347.305 94.6953 348.445 94.0859C349.586 93.4766 350.852 93.1719 352.242 93.1719C353.492 93.1719 354.633 93.3516 355.664 93.7109C356.711 94.0703 357.609 94.6484 358.359 95.4453C359.125 96.2422 359.711 97.2812 360.117 98.5625C360.539 99.8438 360.75 101.406 360.75 103.25V119H352.805V103.203C352.805 102.172 352.656 101.375 352.359 100.812C352.078 100.234 351.672 99.8359 351.141 99.6172C350.609 99.3828 349.961 99.2656 349.195 99.2656C348.273 99.2656 347.523 99.4219 346.945 99.7344C346.367 100.047 345.922 100.484 345.609 101.047C345.312 101.594 345.109 102.242 345 102.992C344.891 103.742 344.836 104.562 344.836 105.453ZM373.477 83V119H365.555V83H373.477ZM386.695 93.6406V119H378.773V93.6406H386.695ZM378.305 87.1016C378.305 85.9766 378.711 85.0547 379.523 84.3359C380.336 83.6172 381.391 83.2578 382.688 83.2578C383.984 83.2578 385.039 83.6172 385.852 84.3359C386.664 85.0547 387.07 85.9766 387.07 87.1016C387.07 88.2266 386.664 89.1484 385.852 89.8672C385.039 90.5859 383.984 90.9453 382.688 90.9453C381.391 90.9453 380.336 90.5859 379.523 89.8672C378.711 89.1484 378.305 88.2266 378.305 87.1016ZM407.508 93.6406H414.68V118.016C414.68 120.359 414.141 122.344 413.062 123.969C411.984 125.609 410.477 126.852 408.539 127.695C406.617 128.555 404.367 128.984 401.789 128.984C400.648 128.984 399.484 128.836 398.297 128.539C397.109 128.258 396 127.836 394.969 127.273C393.938 126.711 393.07 126.016 392.367 125.188L395.672 120.547C396.312 121.266 397.117 121.875 398.086 122.375C399.055 122.891 400.195 123.148 401.508 123.148C402.648 123.148 403.602 122.945 404.367 122.539C405.148 122.133 405.742 121.539 406.148 120.758C406.555 119.992 406.758 119.062 406.758 117.969V99.6406L407.508 93.6406ZM390.656 106.625V106.133C390.656 104.211 390.891 102.461 391.359 100.883C391.844 99.2891 392.531 97.9219 393.422 96.7812C394.328 95.625 395.422 94.7344 396.703 94.1094C397.984 93.4844 399.43 93.1719 401.039 93.1719C402.773 93.1719 404.195 93.5078 405.305 94.1797C406.43 94.8359 407.328 95.7578 408 96.9453C408.688 98.1328 409.219 99.5234 409.594 101.117C409.984 102.695 410.312 104.398 410.578 106.227V106.812C410.312 108.531 409.945 110.156 409.477 111.688C409.023 113.203 408.43 114.547 407.695 115.719C406.961 116.891 406.039 117.812 404.93 118.484C403.836 119.141 402.523 119.469 400.992 119.469C399.398 119.469 397.961 119.148 396.68 118.508C395.414 117.867 394.328 116.969 393.422 115.812C392.531 114.656 391.844 113.297 391.359 111.734C390.891 110.172 390.656 108.469 390.656 106.625ZM398.555 106.133V106.625C398.555 107.578 398.641 108.461 398.812 109.273C399 110.086 399.281 110.805 399.656 111.43C400.031 112.039 400.492 112.516 401.039 112.859C401.602 113.203 402.258 113.375 403.008 113.375C404.148 113.375 405.07 113.133 405.773 112.648C406.477 112.164 406.984 111.477 407.297 110.586C407.609 109.695 407.742 108.648 407.695 107.445V105.594C407.727 104.562 407.656 103.656 407.484 102.875C407.312 102.078 407.039 101.414 406.664 100.883C406.305 100.352 405.82 99.9531 405.211 99.6875C404.617 99.4062 403.898 99.2656 403.055 99.2656C402.32 99.2656 401.672 99.4375 401.109 99.7812C400.547 100.125 400.078 100.609 399.703 101.234C399.328 101.844 399.039 102.57 398.836 103.414C398.648 104.242 398.555 105.148 398.555 106.133ZM426.961 83V119H419.062V83H426.961ZM426.023 105.453L424.172 105.5C424.172 103.719 424.391 102.078 424.828 100.578C425.266 99.0781 425.891 97.7734 426.703 96.6641C427.516 95.5547 428.492 94.6953 429.633 94.0859C430.773 93.4766 432.039 93.1719 433.43 93.1719C434.68 93.1719 435.82 93.3516 436.852 93.7109C437.898 94.0703 438.797 94.6484 439.547 95.4453C440.312 96.2422 440.898 97.2812 441.305 98.5625C441.727 99.8438 441.938 101.406 441.938 103.25V119H433.992V103.203C433.992 102.172 433.844 101.375 433.547 100.812C433.266 100.234 432.859 99.8359 432.328 99.6172C431.797 99.3828 431.148 99.2656 430.383 99.2656C429.461 99.2656 428.711 99.4219 428.133 99.7344C427.555 100.047 427.109 100.484 426.797 101.047C426.5 101.594 426.297 102.242 426.188 102.992C426.078 103.742 426.023 104.562 426.023 105.453ZM459.68 93.6406V99.125H444.398V93.6406H459.68ZM447.609 87.3359H455.508V110.727C455.508 111.398 455.586 111.922 455.742 112.297C455.898 112.656 456.164 112.914 456.539 113.07C456.93 113.211 457.445 113.281 458.086 113.281C458.539 113.281 458.914 113.273 459.211 113.258C459.508 113.227 459.789 113.188 460.055 113.141V118.789C459.383 119.008 458.68 119.172 457.945 119.281C457.211 119.406 456.43 119.469 455.602 119.469C453.914 119.469 452.469 119.203 451.266 118.672C450.078 118.141 449.172 117.305 448.547 116.164C447.922 115.023 447.609 113.539 447.609 111.711V87.3359ZM476.109 111.875C476.109 111.438 475.961 111.062 475.664 110.75C475.383 110.422 474.883 110.125 474.164 109.859C473.445 109.578 472.438 109.297 471.141 109.016C469.906 108.75 468.742 108.398 467.648 107.961C466.57 107.523 465.625 106.992 464.812 106.367C464 105.742 463.359 105 462.891 104.141C462.438 103.281 462.211 102.297 462.211 101.188C462.211 100.109 462.438 99.0938 462.891 98.1406C463.359 97.1719 464.039 96.3203 464.93 95.5859C465.836 94.8359 466.938 94.25 468.234 93.8281C469.531 93.3906 471.008 93.1719 472.664 93.1719C474.945 93.1719 476.914 93.5234 478.57 94.2266C480.227 94.9141 481.5 95.8828 482.391 97.1328C483.297 98.3672 483.75 99.7969 483.75 101.422H475.852C475.852 100.781 475.742 100.234 475.523 99.7812C475.32 99.3281 474.984 98.9844 474.516 98.75C474.047 98.5 473.422 98.375 472.641 98.375C472.094 98.375 471.594 98.4766 471.141 98.6797C470.703 98.8828 470.352 99.1641 470.086 99.5234C469.82 99.8828 469.688 100.305 469.688 100.789C469.688 101.133 469.766 101.445 469.922 101.727C470.094 101.992 470.352 102.242 470.695 102.477C471.039 102.695 471.477 102.898 472.008 103.086C472.539 103.258 473.18 103.414 473.93 103.555C475.633 103.867 477.227 104.312 478.711 104.891C480.195 105.469 481.398 106.289 482.32 107.352C483.258 108.414 483.727 109.844 483.727 111.641C483.727 112.766 483.469 113.805 482.953 114.758C482.438 115.695 481.695 116.523 480.727 117.242C479.758 117.945 478.594 118.492 477.234 118.883C475.875 119.273 474.344 119.469 472.641 119.469C470.219 119.469 468.172 119.039 466.5 118.18C464.828 117.305 463.562 116.211 462.703 114.898C461.859 113.57 461.438 112.227 461.438 110.867H468.797C468.828 111.648 469.016 112.289 469.359 112.789C469.719 113.289 470.195 113.656 470.789 113.891C471.383 114.125 472.07 114.242 472.852 114.242C473.57 114.242 474.164 114.141 474.633 113.938C475.117 113.734 475.484 113.461 475.734 113.117C475.984 112.758 476.109 112.344 476.109 111.875Z" fill="black"/>
<path d="M1134 0H1348C1356.28 0 1363 6.71573 1363 15V148C1363 156.284 1356.28 163 1348 163H1134V0Z" fill="#052B47"/>
<mask id="path-5-outside-1_3_82" maskUnits="userSpaceOnUse" x="1212.5" y="43.5" width="72" height="76" fill="black">
<rect fill="white" x="1212.5" y="43.5" width="72" height="76"/>
<path d="M1257.78 110.795L1258.17 117.033C1258.2 117.55 1257.82 118.005 1257.3 118.082C1255.41 118.359 1253.48 118.5 1251.56 118.5C1249.65 118.5 1247.72 118.359 1245.83 118.082C1245.3 118.005 1244.93 117.55 1244.96 117.033L1245.29 111.677C1241.26 110.891 1237.48 109.371 1234.05 107.148L1230.39 111.163C1230.04 111.55 1229.44 111.612 1229.01 111.305C1225.91 109.088 1223.19 106.436 1220.9 103.423C1220.59 103.006 1220.65 102.425 1221.05 102.081L1225.18 98.5235C1222.89 95.1861 1221.33 91.5191 1220.52 87.5987L1215.01 87.921C1214.48 87.9525 1214.01 87.5844 1213.93 87.0723C1213.64 85.2408 1213.5 83.3658 1213.5 81.4989C1213.5 79.6323 1213.64 77.7573 1213.93 75.9255C1214.01 75.4134 1214.48 75.037 1215.01 75.0768L1220.52 75.3991C1221.33 71.48 1222.89 67.8127 1225.18 64.4753L1221.05 60.9166C1220.65 60.5732 1220.59 59.9915 1220.9 59.5751C1223.18 56.565 1225.91 53.9132 1229.01 51.6928C1229.44 51.3858 1230.04 51.448 1230.39 51.8344L1234.05 55.8498C1237.51 53.619 1241.42 52.0541 1245.48 51.2839L1245.04 45.9743C1245 45.4495 1245.38 44.9818 1245.92 44.9043C1249.64 44.3652 1253.49 44.3652 1257.21 44.9043C1257.75 44.9818 1258.13 45.4496 1258.09 45.9743L1257.57 52.1893C1257.52 52.7401 1257.02 53.1503 1256.46 53.105C1255.89 53.0601 1255.47 52.5776 1255.52 52.0273L1255.96 46.7572C1253.05 46.4128 1250.08 46.4128 1247.17 46.7572L1247.61 52.0268C1247.66 52.546 1247.28 53.0109 1246.75 53.0949C1242.36 53.7915 1238.12 55.4843 1234.48 57.9899C1234.05 58.2849 1233.46 58.2181 1233.11 57.8373L1229.48 53.8537C1227.1 55.6511 1224.97 57.7247 1223.12 60.034L1227.22 63.565C1227.61 63.9035 1227.68 64.4749 1227.38 64.8912C1224.81 68.4236 1223.12 72.3693 1222.38 76.6188C1222.29 77.1218 1221.82 77.4795 1221.3 77.4485L1215.84 77.1288C1215.65 78.5723 1215.56 80.0384 1215.56 81.499C1215.56 82.9599 1215.65 84.4259 1215.84 85.8692L1221.3 85.5495C1221.82 85.5157 1222.29 85.8767 1222.38 86.3793C1223.12 90.6301 1224.81 94.5761 1227.38 98.1078C1227.68 98.5242 1227.61 99.0954 1227.22 99.434L1223.12 102.964C1224.97 105.276 1227.11 107.349 1229.48 109.144L1233.11 105.161C1233.46 104.779 1234.05 104.713 1234.48 105.008C1238.11 107.508 1242.17 109.143 1246.54 109.869C1247.06 109.955 1247.43 110.406 1247.4 110.915L1247.07 116.229C1250.04 116.589 1253.09 116.589 1256.06 116.229L1255.73 110.915C1255.7 110.363 1256.13 109.89 1256.7 109.857C1257.26 109.827 1257.75 110.244 1257.78 110.795ZM1279.87 67.5195C1281.52 67.5195 1282.86 68.8234 1282.86 70.4259C1282.86 72.0285 1281.52 73.3323 1279.87 73.3323C1279.49 73.3323 1279.13 73.2564 1278.8 73.131L1276 75.947C1275.8 76.142 1275.54 76.2524 1275.26 76.2524H1260.97C1260.4 76.2524 1259.94 75.8048 1259.94 75.2524C1259.94 74.7 1260.4 74.2524 1260.97 74.2524H1274.82L1277.25 71.8052C1277.02 71.3928 1276.88 70.9277 1276.88 70.4261C1276.88 68.8232 1278.22 67.5195 1279.87 67.5195ZM1278.93 70.4259C1278.93 70.9256 1279.35 71.3321 1279.87 71.3321C1280.38 71.3321 1280.8 70.9256 1280.8 70.4259C1280.8 69.9263 1280.38 69.5197 1279.87 69.5197C1279.35 69.5196 1278.93 69.9261 1278.93 70.4259ZM1268.7 64.8892L1272.51 59.5583C1272.12 59.0691 1271.89 58.4651 1271.89 57.8029C1271.89 56.2003 1273.23 54.8965 1274.87 54.8965C1276.52 54.8965 1277.86 56.2003 1277.86 57.8029C1277.86 59.4054 1276.52 60.7092 1274.87 60.7092C1274.66 60.7092 1274.45 60.6835 1274.24 60.6403L1270.08 66.4604C1269.89 66.729 1269.57 66.8895 1269.23 66.8895H1257.92C1257.35 66.8895 1256.89 66.4419 1256.89 65.8895C1256.89 65.3371 1257.35 64.8895 1257.92 64.8895L1268.7 64.8892ZM1273.94 57.8029C1273.94 58.3025 1274.36 58.7091 1274.87 58.7091C1275.39 58.7091 1275.81 58.3025 1275.81 57.8029C1275.81 57.3032 1275.39 56.8967 1274.87 56.8967C1274.36 56.8965 1273.94 57.3031 1273.94 57.8029ZM1277.62 105.196C1277.62 106.798 1276.28 108.102 1274.63 108.102C1272.98 108.102 1271.64 106.798 1271.64 105.196C1271.64 104.412 1271.96 103.703 1272.48 103.179L1268.69 97.8852H1257.92C1257.35 97.8852 1256.89 97.4376 1256.89 96.8852C1256.89 96.3328 1257.35 95.8852 1257.92 95.8852H1269.23C1269.57 95.8852 1269.89 96.0456 1270.08 96.3143L1274.37 102.315C1274.46 102.307 1274.54 102.289 1274.63 102.289C1276.28 102.289 1277.62 103.593 1277.62 105.196ZM1275.56 105.196C1275.56 104.696 1275.14 104.289 1274.63 104.289C1274.11 104.289 1273.69 104.696 1273.69 105.196C1273.69 105.695 1274.11 106.102 1274.63 106.102C1275.14 106.102 1275.56 105.695 1275.56 105.196ZM1282.61 92.8506C1282.61 94.4532 1281.27 95.757 1279.62 95.757C1277.97 95.757 1276.63 94.4532 1276.63 92.8506C1276.63 92.2267 1276.84 91.6518 1277.18 91.1777L1274.82 88.8004H1260.97C1260.4 88.8004 1259.94 88.3528 1259.94 87.8004C1259.94 87.248 1260.4 86.8004 1260.97 86.8004H1275.26C1275.54 86.8004 1275.8 86.9109 1276 87.1058L1278.91 90.0363C1279.14 89.9817 1279.37 89.9444 1279.62 89.9444C1281.27 89.9443 1282.61 91.2479 1282.61 92.8506ZM1280.55 92.8506C1280.55 92.351 1280.13 91.9444 1279.62 91.9444C1279.11 91.9444 1278.69 92.351 1278.69 92.8506C1278.69 93.3503 1279.11 93.7569 1279.62 93.7569C1280.13 93.7569 1280.55 93.3503 1280.55 92.8506ZM1283.5 81.5261C1283.5 83.1286 1282.16 84.4324 1280.51 84.4324C1279.22 84.4324 1278.14 83.6352 1277.71 82.5258H1255.16V100.204C1255.16 103.826 1252.13 106.773 1248.41 106.773C1245.68 106.773 1243.27 105.218 1242.21 102.835C1242.17 102.836 1242.13 102.837 1242.08 102.837C1238.36 102.837 1235.33 99.8896 1235.33 96.2674C1235.33 96.0939 1235.33 95.9203 1235.35 95.7475C1233.74 95.4353 1232.22 94.6326 1230.98 93.4249C1229.39 91.8756 1228.51 89.8161 1228.51 87.6253C1228.51 85.4345 1229.39 83.3749 1230.98 81.826C1231.1 81.7098 1231.23 81.6079 1231.36 81.4992C1231.23 81.3903 1231.1 81.2884 1230.98 81.1724C1229.39 79.6232 1228.51 77.5636 1228.51 75.3731C1228.51 73.1823 1229.39 71.1227 1230.98 69.5735C1232.22 68.3658 1233.74 67.563 1235.35 67.2509C1235.33 67.078 1235.33 66.9046 1235.33 66.731C1235.33 63.1085 1238.36 60.1615 1242.08 60.1615C1242.13 60.1615 1242.17 60.1618 1242.21 60.1628C1243.27 57.7799 1245.68 56.2252 1248.41 56.2252C1252.13 56.2252 1255.16 59.1721 1255.16 62.7944V80.5259H1277.71C1278.14 79.4168 1279.22 78.62 1280.51 78.62C1282.16 78.6198 1283.5 79.9235 1283.5 81.5261ZM1232.44 79.7581C1232.72 80.0356 1233.05 80.2792 1233.39 80.499H1253.11V62.7941C1253.11 60.2745 1251 58.225 1248.41 58.225C1246.68 58.225 1245.14 59.1203 1244.32 60.5297C1245.15 60.813 1245.92 61.2544 1246.59 61.8364C1246.6 61.8432 1246.6 61.8529 1246.61 61.8598C1246.99 61.6858 1247.42 61.5815 1247.87 61.5815C1249.51 61.5815 1250.86 62.8853 1250.86 64.4874C1250.86 66.09 1249.51 67.3938 1247.87 67.3938C1246.22 67.3938 1244.88 66.09 1244.88 64.4874C1244.88 64.0541 1244.98 63.6465 1245.16 63.2768C1244.3 62.5582 1243.22 62.1612 1242.08 62.1612C1239.49 62.1612 1237.38 64.2111 1237.38 66.7307C1237.38 66.8749 1237.4 67.0183 1237.41 67.1615C1238.63 67.284 1239.8 67.6579 1240.85 68.27C1241.31 67.9875 1241.85 67.8176 1242.43 67.8176C1244.08 67.8176 1245.42 69.1214 1245.42 70.7239C1245.42 72.3262 1244.08 73.6299 1242.43 73.6299C1240.78 73.6299 1239.44 72.3261 1239.44 70.7239C1239.44 70.43 1239.5 70.1516 1239.58 69.8839C1238.66 69.388 1237.63 69.1172 1236.55 69.1139C1235.06 69.1935 1233.6 69.857 1232.44 70.9873C1231.23 72.1588 1230.57 73.7162 1230.57 75.3728C1230.57 77.0293 1231.23 78.5866 1232.44 79.7581ZM1241.5 70.7241C1241.5 71.2237 1241.92 71.63 1242.43 71.63C1242.95 71.63 1243.36 71.2237 1243.36 70.7241C1243.36 70.2244 1242.95 69.8179 1242.43 69.8179C1241.92 69.8177 1241.5 70.2243 1241.5 70.7241ZM1247.87 65.3938C1248.38 65.3938 1248.8 64.9872 1248.8 64.4876C1248.8 63.9879 1248.38 63.5816 1247.87 63.5816C1247.35 63.5816 1246.93 63.9879 1246.93 64.4876C1246.93 64.9872 1247.35 65.3938 1247.87 65.3938ZM1253.11 100.204V82.499H1233.37C1233.03 82.7166 1232.72 82.9651 1232.44 83.2399C1231.23 84.4112 1230.57 85.9685 1230.57 87.6251C1230.57 89.2817 1231.23 90.8391 1232.44 92.0106C1233.6 93.1409 1235.06 93.8044 1236.55 93.884C1237.61 93.8807 1238.63 93.62 1239.54 93.1388C1239.48 92.9112 1239.44 92.6768 1239.44 92.4315C1239.44 90.8289 1240.78 89.5251 1242.43 89.5251C1244.08 89.5251 1245.42 90.8289 1245.42 92.4315C1245.42 94.0341 1244.08 95.3379 1242.43 95.3379C1241.79 95.3379 1241.2 95.1364 1240.71 94.8008C1239.7 95.3682 1238.58 95.7192 1237.41 95.8365C1237.4 95.9797 1237.38 96.1231 1237.38 96.2674C1237.38 98.787 1239.49 100.836 1242.08 100.836C1243.19 100.836 1244.26 100.455 1245.1 99.7652C1244.96 99.4261 1244.88 99.0564 1244.88 98.6677C1244.88 97.0652 1246.22 95.7614 1247.87 95.7614C1249.51 95.7614 1250.86 97.0652 1250.86 98.6677C1250.86 100.27 1249.51 101.574 1247.87 101.574C1247.37 101.574 1246.91 101.445 1246.5 101.236C1245.85 101.779 1245.11 102.198 1244.32 102.468C1245.14 103.878 1246.68 104.773 1248.41 104.773C1251 104.773 1253.11 102.724 1253.11 100.204ZM1247.87 99.5741C1248.38 99.5741 1248.8 99.1675 1248.8 98.6679C1248.8 98.1682 1248.38 97.7617 1247.87 97.7617C1247.35 97.7617 1246.93 98.1682 1246.93 98.6679C1246.93 99.1675 1247.35 99.5741 1247.87 99.5741ZM1242.43 93.3379C1242.95 93.3379 1243.36 92.9313 1243.36 92.4316C1243.36 91.932 1242.95 91.5254 1242.43 91.5254C1241.92 91.5254 1241.5 91.932 1241.5 92.4316C1241.5 92.5993 1241.55 92.7544 1241.63 92.8892C1241.65 92.9087 1241.67 92.9252 1241.68 92.9463C1241.7 92.9687 1241.71 92.9933 1241.73 93.0166C1241.9 93.2114 1242.15 93.3379 1242.43 93.3379ZM1281.44 81.5261C1281.44 81.0264 1281.02 80.6198 1280.51 80.6198C1280 80.6198 1279.58 81.0264 1279.58 81.5261C1279.58 82.0257 1280 82.4323 1280.51 82.4323C1281.02 82.4323 1281.44 82.0257 1281.44 81.5261Z"/>
</mask>
<path d="M1257.78 110.795L1258.17 117.033C1258.2 117.55 1257.82 118.005 1257.3 118.082C1255.41 118.359 1253.48 118.5 1251.56 118.5C1249.65 118.5 1247.72 118.359 1245.83 118.082C1245.3 118.005 1244.93 117.55 1244.96 117.033L1245.29 111.677C1241.26 110.891 1237.48 109.371 1234.05 107.148L1230.39 111.163C1230.04 111.55 1229.44 111.612 1229.01 111.305C1225.91 109.088 1223.19 106.436 1220.9 103.423C1220.59 103.006 1220.65 102.425 1221.05 102.081L1225.18 98.5235C1222.89 95.1861 1221.33 91.5191 1220.52 87.5987L1215.01 87.921C1214.48 87.9525 1214.01 87.5844 1213.93 87.0723C1213.64 85.2408 1213.5 83.3658 1213.5 81.4989C1213.5 79.6323 1213.64 77.7573 1213.93 75.9255C1214.01 75.4134 1214.48 75.037 1215.01 75.0768L1220.52 75.3991C1221.33 71.48 1222.89 67.8127 1225.18 64.4753L1221.05 60.9166C1220.65 60.5732 1220.59 59.9915 1220.9 59.5751C1223.18 56.565 1225.91 53.9132 1229.01 51.6928C1229.44 51.3858 1230.04 51.448 1230.39 51.8344L1234.05 55.8498C1237.51 53.619 1241.42 52.0541 1245.48 51.2839L1245.04 45.9743C1245 45.4495 1245.38 44.9818 1245.92 44.9043C1249.64 44.3652 1253.49 44.3652 1257.21 44.9043C1257.75 44.9818 1258.13 45.4496 1258.09 45.9743L1257.57 52.1893C1257.52 52.7401 1257.02 53.1503 1256.46 53.105C1255.89 53.0601 1255.47 52.5776 1255.52 52.0273L1255.96 46.7572C1253.05 46.4128 1250.08 46.4128 1247.17 46.7572L1247.61 52.0268C1247.66 52.546 1247.28 53.0109 1246.75 53.0949C1242.36 53.7915 1238.12 55.4843 1234.48 57.9899C1234.05 58.2849 1233.46 58.2181 1233.11 57.8373L1229.48 53.8537C1227.1 55.6511 1224.97 57.7247 1223.12 60.034L1227.22 63.565C1227.61 63.9035 1227.68 64.4749 1227.38 64.8912C1224.81 68.4236 1223.12 72.3693 1222.38 76.6188C1222.29 77.1218 1221.82 77.4795 1221.3 77.4485L1215.84 77.1288C1215.65 78.5723 1215.56 80.0384 1215.56 81.499C1215.56 82.9599 1215.65 84.4259 1215.84 85.8692L1221.3 85.5495C1221.82 85.5157 1222.29 85.8767 1222.38 86.3793C1223.12 90.6301 1224.81 94.5761 1227.38 98.1078C1227.68 98.5242 1227.61 99.0954 1227.22 99.434L1223.12 102.964C1224.97 105.276 1227.11 107.349 1229.48 109.144L1233.11 105.161C1233.46 104.779 1234.05 104.713 1234.48 105.008C1238.11 107.508 1242.17 109.143 1246.54 109.869C1247.06 109.955 1247.43 110.406 1247.4 110.915L1247.07 116.229C1250.04 116.589 1253.09 116.589 1256.06 116.229L1255.73 110.915C1255.7 110.363 1256.13 109.89 1256.7 109.857C1257.26 109.827 1257.75 110.244 1257.78 110.795ZM1279.87 67.5195C1281.52 67.5195 1282.86 68.8234 1282.86 70.4259C1282.86 72.0285 1281.52 73.3323 1279.87 73.3323C1279.49 73.3323 1279.13 73.2564 1278.8 73.131L1276 75.947C1275.8 76.142 1275.54 76.2524 1275.26 76.2524H1260.97C1260.4 76.2524 1259.94 75.8048 1259.94 75.2524C1259.94 74.7 1260.4 74.2524 1260.97 74.2524H1274.82L1277.25 71.8052C1277.02 71.3928 1276.88 70.9277 1276.88 70.4261C1276.88 68.8232 1278.22 67.5195 1279.87 67.5195ZM1278.93 70.4259C1278.93 70.9256 1279.35 71.3321 1279.87 71.3321C1280.38 71.3321 1280.8 70.9256 1280.8 70.4259C1280.8 69.9263 1280.38 69.5197 1279.87 69.5197C1279.35 69.5196 1278.93 69.9261 1278.93 70.4259ZM1268.7 64.8892L1272.51 59.5583C1272.12 59.0691 1271.89 58.4651 1271.89 57.8029C1271.89 56.2003 1273.23 54.8965 1274.87 54.8965C1276.52 54.8965 1277.86 56.2003 1277.86 57.8029C1277.86 59.4054 1276.52 60.7092 1274.87 60.7092C1274.66 60.7092 1274.45 60.6835 1274.24 60.6403L1270.08 66.4604C1269.89 66.729 1269.57 66.8895 1269.23 66.8895H1257.92C1257.35 66.8895 1256.89 66.4419 1256.89 65.8895C1256.89 65.3371 1257.35 64.8895 1257.92 64.8895L1268.7 64.8892ZM1273.94 57.8029C1273.94 58.3025 1274.36 58.7091 1274.87 58.7091C1275.39 58.7091 1275.81 58.3025 1275.81 57.8029C1275.81 57.3032 1275.39 56.8967 1274.87 56.8967C1274.36 56.8965 1273.94 57.3031 1273.94 57.8029ZM1277.62 105.196C1277.62 106.798 1276.28 108.102 1274.63 108.102C1272.98 108.102 1271.64 106.798 1271.64 105.196C1271.64 104.412 1271.96 103.703 1272.48 103.179L1268.69 97.8852H1257.92C1257.35 97.8852 1256.89 97.4376 1256.89 96.8852C1256.89 96.3328 1257.35 95.8852 1257.92 95.8852H1269.23C1269.57 95.8852 1269.89 96.0456 1270.08 96.3143L1274.37 102.315C1274.46 102.307 1274.54 102.289 1274.63 102.289C1276.28 102.289 1277.62 103.593 1277.62 105.196ZM1275.56 105.196C1275.56 104.696 1275.14 104.289 1274.63 104.289C1274.11 104.289 1273.69 104.696 1273.69 105.196C1273.69 105.695 1274.11 106.102 1274.63 106.102C1275.14 106.102 1275.56 105.695 1275.56 105.196ZM1282.61 92.8506C1282.61 94.4532 1281.27 95.757 1279.62 95.757C1277.97 95.757 1276.63 94.4532 1276.63 92.8506C1276.63 92.2267 1276.84 91.6518 1277.18 91.1777L1274.82 88.8004H1260.97C1260.4 88.8004 1259.94 88.3528 1259.94 87.8004C1259.94 87.248 1260.4 86.8004 1260.97 86.8004H1275.26C1275.54 86.8004 1275.8 86.9109 1276 87.1058L1278.91 90.0363C1279.14 89.9817 1279.37 89.9444 1279.62 89.9444C1281.27 89.9443 1282.61 91.2479 1282.61 92.8506ZM1280.55 92.8506C1280.55 92.351 1280.13 91.9444 1279.62 91.9444C1279.11 91.9444 1278.69 92.351 1278.69 92.8506C1278.69 93.3503 1279.11 93.7569 1279.62 93.7569C1280.13 93.7569 1280.55 93.3503 1280.55 92.8506ZM1283.5 81.5261C1283.5 83.1286 1282.16 84.4324 1280.51 84.4324C1279.22 84.4324 1278.14 83.6352 1277.71 82.5258H1255.16V100.204C1255.16 103.826 1252.13 106.773 1248.41 106.773C1245.68 106.773 1243.27 105.218 1242.21 102.835C1242.17 102.836 1242.13 102.837 1242.08 102.837C1238.36 102.837 1235.33 99.8896 1235.33 96.2674C1235.33 96.0939 1235.33 95.9203 1235.35 95.7475C1233.74 95.4353 1232.22 94.6326 1230.98 93.4249C1229.39 91.8756 1228.51 89.8161 1228.51 87.6253C1228.51 85.4345 1229.39 83.3749 1230.98 81.826C1231.1 81.7098 1231.23 81.6079 1231.36 81.4992C1231.23 81.3903 1231.1 81.2884 1230.98 81.1724C1229.39 79.6232 1228.51 77.5636 1228.51 75.3731C1228.51 73.1823 1229.39 71.1227 1230.98 69.5735C1232.22 68.3658 1233.74 67.563 1235.35 67.2509C1235.33 67.078 1235.33 66.9046 1235.33 66.731C1235.33 63.1085 1238.36 60.1615 1242.08 60.1615C1242.13 60.1615 1242.17 60.1618 1242.21 60.1628C1243.27 57.7799 1245.68 56.2252 1248.41 56.2252C1252.13 56.2252 1255.16 59.1721 1255.16 62.7944V80.5259H1277.71C1278.14 79.4168 1279.22 78.62 1280.51 78.62C1282.16 78.6198 1283.5 79.9235 1283.5 81.5261ZM1232.44 79.7581C1232.72 80.0356 1233.05 80.2792 1233.39 80.499H1253.11V62.7941C1253.11 60.2745 1251 58.225 1248.41 58.225C1246.68 58.225 1245.14 59.1203 1244.32 60.5297C1245.15 60.813 1245.92 61.2544 1246.59 61.8364C1246.6 61.8432 1246.6 61.8529 1246.61 61.8598C1246.99 61.6858 1247.42 61.5815 1247.87 61.5815C1249.51 61.5815 1250.86 62.8853 1250.86 64.4874C1250.86 66.09 1249.51 67.3938 1247.87 67.3938C1246.22 67.3938 1244.88 66.09 1244.88 64.4874C1244.88 64.0541 1244.98 63.6465 1245.16 63.2768C1244.3 62.5582 1243.22 62.1612 1242.08 62.1612C1239.49 62.1612 1237.38 64.2111 1237.38 66.7307C1237.38 66.8749 1237.4 67.0183 1237.41 67.1615C1238.63 67.284 1239.8 67.6579 1240.85 68.27C1241.31 67.9875 1241.85 67.8176 1242.43 67.8176C1244.08 67.8176 1245.42 69.1214 1245.42 70.7239C1245.42 72.3262 1244.08 73.6299 1242.43 73.6299C1240.78 73.6299 1239.44 72.3261 1239.44 70.7239C1239.44 70.43 1239.5 70.1516 1239.58 69.8839C1238.66 69.388 1237.63 69.1172 1236.55 69.1139C1235.06 69.1935 1233.6 69.857 1232.44 70.9873C1231.23 72.1588 1230.57 73.7162 1230.57 75.3728C1230.57 77.0293 1231.23 78.5866 1232.44 79.7581ZM1241.5 70.7241C1241.5 71.2237 1241.92 71.63 1242.43 71.63C1242.95 71.63 1243.36 71.2237 1243.36 70.7241C1243.36 70.2244 1242.95 69.8179 1242.43 69.8179C1241.92 69.8177 1241.5 70.2243 1241.5 70.7241ZM1247.87 65.3938C1248.38 65.3938 1248.8 64.9872 1248.8 64.4876C1248.8 63.9879 1248.38 63.5816 1247.87 63.5816C1247.35 63.5816 1246.93 63.9879 1246.93 64.4876C1246.93 64.9872 1247.35 65.3938 1247.87 65.3938ZM1253.11 100.204V82.499H1233.37C1233.03 82.7166 1232.72 82.9651 1232.44 83.2399C1231.23 84.4112 1230.57 85.9685 1230.57 87.6251C1230.57 89.2817 1231.23 90.8391 1232.44 92.0106C1233.6 93.1409 1235.06 93.8044 1236.55 93.884C1237.61 93.8807 1238.63 93.62 1239.54 93.1388C1239.48 92.9112 1239.44 92.6768 1239.44 92.4315C1239.44 90.8289 1240.78 89.5251 1242.43 89.5251C1244.08 89.5251 1245.42 90.8289 1245.42 92.4315C1245.42 94.0341 1244.08 95.3379 1242.43 95.3379C1241.79 95.3379 1241.2 95.1364 1240.71 94.8008C1239.7 95.3682 1238.58 95.7192 1237.41 95.8365C1237.4 95.9797 1237.38 96.1231 1237.38 96.2674C1237.38 98.787 1239.49 100.836 1242.08 100.836C1243.19 100.836 1244.26 100.455 1245.1 99.7652C1244.96 99.4261 1244.88 99.0564 1244.88 98.6677C1244.88 97.0652 1246.22 95.7614 1247.87 95.7614C1249.51 95.7614 1250.86 97.0652 1250.86 98.6677C1250.86 100.27 1249.51 101.574 1247.87 101.574C1247.37 101.574 1246.91 101.445 1246.5 101.236C1245.85 101.779 1245.11 102.198 1244.32 102.468C1245.14 103.878 1246.68 104.773 1248.41 104.773C1251 104.773 1253.11 102.724 1253.11 100.204ZM1247.87 99.5741C1248.38 99.5741 1248.8 99.1675 1248.8 98.6679C1248.8 98.1682 1248.38 97.7617 1247.87 97.7617C1247.35 97.7617 1246.93 98.1682 1246.93 98.6679C1246.93 99.1675 1247.35 99.5741 1247.87 99.5741ZM1242.43 93.3379C1242.95 93.3379 1243.36 92.9313 1243.36 92.4316C1243.36 91.932 1242.95 91.5254 1242.43 91.5254C1241.92 91.5254 1241.5 91.932 1241.5 92.4316C1241.5 92.5993 1241.55 92.7544 1241.63 92.8892C1241.65 92.9087 1241.67 92.9252 1241.68 92.9463C1241.7 92.9687 1241.71 92.9933 1241.73 93.0166C1241.9 93.2114 1242.15 93.3379 1242.43 93.3379ZM1281.44 81.5261C1281.44 81.0264 1281.02 80.6198 1280.51 80.6198C1280 80.6198 1279.58 81.0264 1279.58 81.5261C1279.58 82.0257 1280 82.4323 1280.51 82.4323C1281.02 82.4323 1281.44 82.0257 1281.44 81.5261Z" fill="white"/>
<path d="M1257.78 110.795L1258.17 117.033C1258.2 117.55 1257.82 118.005 1257.3 118.082C1255.41 118.359 1253.48 118.5 1251.56 118.5C1249.65 118.5 1247.72 118.359 1245.83 118.082C1245.3 118.005 1244.93 117.55 1244.96 117.033L1245.29 111.677C1241.26 110.891 1237.48 109.371 1234.05 107.148L1230.39 111.163C1230.04 111.55 1229.44 111.612 1229.01 111.305C1225.91 109.088 1223.19 106.436 1220.9 103.423C1220.59 103.006 1220.65 102.425 1221.05 102.081L1225.18 98.5235C1222.89 95.1861 1221.33 91.5191 1220.52 87.5987L1215.01 87.921C1214.48 87.9525 1214.01 87.5844 1213.93 87.0723C1213.64 85.2408 1213.5 83.3658 1213.5 81.4989C1213.5 79.6323 1213.64 77.7573 1213.93 75.9255C1214.01 75.4134 1214.48 75.037 1215.01 75.0768L1220.52 75.3991C1221.33 71.48 1222.89 67.8127 1225.18 64.4753L1221.05 60.9166C1220.65 60.5732 1220.59 59.9915 1220.9 59.5751C1223.18 56.565 1225.91 53.9132 1229.01 51.6928C1229.44 51.3858 1230.04 51.448 1230.39 51.8344L1234.05 55.8498C1237.51 53.619 1241.42 52.0541 1245.48 51.2839L1245.04 45.9743C1245 45.4495 1245.38 44.9818 1245.92 44.9043C1249.64 44.3652 1253.49 44.3652 1257.21 44.9043C1257.75 44.9818 1258.13 45.4496 1258.09 45.9743L1257.57 52.1893C1257.52 52.7401 1257.02 53.1503 1256.46 53.105C1255.89 53.0601 1255.47 52.5776 1255.52 52.0273L1255.96 46.7572C1253.05 46.4128 1250.08 46.4128 1247.17 46.7572L1247.61 52.0268C1247.66 52.546 1247.28 53.0109 1246.75 53.0949C1242.36 53.7915 1238.12 55.4843 1234.48 57.9899C1234.05 58.2849 1233.46 58.2181 1233.11 57.8373L1229.48 53.8537C1227.1 55.6511 1224.97 57.7247 1223.12 60.034L1227.22 63.565C1227.61 63.9035 1227.68 64.4749 1227.38 64.8912C1224.81 68.4236 1223.12 72.3693 1222.38 76.6188C1222.29 77.1218 1221.82 77.4795 1221.3 77.4485L1215.84 77.1288C1215.65 78.5723 1215.56 80.0384 1215.56 81.499C1215.56 82.9599 1215.65 84.4259 1215.84 85.8692L1221.3 85.5495C1221.82 85.5157 1222.29 85.8767 1222.38 86.3793C1223.12 90.6301 1224.81 94.5761 1227.38 98.1078C1227.68 98.5242 1227.61 99.0954 1227.22 99.434L1223.12 102.964C1224.97 105.276 1227.11 107.349 1229.48 109.144L1233.11 105.161C1233.46 104.779 1234.05 104.713 1234.48 105.008C1238.11 107.508 1242.17 109.143 1246.54 109.869C1247.06 109.955 1247.43 110.406 1247.4 110.915L1247.07 116.229C1250.04 116.589 1253.09 116.589 1256.06 116.229L1255.73 110.915C1255.7 110.363 1256.13 109.89 1256.7 109.857C1257.26 109.827 1257.75 110.244 1257.78 110.795ZM1279.87 67.5195C1281.52 67.5195 1282.86 68.8234 1282.86 70.4259C1282.86 72.0285 1281.52 73.3323 1279.87 73.3323C1279.49 73.3323 1279.13 73.2564 1278.8 73.131L1276 75.947C1275.8 76.142 1275.54 76.2524 1275.26 76.2524H1260.97C1260.4 76.2524 1259.94 75.8048 1259.94 75.2524C1259.94 74.7 1260.4 74.2524 1260.97 74.2524H1274.82L1277.25 71.8052C1277.02 71.3928 1276.88 70.9277 1276.88 70.4261C1276.88 68.8232 1278.22 67.5195 1279.87 67.5195ZM1278.93 70.4259C1278.93 70.9256 1279.35 71.3321 1279.87 71.3321C1280.38 71.3321 1280.8 70.9256 1280.8 70.4259C1280.8 69.9263 1280.38 69.5197 1279.87 69.5197C1279.35 69.5196 1278.93 69.9261 1278.93 70.4259ZM1268.7 64.8892L1272.51 59.5583C1272.12 59.0691 1271.89 58.4651 1271.89 57.8029C1271.89 56.2003 1273.23 54.8965 1274.87 54.8965C1276.52 54.8965 1277.86 56.2003 1277.86 57.8029C1277.86 59.4054 1276.52 60.7092 1274.87 60.7092C1274.66 60.7092 1274.45 60.6835 1274.24 60.6403L1270.08 66.4604C1269.89 66.729 1269.57 66.8895 1269.23 66.8895H1257.92C1257.35 66.8895 1256.89 66.4419 1256.89 65.8895C1256.89 65.3371 1257.35 64.8895 1257.92 64.8895L1268.7 64.8892ZM1273.94 57.8029C1273.94 58.3025 1274.36 58.7091 1274.87 58.7091C1275.39 58.7091 1275.81 58.3025 1275.81 57.8029C1275.81 57.3032 1275.39 56.8967 1274.87 56.8967C1274.36 56.8965 1273.94 57.3031 1273.94 57.8029ZM1277.62 105.196C1277.62 106.798 1276.28 108.102 1274.63 108.102C1272.98 108.102 1271.64 106.798 1271.64 105.196C1271.64 104.412 1271.96 103.703 1272.48 103.179L1268.69 97.8852H1257.92C1257.35 97.8852 1256.89 97.4376 1256.89 96.8852C1256.89 96.3328 1257.35 95.8852 1257.92 95.8852H1269.23C1269.57 95.8852 1269.89 96.0456 1270.08 96.3143L1274.37 102.315C1274.46 102.307 1274.54 102.289 1274.63 102.289C1276.28 102.289 1277.62 103.593 1277.62 105.196ZM1275.56 105.196C1275.56 104.696 1275.14 104.289 1274.63 104.289C1274.11 104.289 1273.69 104.696 1273.69 105.196C1273.69 105.695 1274.11 106.102 1274.63 106.102C1275.14 106.102 1275.56 105.695 1275.56 105.196ZM1282.61 92.8506C1282.61 94.4532 1281.27 95.757 1279.62 95.757C1277.97 95.757 1276.63 94.4532 1276.63 92.8506C1276.63 92.2267 1276.84 91.6518 1277.18 91.1777L1274.82 88.8004H1260.97C1260.4 88.8004 1259.94 88.3528 1259.94 87.8004C1259.94 87.248 1260.4 86.8004 1260.97 86.8004H1275.26C1275.54 86.8004 1275.8 86.9109 1276 87.1058L1278.91 90.0363C1279.14 89.9817 1279.37 89.9444 1279.62 89.9444C1281.27 89.9443 1282.61 91.2479 1282.61 92.8506ZM1280.55 92.8506C1280.55 92.351 1280.13 91.9444 1279.62 91.9444C1279.11 91.9444 1278.69 92.351 1278.69 92.8506C1278.69 93.3503 1279.11 93.7569 1279.62 93.7569C1280.13 93.7569 1280.55 93.3503 1280.55 92.8506ZM1283.5 81.5261C1283.5 83.1286 1282.16 84.4324 1280.51 84.4324C1279.22 84.4324 1278.14 83.6352 1277.71 82.5258H1255.16V100.204C1255.16 103.826 1252.13 106.773 1248.41 106.773C1245.68 106.773 1243.27 105.218 1242.21 102.835C1242.17 102.836 1242.13 102.837 1242.08 102.837C1238.36 102.837 1235.33 99.8896 1235.33 96.2674C1235.33 96.0939 1235.33 95.9203 1235.35 95.7475C1233.74 95.4353 1232.22 94.6326 1230.98 93.4249C1229.39 91.8756 1228.51 89.8161 1228.51 87.6253C1228.51 85.4345 1229.39 83.3749 1230.98 81.826C1231.1 81.7098 1231.23 81.6079 1231.36 81.4992C1231.23 81.3903 1231.1 81.2884 1230.98 81.1724C1229.39 79.6232 1228.51 77.5636 1228.51 75.3731C1228.51 73.1823 1229.39 71.1227 1230.98 69.5735C1232.22 68.3658 1233.74 67.563 1235.35 67.2509C1235.33 67.078 1235.33 66.9046 1235.33 66.731C1235.33 63.1085 1238.36 60.1615 1242.08 60.1615C1242.13 60.1615 1242.17 60.1618 1242.21 60.1628C1243.27 57.7799 1245.68 56.2252 1248.41 56.2252C1252.13 56.2252 1255.16 59.1721 1255.16 62.7944V80.5259H1277.71C1278.14 79.4168 1279.22 78.62 1280.51 78.62C1282.16 78.6198 1283.5 79.9235 1283.5 81.5261ZM1232.44 79.7581C1232.72 80.0356 1233.05 80.2792 1233.39 80.499H1253.11V62.7941C1253.11 60.2745 1251 58.225 1248.41 58.225C1246.68 58.225 1245.14 59.1203 1244.32 60.5297C1245.15 60.813 1245.92 61.2544 1246.59 61.8364C1246.6 61.8432 1246.6 61.8529 1246.61 61.8598C1246.99 61.6858 1247.42 61.5815 1247.87 61.5815C1249.51 61.5815 1250.86 62.8853 1250.86 64.4874C1250.86 66.09 1249.51 67.3938 1247.87 67.3938C1246.22 67.3938 1244.88 66.09 1244.88 64.4874C1244.88 64.0541 1244.98 63.6465 1245.16 63.2768C1244.3 62.5582 1243.22 62.1612 1242.08 62.1612C1239.49 62.1612 1237.38 64.2111 1237.38 66.7307C1237.38 66.8749 1237.4 67.0183 1237.41 67.1615C1238.63 67.284 1239.8 67.6579 1240.85 68.27C1241.31 67.9875 1241.85 67.8176 1242.43 67.8176C1244.08 67.8176 1245.42 69.1214 1245.42 70.7239C1245.42 72.3262 1244.08 73.6299 1242.43 73.6299C1240.78 73.6299 1239.44 72.3261 1239.44 70.7239C1239.44 70.43 1239.5 70.1516 1239.58 69.8839C1238.66 69.388 1237.63 69.1172 1236.55 69.1139C1235.06 69.1935 1233.6 69.857 1232.44 70.9873C1231.23 72.1588 1230.57 73.7162 1230.57 75.3728C1230.57 77.0293 1231.23 78.5866 1232.44 79.7581ZM1241.5 70.7241C1241.5 71.2237 1241.92 71.63 1242.43 71.63C1242.95 71.63 1243.36 71.2237 1243.36 70.7241C1243.36 70.2244 1242.95 69.8179 1242.43 69.8179C1241.92 69.8177 1241.5 70.2243 1241.5 70.7241ZM1247.87 65.3938C1248.38 65.3938 1248.8 64.9872 1248.8 64.4876C1248.8 63.9879 1248.38 63.5816 1247.87 63.5816C1247.35 63.5816 1246.93 63.9879 1246.93 64.4876C1246.93 64.9872 1247.35 65.3938 1247.87 65.3938ZM1253.11 100.204V82.499H1233.37C1233.03 82.7166 1232.72 82.9651 1232.44 83.2399C1231.23 84.4112 1230.57 85.9685 1230.57 87.6251C1230.57 89.2817 1231.23 90.8391 1232.44 92.0106C1233.6 93.1409 1235.06 93.8044 1236.55 93.884C1237.61 93.8807 1238.63 93.62 1239.54 93.1388C1239.48 92.9112 1239.44 92.6768 1239.44 92.4315C1239.44 90.8289 1240.78 89.5251 1242.43 89.5251C1244.08 89.5251 1245.42 90.8289 1245.42 92.4315C1245.42 94.0341 1244.08 95.3379 1242.43 95.3379C1241.79 95.3379 1241.2 95.1364 1240.71 94.8008C1239.7 95.3682 1238.58 95.7192 1237.41 95.8365C1237.4 95.9797 1237.38 96.1231 1237.38 96.2674C1237.38 98.787 1239.49 100.836 1242.08 100.836C1243.19 100.836 1244.26 100.455 1245.1 99.7652C1244.96 99.4261 1244.88 99.0564 1244.88 98.6677C1244.88 97.0652 1246.22 95.7614 1247.87 95.7614C1249.51 95.7614 1250.86 97.0652 1250.86 98.6677C1250.86 100.27 1249.51 101.574 1247.87 101.574C1247.37 101.574 1246.91 101.445 1246.5 101.236C1245.85 101.779 1245.11 102.198 1244.32 102.468C1245.14 103.878 1246.68 104.773 1248.41 104.773C1251 104.773 1253.11 102.724 1253.11 100.204ZM1247.87 99.5741C1248.38 99.5741 1248.8 99.1675 1248.8 98.6679C1248.8 98.1682 1248.38 97.7617 1247.87 97.7617C1247.35 97.7617 1246.93 98.1682 1246.93 98.6679C1246.93 99.1675 1247.35 99.5741 1247.87 99.5741ZM1242.43 93.3379C1242.95 93.3379 1243.36 92.9313 1243.36 92.4316C1243.36 91.932 1242.95 91.5254 1242.43 91.5254C1241.92 91.5254 1241.5 91.932 1241.5 92.4316C1241.5 92.5993 1241.55 92.7544 1241.63 92.8892C1241.65 92.9087 1241.67 92.9252 1241.68 92.9463C1241.7 92.9687 1241.71 92.9933 1241.73 93.0166C1241.9 93.2114 1242.15 93.3379 1242.43 93.3379ZM1281.44 81.5261C1281.44 81.0264 1281.02 80.6198 1280.51 80.6198C1280 80.6198 1279.58 81.0264 1279.58 81.5261C1279.58 82.0257 1280 82.4323 1280.51 82.4323C1281.02 82.4323 1281.44 82.0257 1281.44 81.5261Z" stroke="white" mask="url(#path-5-outside-1_3_82)"/>
</svg>
