<svg width="1363" height="163" viewBox="0 0 1363 163" fill="none" xmlns="http://www.w3.org/2000/svg">
<path d="M0 15C0 6.71573 6.71573 0 15 0H37V163H15C6.71573 163 0 156.284 0 148V15Z" fill="#424242"/>
<rect width="1097" height="163" transform="translate(37)" fill="#F0F0F0"/>
<path d="M101.906 53.9219L94.3945 51.2383V48.0859L104.602 52.375V54.6367L101.906 53.9219ZM94.3945 56.1719L101.918 53.4297L104.602 52.7852V55.0352L94.3945 59.3242V56.1719ZM122.789 55.3398H126.293C126.223 56.4883 125.906 57.5078 125.344 58.3984C124.789 59.2891 124.012 59.9844 123.012 60.4844C122.02 60.9844 120.824 61.2344 119.426 61.2344C118.332 61.2344 117.352 61.0469 116.484 60.6719C115.617 60.2891 114.875 59.7422 114.258 59.0312C113.648 58.3203 113.184 57.4609 112.863 56.4531C112.543 55.4453 112.383 54.3164 112.383 53.0664V51.8828C112.383 50.6328 112.547 49.5039 112.875 48.4961C113.211 47.4805 113.688 46.6172 114.305 45.9062C114.93 45.1953 115.676 44.6484 116.543 44.2656C117.41 43.8828 118.379 43.6914 119.449 43.6914C120.871 43.6914 122.07 43.9492 123.047 44.4648C124.031 44.9805 124.793 45.6914 125.332 46.5977C125.879 47.5039 126.207 48.5352 126.316 49.6914H122.801C122.762 49.0039 122.625 48.4219 122.391 47.9453C122.156 47.4609 121.801 47.0977 121.324 46.8555C120.855 46.6055 120.23 46.4805 119.449 46.4805C118.863 46.4805 118.352 46.5898 117.914 46.8086C117.477 47.0273 117.109 47.3594 116.812 47.8047C116.516 48.25 116.293 48.8125 116.145 49.4922C116.004 50.1641 115.934 50.9531 115.934 51.8594V53.0664C115.934 53.9492 116 54.7266 116.133 55.3984C116.266 56.0625 116.469 56.625 116.742 57.0859C117.023 57.5391 117.383 57.8828 117.82 58.1172C118.266 58.3438 118.801 58.457 119.426 58.457C120.16 58.457 120.766 58.3398 121.242 58.1055C121.719 57.8711 122.082 57.5234 122.332 57.0625C122.59 56.6016 122.742 56.0273 122.789 55.3398ZM135.234 58.1406V52.4922C135.234 52.0859 135.168 51.7383 135.035 51.4492C134.902 51.1523 134.695 50.9219 134.414 50.7578C134.141 50.5938 133.785 50.5117 133.348 50.5117C132.973 50.5117 132.648 50.5781 132.375 50.7109C132.102 50.8359 131.891 51.0195 131.742 51.2617C131.594 51.4961 131.52 51.7734 131.52 52.0938H128.145C128.145 51.5547 128.27 51.043 128.52 50.5586C128.77 50.0742 129.133 49.6484 129.609 49.2812C130.086 48.9062 130.652 48.6133 131.309 48.4023C131.973 48.1914 132.715 48.0859 133.535 48.0859C134.52 48.0859 135.395 48.25 136.16 48.5781C136.926 48.9062 137.527 49.3984 137.965 50.0547C138.41 50.7109 138.633 51.5312 138.633 52.5156V57.9414C138.633 58.6367 138.676 59.207 138.762 59.6523C138.848 60.0898 138.973 60.4727 139.137 60.8008V61H135.727C135.562 60.6562 135.438 60.2266 135.352 59.7109C135.273 59.1875 135.234 58.6641 135.234 58.1406ZM135.68 53.2773L135.703 55.1875H133.816C133.371 55.1875 132.984 55.2383 132.656 55.3398C132.328 55.4414 132.059 55.5859 131.848 55.7734C131.637 55.9531 131.48 56.1641 131.379 56.4062C131.285 56.6484 131.238 56.9141 131.238 57.2031C131.238 57.4922 131.305 57.7539 131.438 57.9883C131.57 58.2148 131.762 58.3945 132.012 58.5273C132.262 58.6523 132.555 58.7148 132.891 58.7148C133.398 58.7148 133.84 58.6133 134.215 58.4102C134.59 58.207 134.879 57.957 135.082 57.6602C135.293 57.3633 135.402 57.082 135.41 56.8164L136.301 58.2461C136.176 58.5664 136.004 58.8984 135.785 59.2422C135.574 59.5859 135.305 59.9102 134.977 60.2148C134.648 60.5117 134.254 60.7578 133.793 60.9531C133.332 61.1406 132.785 61.2344 132.152 61.2344C131.348 61.2344 130.617 61.0742 129.961 60.7539C129.312 60.4258 128.797 59.9766 128.414 59.4062C128.039 58.8281 127.852 58.1719 127.852 57.4375C127.852 56.7734 127.977 56.1836 128.227 55.668C128.477 55.1523 128.844 54.7188 129.328 54.3672C129.82 54.0078 130.434 53.7383 131.168 53.5586C131.902 53.3711 132.754 53.2773 133.723 53.2773H135.68ZM144.609 51.0859V61H141.234V48.3203H144.41L144.609 51.0859ZM148.43 48.2383L148.371 51.3672C148.207 51.3438 148.008 51.3242 147.773 51.3086C147.547 51.2852 147.34 51.2734 147.152 51.2734C146.676 51.2734 146.262 51.3359 145.91 51.4609C145.566 51.5781 145.277 51.7539 145.043 51.9883C144.816 52.2227 144.645 52.5078 144.527 52.8438C144.418 53.1797 144.355 53.5625 144.34 53.9922L143.66 53.7812C143.66 52.9609 143.742 52.207 143.906 51.5195C144.07 50.8242 144.309 50.2188 144.621 49.7031C144.941 49.1875 145.332 48.7891 145.793 48.5078C146.254 48.2266 146.781 48.0859 147.375 48.0859C147.562 48.0859 147.754 48.1016 147.949 48.1328C148.145 48.1562 148.305 48.1914 148.43 48.2383ZM157.816 48.3203H160.875V60.5781C160.875 61.7344 160.617 62.7148 160.102 63.5195C159.594 64.332 158.883 64.9453 157.969 65.3594C157.055 65.7812 155.992 65.9922 154.781 65.9922C154.25 65.9922 153.688 65.9219 153.094 65.7812C152.508 65.6406 151.945 65.4219 151.406 65.125C150.875 64.8281 150.43 64.4531 150.07 64L151.559 62.0078C151.949 62.4609 152.402 62.8125 152.918 63.0625C153.434 63.3203 154.004 63.4492 154.629 63.4492C155.238 63.4492 155.754 63.3359 156.176 63.1094C156.598 62.8906 156.922 62.5664 157.148 62.1367C157.375 61.7148 157.488 61.2031 157.488 60.6016V51.25L157.816 48.3203ZM149.285 54.8125V54.5664C149.285 53.5977 149.402 52.7188 149.637 51.9297C149.879 51.1328 150.219 50.4492 150.656 49.8789C151.102 49.3086 151.641 48.8672 152.273 48.5547C152.906 48.2422 153.621 48.0859 154.418 48.0859C155.262 48.0859 155.969 48.2422 156.539 48.5547C157.109 48.8672 157.578 49.3125 157.945 49.8906C158.312 50.4609 158.598 51.1367 158.801 51.918C159.012 52.6914 159.176 53.5391 159.293 54.4609V55C159.176 55.8828 159 56.7031 158.766 57.4609C158.531 58.2188 158.223 58.8828 157.84 59.4531C157.457 60.0156 156.98 60.4531 156.41 60.7656C155.848 61.0781 155.176 61.2344 154.395 61.2344C153.613 61.2344 152.906 61.0742 152.273 60.7539C151.648 60.4336 151.113 59.9844 150.668 59.4062C150.223 58.8281 149.879 58.1484 149.637 57.3672C149.402 56.5859 149.285 55.7344 149.285 54.8125ZM152.66 54.5664V54.8125C152.66 55.3359 152.711 55.8242 152.812 56.2773C152.914 56.7305 153.07 57.1328 153.281 57.4844C153.5 57.8281 153.77 58.0977 154.09 58.293C154.418 58.4805 154.805 58.5742 155.25 58.5742C155.867 58.5742 156.371 58.4453 156.762 58.1875C157.152 57.9219 157.445 57.5586 157.641 57.0977C157.836 56.6367 157.949 56.1055 157.98 55.5039V53.9688C157.965 53.4766 157.898 53.0352 157.781 52.6445C157.664 52.2461 157.5 51.9062 157.289 51.625C157.078 51.3438 156.805 51.125 156.469 50.9688C156.133 50.8125 155.734 50.7344 155.273 50.7344C154.828 50.7344 154.441 50.8359 154.113 51.0391C153.793 51.2344 153.523 51.5039 153.305 51.8477C153.094 52.1914 152.934 52.5977 152.824 53.0664C152.715 53.5273 152.66 54.0273 152.66 54.5664ZM162.961 54.7891V54.543C162.961 53.6133 163.094 52.7578 163.359 51.9766C163.625 51.1875 164.012 50.5039 164.52 49.9258C165.027 49.3477 165.652 48.8984 166.395 48.5781C167.137 48.25 167.988 48.0859 168.949 48.0859C169.91 48.0859 170.766 48.25 171.516 48.5781C172.266 48.8984 172.895 49.3477 173.402 49.9258C173.918 50.5039 174.309 51.1875 174.574 51.9766C174.84 52.7578 174.973 53.6133 174.973 54.543V54.7891C174.973 55.7109 174.84 56.5664 174.574 57.3555C174.309 58.1367 173.918 58.8203 173.402 59.4062C172.895 59.9844 172.27 60.4336 171.527 60.7539C170.785 61.0742 169.934 61.2344 168.973 61.2344C168.012 61.2344 167.156 61.0742 166.406 60.7539C165.664 60.4336 165.035 59.9844 164.52 59.4062C164.012 58.8203 163.625 58.1367 163.359 57.3555C163.094 56.5664 162.961 55.7109 162.961 54.7891ZM166.336 54.543V54.7891C166.336 55.3203 166.383 55.8164 166.477 56.2773C166.57 56.7383 166.719 57.1445 166.922 57.4961C167.133 57.8398 167.406 58.1094 167.742 58.3047C168.078 58.5 168.488 58.5977 168.973 58.5977C169.441 58.5977 169.844 58.5 170.18 58.3047C170.516 58.1094 170.785 57.8398 170.988 57.4961C171.191 57.1445 171.34 56.7383 171.434 56.2773C171.535 55.8164 171.586 55.3203 171.586 54.7891V54.543C171.586 54.0273 171.535 53.543 171.434 53.0898C171.34 52.6289 171.188 52.2227 170.977 51.8711C170.773 51.5117 170.504 51.2305 170.168 51.0273C169.832 50.8242 169.426 50.7227 168.949 50.7227C168.473 50.7227 168.066 50.8242 167.73 51.0273C167.402 51.2305 167.133 51.5117 166.922 51.8711C166.719 52.2227 166.57 52.6289 166.477 53.0898C166.383 53.543 166.336 54.0273 166.336 54.543ZM192.117 56.5352C192.117 56.2305 192.07 55.957 191.977 55.7148C191.891 55.4648 191.727 55.2383 191.484 55.0352C191.242 54.8242 190.902 54.6172 190.465 54.4141C190.027 54.2109 189.461 54 188.766 53.7812C187.992 53.5312 187.258 53.25 186.562 52.9375C185.875 52.625 185.266 52.2617 184.734 51.8477C184.211 51.4258 183.797 50.9375 183.492 50.3828C183.195 49.8281 183.047 49.1836 183.047 48.4492C183.047 47.7383 183.203 47.0938 183.516 46.5156C183.828 45.9297 184.266 45.4297 184.828 45.0156C185.391 44.5938 186.055 44.2695 186.82 44.043C187.594 43.8164 188.441 43.7031 189.363 43.7031C190.621 43.7031 191.719 43.9297 192.656 44.3828C193.594 44.8359 194.32 45.457 194.836 46.2461C195.359 47.0352 195.621 47.9375 195.621 48.9531H192.129C192.129 48.4531 192.023 48.0156 191.812 47.6406C191.609 47.2578 191.297 46.957 190.875 46.7383C190.461 46.5195 189.938 46.4102 189.305 46.4102C188.695 46.4102 188.188 46.5039 187.781 46.6914C187.375 46.8711 187.07 47.1172 186.867 47.4297C186.664 47.7344 186.562 48.0781 186.562 48.4609C186.562 48.75 186.633 49.0117 186.773 49.2461C186.922 49.4805 187.141 49.6992 187.43 49.9023C187.719 50.1055 188.074 50.2969 188.496 50.4766C188.918 50.6562 189.406 50.832 189.961 51.0039C190.891 51.2852 191.707 51.6016 192.41 51.9531C193.121 52.3047 193.715 52.6992 194.191 53.1367C194.668 53.5742 195.027 54.0703 195.27 54.625C195.512 55.1797 195.633 55.8086 195.633 56.5117C195.633 57.2539 195.488 57.918 195.199 58.5039C194.91 59.0898 194.492 59.5859 193.945 59.9922C193.398 60.3984 192.746 60.707 191.988 60.918C191.23 61.1289 190.383 61.2344 189.445 61.2344C188.602 61.2344 187.77 61.125 186.949 60.9062C186.129 60.6797 185.383 60.3398 184.711 59.8867C184.047 59.4336 183.516 58.8555 183.117 58.1523C182.719 57.4492 182.52 56.6172 182.52 55.6562H186.047C186.047 56.1875 186.129 56.6367 186.293 57.0039C186.457 57.3711 186.688 57.668 186.984 57.8945C187.289 58.1211 187.648 58.2852 188.062 58.3867C188.484 58.4883 188.945 58.5391 189.445 58.5391C190.055 58.5391 190.555 58.4531 190.945 58.2812C191.344 58.1094 191.637 57.8711 191.824 57.5664C192.02 57.2617 192.117 56.918 192.117 56.5352ZM201.188 50.9453V61H197.801V48.3203H200.977L201.188 50.9453ZM200.719 54.2148H199.781C199.781 53.332 199.887 52.5195 200.098 51.7773C200.316 51.0273 200.633 50.3789 201.047 49.832C201.469 49.2773 201.988 48.8477 202.605 48.543C203.223 48.2383 203.938 48.0859 204.75 48.0859C205.312 48.0859 205.828 48.1719 206.297 48.3438C206.766 48.5078 207.168 48.7695 207.504 49.1289C207.848 49.4805 208.113 49.9414 208.301 50.5117C208.488 51.0742 208.582 51.75 208.582 52.5391V61H205.207V52.9141C205.207 52.3359 205.129 51.8906 204.973 51.5781C204.816 51.2656 204.594 51.0469 204.305 50.9219C204.023 50.7969 203.684 50.7344 203.285 50.7344C202.848 50.7344 202.465 50.8242 202.137 51.0039C201.816 51.1836 201.551 51.4336 201.34 51.7539C201.129 52.0664 200.973 52.4336 200.871 52.8555C200.77 53.2773 200.719 53.7305 200.719 54.2148ZM208.266 53.8281L207.059 53.9805C207.059 53.1523 207.16 52.3828 207.363 51.6719C207.574 50.9609 207.883 50.3359 208.289 49.7969C208.703 49.2578 209.215 48.8398 209.824 48.543C210.434 48.2383 211.137 48.0859 211.934 48.0859C212.543 48.0859 213.098 48.1758 213.598 48.3555C214.098 48.5273 214.523 48.8047 214.875 49.1875C215.234 49.5625 215.508 50.0547 215.695 50.6641C215.891 51.2734 215.988 52.0195 215.988 52.9023V61H212.602V52.9023C212.602 52.3164 212.523 51.8711 212.367 51.5664C212.219 51.2539 212 51.0391 211.711 50.9219C211.43 50.7969 211.094 50.7344 210.703 50.7344C210.297 50.7344 209.941 50.8164 209.637 50.9805C209.332 51.1367 209.078 51.3555 208.875 51.6367C208.672 51.918 208.52 52.2461 208.418 52.6211C208.316 52.9883 208.266 53.3906 208.266 53.8281ZM225.445 58.1406V52.4922C225.445 52.0859 225.379 51.7383 225.246 51.4492C225.113 51.1523 224.906 50.9219 224.625 50.7578C224.352 50.5938 223.996 50.5117 223.559 50.5117C223.184 50.5117 222.859 50.5781 222.586 50.7109C222.312 50.8359 222.102 51.0195 221.953 51.2617C221.805 51.4961 221.73 51.7734 221.73 52.0938H218.355C218.355 51.5547 218.48 51.043 218.73 50.5586C218.98 50.0742 219.344 49.6484 219.82 49.2812C220.297 48.9062 220.863 48.6133 221.52 48.4023C222.184 48.1914 222.926 48.0859 223.746 48.0859C224.73 48.0859 225.605 48.25 226.371 48.5781C227.137 48.9062 227.738 49.3984 228.176 50.0547C228.621 50.7109 228.844 51.5312 228.844 52.5156V57.9414C228.844 58.6367 228.887 59.207 228.973 59.6523C229.059 60.0898 229.184 60.4727 229.348 60.8008V61H225.938C225.773 60.6562 225.648 60.2266 225.562 59.7109C225.484 59.1875 225.445 58.6641 225.445 58.1406ZM225.891 53.2773L225.914 55.1875H224.027C223.582 55.1875 223.195 55.2383 222.867 55.3398C222.539 55.4414 222.27 55.5859 222.059 55.7734C221.848 55.9531 221.691 56.1641 221.59 56.4062C221.496 56.6484 221.449 56.9141 221.449 57.2031C221.449 57.4922 221.516 57.7539 221.648 57.9883C221.781 58.2148 221.973 58.3945 222.223 58.5273C222.473 58.6523 222.766 58.7148 223.102 58.7148C223.609 58.7148 224.051 58.6133 224.426 58.4102C224.801 58.207 225.09 57.957 225.293 57.6602C225.504 57.3633 225.613 57.082 225.621 56.8164L226.512 58.2461C226.387 58.5664 226.215 58.8984 225.996 59.2422C225.785 59.5859 225.516 59.9102 225.188 60.2148C224.859 60.5117 224.465 60.7578 224.004 60.9531C223.543 61.1406 222.996 61.2344 222.363 61.2344C221.559 61.2344 220.828 61.0742 220.172 60.7539C219.523 60.4258 219.008 59.9766 218.625 59.4062C218.25 58.8281 218.062 58.1719 218.062 57.4375C218.062 56.7734 218.188 56.1836 218.438 55.668C218.688 55.1523 219.055 54.7188 219.539 54.3672C220.031 54.0078 220.645 53.7383 221.379 53.5586C222.113 53.3711 222.965 53.2773 223.934 53.2773H225.891ZM234.82 51.0859V61H231.445V48.3203H234.621L234.82 51.0859ZM238.641 48.2383L238.582 51.3672C238.418 51.3438 238.219 51.3242 237.984 51.3086C237.758 51.2852 237.551 51.2734 237.363 51.2734C236.887 51.2734 236.473 51.3359 236.121 51.4609C235.777 51.5781 235.488 51.7539 235.254 51.9883C235.027 52.2227 234.855 52.5078 234.738 52.8438C234.629 53.1797 234.566 53.5625 234.551 53.9922L233.871 53.7812C233.871 52.9609 233.953 52.207 234.117 51.5195C234.281 50.8242 234.52 50.2188 234.832 49.7031C235.152 49.1875 235.543 48.7891 236.004 48.5078C236.465 48.2266 236.992 48.0859 237.586 48.0859C237.773 48.0859 237.965 48.1016 238.16 48.1328C238.355 48.1562 238.516 48.1914 238.641 48.2383ZM247.031 48.3203V50.7109H239.648V48.3203H247.031ZM241.477 45.1914H244.852V57.1797C244.852 57.5469 244.898 57.8281 244.992 58.0234C245.094 58.2188 245.242 58.3555 245.438 58.4336C245.633 58.5039 245.879 58.5391 246.176 58.5391C246.387 58.5391 246.574 58.5312 246.738 58.5156C246.91 58.4922 247.055 58.4688 247.172 58.4453L247.184 60.9297C246.895 61.0234 246.582 61.0977 246.246 61.1523C245.91 61.207 245.539 61.2344 245.133 61.2344C244.391 61.2344 243.742 61.1133 243.188 60.8711C242.641 60.6211 242.219 60.2227 241.922 59.6758C241.625 59.1289 241.477 58.4102 241.477 57.5195V45.1914Z" fill="#888888"/>
<path d="M106.688 119H99.1172L99.1641 112.672H106.688C108.25 112.672 109.57 112.297 110.648 111.547C111.742 110.797 112.57 109.68 113.133 108.195C113.711 106.695 114 104.852 114 102.664V101.188C114 99.5469 113.836 98.1094 113.508 96.875C113.195 95.625 112.727 94.5859 112.102 93.7578C111.477 92.9141 110.695 92.2812 109.758 91.8594C108.836 91.4375 107.773 91.2266 106.57 91.2266H98.9766V84.875H106.57C108.883 84.875 111 85.2734 112.922 86.0703C114.859 86.8516 116.531 87.9766 117.938 89.4453C119.359 90.8984 120.453 92.625 121.219 94.625C122 96.6094 122.391 98.8125 122.391 101.234V102.664C122.391 105.07 122 107.273 121.219 109.273C120.453 111.273 119.367 113 117.961 114.453C116.555 115.906 114.891 117.031 112.969 117.828C111.062 118.609 108.969 119 106.688 119ZM103.828 84.875V119H95.6016V84.875H103.828ZM138.586 119.469C136.523 119.469 134.68 119.148 133.055 118.508C131.43 117.852 130.055 116.953 128.93 115.812C127.82 114.672 126.969 113.359 126.375 111.875C125.797 110.391 125.508 108.82 125.508 107.164V106.273C125.508 104.414 125.766 102.695 126.281 101.117C126.797 99.5234 127.562 98.1328 128.578 96.9453C129.594 95.7578 130.867 94.8359 132.398 94.1797C133.93 93.5078 135.711 93.1719 137.742 93.1719C139.539 93.1719 141.148 93.4609 142.57 94.0391C143.992 94.6172 145.195 95.4453 146.18 96.5234C147.18 97.6016 147.938 98.9062 148.453 100.438C148.984 101.969 149.25 103.688 149.25 105.594V108.805H128.531V103.859H141.539V103.25C141.555 102.406 141.406 101.688 141.094 101.094C140.797 100.5 140.359 100.047 139.781 99.7344C139.203 99.4219 138.5 99.2656 137.672 99.2656C136.812 99.2656 136.102 99.4531 135.539 99.8281C134.992 100.203 134.562 100.719 134.25 101.375C133.953 102.016 133.742 102.758 133.617 103.602C133.492 104.445 133.43 105.336 133.43 106.273V107.164C133.43 108.102 133.555 108.953 133.805 109.719C134.07 110.484 134.445 111.141 134.93 111.688C135.43 112.219 136.023 112.633 136.711 112.93C137.414 113.227 138.211 113.375 139.102 113.375C140.18 113.375 141.242 113.172 142.289 112.766C143.336 112.359 144.234 111.688 144.984 110.75L148.57 115.016C148.055 115.75 147.32 116.461 146.367 117.148C145.43 117.836 144.305 118.398 142.992 118.836C141.68 119.258 140.211 119.469 138.586 119.469ZM160.43 98.5156V128.75H152.531V93.6406H159.891L160.43 98.5156ZM175.992 106.016V106.508C175.992 108.352 175.781 110.062 175.359 111.641C174.938 113.219 174.312 114.594 173.484 115.766C172.656 116.938 171.625 117.852 170.391 118.508C169.172 119.148 167.758 119.469 166.148 119.469C164.633 119.469 163.328 119.133 162.234 118.461C161.141 117.789 160.227 116.859 159.492 115.672C158.758 114.484 158.164 113.125 157.711 111.594C157.258 110.062 156.898 108.445 156.633 106.742V106.109C156.898 104.281 157.258 102.586 157.711 101.023C158.164 99.4453 158.758 98.0703 159.492 96.8984C160.227 95.7266 161.133 94.8125 162.211 94.1562C163.305 93.5 164.609 93.1719 166.125 93.1719C167.734 93.1719 169.148 93.4766 170.367 94.0859C171.602 94.6953 172.633 95.5703 173.461 96.7109C174.305 97.8359 174.938 99.1875 175.359 100.766C175.781 102.344 175.992 104.094 175.992 106.016ZM168.094 106.508V106.016C168.094 105.031 168.023 104.133 167.883 103.32C167.742 102.492 167.516 101.773 167.203 101.164C166.906 100.555 166.508 100.086 166.008 99.7578C165.508 99.4297 164.891 99.2656 164.156 99.2656C163.312 99.2656 162.602 99.3984 162.023 99.6641C161.461 99.9141 161.008 100.305 160.664 100.836C160.336 101.352 160.102 102 159.961 102.781C159.836 103.547 159.781 104.445 159.797 105.477V107.398C159.766 108.586 159.883 109.633 160.148 110.539C160.414 111.43 160.875 112.125 161.531 112.625C162.188 113.125 163.078 113.375 164.203 113.375C164.953 113.375 165.578 113.203 166.078 112.859C166.578 112.5 166.977 112.008 167.273 111.383C167.57 110.742 167.781 110.008 167.906 109.18C168.031 108.352 168.094 107.461 168.094 106.508ZM187.852 83V119H179.93V83H187.852ZM191.742 106.578V106.086C191.742 104.227 192.008 102.516 192.539 100.953C193.07 99.375 193.852 98.0078 194.883 96.8516C195.914 95.6953 197.188 94.7969 198.703 94.1562C200.219 93.5 201.969 93.1719 203.953 93.1719C205.953 93.1719 207.711 93.5 209.227 94.1562C210.758 94.7969 212.039 95.6953 213.07 96.8516C214.102 98.0078 214.883 99.375 215.414 100.953C215.945 102.516 216.211 104.227 216.211 106.086V106.578C216.211 108.422 215.945 110.133 215.414 111.711C214.883 113.273 214.102 114.641 213.07 115.812C212.039 116.969 210.766 117.867 209.25 118.508C207.734 119.148 205.984 119.469 204 119.469C202.016 119.469 200.258 119.148 198.727 118.508C197.195 117.867 195.914 116.969 194.883 115.812C193.852 114.641 193.07 113.273 192.539 111.711C192.008 110.133 191.742 108.422 191.742 106.578ZM199.641 106.086V106.578C199.641 107.531 199.711 108.422 199.852 109.25C199.992 110.078 200.227 110.805 200.555 111.43C200.883 112.039 201.328 112.516 201.891 112.859C202.453 113.203 203.156 113.375 204 113.375C204.828 113.375 205.516 113.203 206.062 112.859C206.625 112.516 207.07 112.039 207.398 111.43C207.727 110.805 207.961 110.078 208.102 109.25C208.242 108.422 208.312 107.531 208.312 106.578V106.086C208.312 105.164 208.242 104.297 208.102 103.484C207.961 102.656 207.727 101.93 207.398 101.305C207.07 100.664 206.625 100.164 206.062 99.8047C205.5 99.4453 204.797 99.2656 203.953 99.2656C203.125 99.2656 202.43 99.4453 201.867 99.8047C201.32 100.164 200.883 100.664 200.555 101.305C200.227 101.93 199.992 102.656 199.852 103.484C199.711 104.297 199.641 105.164 199.641 106.086ZM227.133 116.023L233.695 93.6406H242.18L231.984 122.773C231.766 123.414 231.477 124.102 231.117 124.836C230.758 125.586 230.266 126.297 229.641 126.969C229.016 127.641 228.211 128.188 227.227 128.609C226.258 129.031 225.055 129.242 223.617 129.242C222.852 129.242 222.289 129.203 221.93 129.125C221.586 129.062 221.055 128.945 220.336 128.773V123.125C220.539 123.125 220.711 123.125 220.852 123.125C221.008 123.125 221.18 123.125 221.367 123.125C222.211 123.125 222.883 123.039 223.383 122.867C223.898 122.695 224.289 122.445 224.555 122.117C224.836 121.789 225.055 121.391 225.211 120.922L227.133 116.023ZM225.469 93.6406L230.461 111.383L231.328 119.75H226.031L217.008 93.6406H225.469ZM252.211 99.0078V119H244.312V93.6406H251.719L252.211 99.0078ZM251.25 105.453L249.445 105.5C249.445 103.719 249.656 102.078 250.078 100.578C250.5 99.0781 251.125 97.7734 251.953 96.6641C252.781 95.5547 253.797 94.6953 255 94.0859C256.219 93.4766 257.625 93.1719 259.219 93.1719C260.328 93.1719 261.336 93.3438 262.242 93.6875C263.148 94.0156 263.93 94.5391 264.586 95.2578C265.242 95.9609 265.742 96.8828 266.086 98.0234C266.445 99.1484 266.625 100.5 266.625 102.078V119H258.727V103.086C258.727 102.008 258.602 101.195 258.352 100.648C258.117 100.102 257.773 99.7344 257.32 99.5469C256.867 99.3594 256.312 99.2656 255.656 99.2656C254.969 99.2656 254.352 99.4219 253.805 99.7344C253.258 100.047 252.789 100.484 252.398 101.047C252.023 101.594 251.734 102.242 251.531 102.992C251.344 103.742 251.25 104.562 251.25 105.453ZM265.734 105.453L263.531 105.5C263.531 103.719 263.727 102.078 264.117 100.578C264.523 99.0781 265.125 97.7734 265.922 96.6641C266.734 95.5547 267.742 94.6953 268.945 94.0859C270.148 93.4766 271.547 93.1719 273.141 93.1719C274.297 93.1719 275.359 93.3438 276.328 93.6875C277.297 94.0312 278.133 94.5859 278.836 95.3516C279.539 96.1172 280.086 97.1328 280.477 98.3984C280.867 99.6484 281.062 101.195 281.062 103.039V119H273.141V103.039C273.141 101.992 273.016 101.203 272.766 100.672C272.531 100.125 272.188 99.7578 271.734 99.5703C271.281 99.3672 270.742 99.2656 270.117 99.2656C269.367 99.2656 268.719 99.4219 268.172 99.7344C267.625 100.047 267.164 100.484 266.789 101.047C266.43 101.594 266.164 102.242 265.992 102.992C265.82 103.742 265.734 104.562 265.734 105.453ZM297.867 119.469C295.805 119.469 293.961 119.148 292.336 118.508C290.711 117.852 289.336 116.953 288.211 115.812C287.102 114.672 286.25 113.359 285.656 111.875C285.078 110.391 284.789 108.82 284.789 107.164V106.273C284.789 104.414 285.047 102.695 285.562 101.117C286.078 99.5234 286.844 98.1328 287.859 96.9453C288.875 95.7578 290.148 94.8359 291.68 94.1797C293.211 93.5078 294.992 93.1719 297.023 93.1719C298.82 93.1719 300.43 93.4609 301.852 94.0391C303.273 94.6172 304.477 95.4453 305.461 96.5234C306.461 97.6016 307.219 98.9062 307.734 100.438C308.266 101.969 308.531 103.688 308.531 105.594V108.805H287.812V103.859H300.82V103.25C300.836 102.406 300.688 101.688 300.375 101.094C300.078 100.5 299.641 100.047 299.062 99.7344C298.484 99.4219 297.781 99.2656 296.953 99.2656C296.094 99.2656 295.383 99.4531 294.82 99.8281C294.273 100.203 293.844 100.719 293.531 101.375C293.234 102.016 293.023 102.758 292.898 103.602C292.773 104.445 292.711 105.336 292.711 106.273V107.164C292.711 108.102 292.836 108.953 293.086 109.719C293.352 110.484 293.727 111.141 294.211 111.688C294.711 112.219 295.305 112.633 295.992 112.93C296.695 113.227 297.492 113.375 298.383 113.375C299.461 113.375 300.523 113.172 301.57 112.766C302.617 112.359 303.516 111.688 304.266 110.75L307.852 115.016C307.336 115.75 306.602 116.461 305.648 117.148C304.711 117.836 303.586 118.398 302.273 118.836C300.961 119.258 299.492 119.469 297.867 119.469ZM319.5 99.0547V119H311.602V93.6406H319.008L319.5 99.0547ZM318.562 105.453L316.711 105.5C316.711 103.562 316.945 101.836 317.414 100.32C317.883 98.7891 318.547 97.4922 319.406 96.4297C320.266 95.3672 321.289 94.5625 322.477 94.0156C323.68 93.4531 325.016 93.1719 326.484 93.1719C327.656 93.1719 328.727 93.3438 329.695 93.6875C330.68 94.0312 331.523 94.5859 332.227 95.3516C332.945 96.1172 333.492 97.1328 333.867 98.3984C334.258 99.6484 334.453 101.195 334.453 103.039V119H326.508V103.016C326.508 102 326.367 101.227 326.086 100.695C325.805 100.148 325.398 99.7734 324.867 99.5703C324.336 99.3672 323.688 99.2656 322.922 99.2656C322.109 99.2656 321.422 99.4219 320.859 99.7344C320.297 100.047 319.844 100.484 319.5 101.047C319.172 101.594 318.93 102.242 318.773 102.992C318.633 103.742 318.562 104.562 318.562 105.453ZM352.195 93.6406V99.125H336.914V93.6406H352.195ZM340.125 87.3359H348.023V110.727C348.023 111.398 348.102 111.922 348.258 112.297C348.414 112.656 348.68 112.914 349.055 113.07C349.445 113.211 349.961 113.281 350.602 113.281C351.055 113.281 351.43 113.273 351.727 113.258C352.023 113.227 352.305 113.188 352.57 113.141V118.789C351.898 119.008 351.195 119.172 350.461 119.281C349.727 119.406 348.945 119.469 348.117 119.469C346.43 119.469 344.984 119.203 343.781 118.672C342.594 118.141 341.688 117.305 341.062 116.164C340.438 115.023 340.125 113.539 340.125 111.711V87.3359Z" fill="black"/>
<path d="M1134 0H1348C1356.28 0 1363 6.71573 1363 15V148C1363 156.284 1356.28 163 1348 163H1134V0Z" fill="#052B47"/>
<path d="M1212.5 117.5L1212.5 45.5L1284.5 45.5L1284.5 117.5L1212.5 117.5Z" fill="white" fill-opacity="0.01"/>
<path d="M1221.5 81.5125L1221.5 108.5L1275.5 108.5L1275.5 81.5" stroke="white" stroke-width="7.24" stroke-linecap="round" stroke-linejoin="round"/>
<path d="M1262 68L1248.5 54.5L1235 68" stroke="white" stroke-width="7.24" stroke-linecap="round" stroke-linejoin="round"/>
<path d="M1248.49 93.4999L1248.49 54.5" stroke="white" stroke-width="7.24" stroke-linecap="round" stroke-linejoin="round"/>
</svg>
