<svg width="1363" height="163" viewBox="0 0 1363 163" fill="none" xmlns="http://www.w3.org/2000/svg">
<path d="M0 15C0 6.71573 6.71573 0 15 0H37V163H15C6.71573 163 0 156.284 0 148V15Z" fill="#424242"/>
<rect width="1097" height="163" transform="translate(37)" fill="#F0F0F0"/>
<path d="M101.906 53.9219L94.3945 51.2383V48.0859L104.602 52.375V54.6367L101.906 53.9219ZM94.3945 56.1719L101.918 53.4297L104.602 52.7852V55.0352L94.3945 59.3242V56.1719ZM122.789 55.3398H126.293C126.223 56.4883 125.906 57.5078 125.344 58.3984C124.789 59.2891 124.012 59.9844 123.012 60.4844C122.02 60.9844 120.824 61.2344 119.426 61.2344C118.332 61.2344 117.352 61.0469 116.484 60.6719C115.617 60.2891 114.875 59.7422 114.258 59.0312C113.648 58.3203 113.184 57.4609 112.863 56.4531C112.543 55.4453 112.383 54.3164 112.383 53.0664V51.8828C112.383 50.6328 112.547 49.5039 112.875 48.4961C113.211 47.4805 113.688 46.6172 114.305 45.9062C114.93 45.1953 115.676 44.6484 116.543 44.2656C117.41 43.8828 118.379 43.6914 119.449 43.6914C120.871 43.6914 122.07 43.9492 123.047 44.4648C124.031 44.9805 124.793 45.6914 125.332 46.5977C125.879 47.5039 126.207 48.5352 126.316 49.6914H122.801C122.762 49.0039 122.625 48.4219 122.391 47.9453C122.156 47.4609 121.801 47.0977 121.324 46.8555C120.855 46.6055 120.23 46.4805 119.449 46.4805C118.863 46.4805 118.352 46.5898 117.914 46.8086C117.477 47.0273 117.109 47.3594 116.812 47.8047C116.516 48.25 116.293 48.8125 116.145 49.4922C116.004 50.1641 115.934 50.9531 115.934 51.8594V53.0664C115.934 53.9492 116 54.7266 116.133 55.3984C116.266 56.0625 116.469 56.625 116.742 57.0859C117.023 57.5391 117.383 57.8828 117.82 58.1172C118.266 58.3438 118.801 58.457 119.426 58.457C120.16 58.457 120.766 58.3398 121.242 58.1055C121.719 57.8711 122.082 57.5234 122.332 57.0625C122.59 56.6016 122.742 56.0273 122.789 55.3398ZM135.234 58.1406V52.4922C135.234 52.0859 135.168 51.7383 135.035 51.4492C134.902 51.1523 134.695 50.9219 134.414 50.7578C134.141 50.5938 133.785 50.5117 133.348 50.5117C132.973 50.5117 132.648 50.5781 132.375 50.7109C132.102 50.8359 131.891 51.0195 131.742 51.2617C131.594 51.4961 131.52 51.7734 131.52 52.0938H128.145C128.145 51.5547 128.27 51.043 128.52 50.5586C128.77 50.0742 129.133 49.6484 129.609 49.2812C130.086 48.9062 130.652 48.6133 131.309 48.4023C131.973 48.1914 132.715 48.0859 133.535 48.0859C134.52 48.0859 135.395 48.25 136.16 48.5781C136.926 48.9062 137.527 49.3984 137.965 50.0547C138.41 50.7109 138.633 51.5312 138.633 52.5156V57.9414C138.633 58.6367 138.676 59.207 138.762 59.6523C138.848 60.0898 138.973 60.4727 139.137 60.8008V61H135.727C135.562 60.6562 135.438 60.2266 135.352 59.7109C135.273 59.1875 135.234 58.6641 135.234 58.1406ZM135.68 53.2773L135.703 55.1875H133.816C133.371 55.1875 132.984 55.2383 132.656 55.3398C132.328 55.4414 132.059 55.5859 131.848 55.7734C131.637 55.9531 131.48 56.1641 131.379 56.4062C131.285 56.6484 131.238 56.9141 131.238 57.2031C131.238 57.4922 131.305 57.7539 131.438 57.9883C131.57 58.2148 131.762 58.3945 132.012 58.5273C132.262 58.6523 132.555 58.7148 132.891 58.7148C133.398 58.7148 133.84 58.6133 134.215 58.4102C134.59 58.207 134.879 57.957 135.082 57.6602C135.293 57.3633 135.402 57.082 135.41 56.8164L136.301 58.2461C136.176 58.5664 136.004 58.8984 135.785 59.2422C135.574 59.5859 135.305 59.9102 134.977 60.2148C134.648 60.5117 134.254 60.7578 133.793 60.9531C133.332 61.1406 132.785 61.2344 132.152 61.2344C131.348 61.2344 130.617 61.0742 129.961 60.7539C129.312 60.4258 128.797 59.9766 128.414 59.4062C128.039 58.8281 127.852 58.1719 127.852 57.4375C127.852 56.7734 127.977 56.1836 128.227 55.668C128.477 55.1523 128.844 54.7188 129.328 54.3672C129.82 54.0078 130.434 53.7383 131.168 53.5586C131.902 53.3711 132.754 53.2773 133.723 53.2773H135.68ZM144.609 51.0859V61H141.234V48.3203H144.41L144.609 51.0859ZM148.43 48.2383L148.371 51.3672C148.207 51.3438 148.008 51.3242 147.773 51.3086C147.547 51.2852 147.34 51.2734 147.152 51.2734C146.676 51.2734 146.262 51.3359 145.91 51.4609C145.566 51.5781 145.277 51.7539 145.043 51.9883C144.816 52.2227 144.645 52.5078 144.527 52.8438C144.418 53.1797 144.355 53.5625 144.34 53.9922L143.66 53.7812C143.66 52.9609 143.742 52.207 143.906 51.5195C144.07 50.8242 144.309 50.2188 144.621 49.7031C144.941 49.1875 145.332 48.7891 145.793 48.5078C146.254 48.2266 146.781 48.0859 147.375 48.0859C147.562 48.0859 147.754 48.1016 147.949 48.1328C148.145 48.1562 148.305 48.1914 148.43 48.2383ZM157.816 48.3203H160.875V60.5781C160.875 61.7344 160.617 62.7148 160.102 63.5195C159.594 64.332 158.883 64.9453 157.969 65.3594C157.055 65.7812 155.992 65.9922 154.781 65.9922C154.25 65.9922 153.688 65.9219 153.094 65.7812C152.508 65.6406 151.945 65.4219 151.406 65.125C150.875 64.8281 150.43 64.4531 150.07 64L151.559 62.0078C151.949 62.4609 152.402 62.8125 152.918 63.0625C153.434 63.3203 154.004 63.4492 154.629 63.4492C155.238 63.4492 155.754 63.3359 156.176 63.1094C156.598 62.8906 156.922 62.5664 157.148 62.1367C157.375 61.7148 157.488 61.2031 157.488 60.6016V51.25L157.816 48.3203ZM149.285 54.8125V54.5664C149.285 53.5977 149.402 52.7188 149.637 51.9297C149.879 51.1328 150.219 50.4492 150.656 49.8789C151.102 49.3086 151.641 48.8672 152.273 48.5547C152.906 48.2422 153.621 48.0859 154.418 48.0859C155.262 48.0859 155.969 48.2422 156.539 48.5547C157.109 48.8672 157.578 49.3125 157.945 49.8906C158.312 50.4609 158.598 51.1367 158.801 51.918C159.012 52.6914 159.176 53.5391 159.293 54.4609V55C159.176 55.8828 159 56.7031 158.766 57.4609C158.531 58.2188 158.223 58.8828 157.84 59.4531C157.457 60.0156 156.98 60.4531 156.41 60.7656C155.848 61.0781 155.176 61.2344 154.395 61.2344C153.613 61.2344 152.906 61.0742 152.273 60.7539C151.648 60.4336 151.113 59.9844 150.668 59.4062C150.223 58.8281 149.879 58.1484 149.637 57.3672C149.402 56.5859 149.285 55.7344 149.285 54.8125ZM152.66 54.5664V54.8125C152.66 55.3359 152.711 55.8242 152.812 56.2773C152.914 56.7305 153.07 57.1328 153.281 57.4844C153.5 57.8281 153.77 58.0977 154.09 58.293C154.418 58.4805 154.805 58.5742 155.25 58.5742C155.867 58.5742 156.371 58.4453 156.762 58.1875C157.152 57.9219 157.445 57.5586 157.641 57.0977C157.836 56.6367 157.949 56.1055 157.98 55.5039V53.9688C157.965 53.4766 157.898 53.0352 157.781 52.6445C157.664 52.2461 157.5 51.9062 157.289 51.625C157.078 51.3438 156.805 51.125 156.469 50.9688C156.133 50.8125 155.734 50.7344 155.273 50.7344C154.828 50.7344 154.441 50.8359 154.113 51.0391C153.793 51.2344 153.523 51.5039 153.305 51.8477C153.094 52.1914 152.934 52.5977 152.824 53.0664C152.715 53.5273 152.66 54.0273 152.66 54.5664ZM162.961 54.7891V54.543C162.961 53.6133 163.094 52.7578 163.359 51.9766C163.625 51.1875 164.012 50.5039 164.52 49.9258C165.027 49.3477 165.652 48.8984 166.395 48.5781C167.137 48.25 167.988 48.0859 168.949 48.0859C169.91 48.0859 170.766 48.25 171.516 48.5781C172.266 48.8984 172.895 49.3477 173.402 49.9258C173.918 50.5039 174.309 51.1875 174.574 51.9766C174.84 52.7578 174.973 53.6133 174.973 54.543V54.7891C174.973 55.7109 174.84 56.5664 174.574 57.3555C174.309 58.1367 173.918 58.8203 173.402 59.4062C172.895 59.9844 172.27 60.4336 171.527 60.7539C170.785 61.0742 169.934 61.2344 168.973 61.2344C168.012 61.2344 167.156 61.0742 166.406 60.7539C165.664 60.4336 165.035 59.9844 164.52 59.4062C164.012 58.8203 163.625 58.1367 163.359 57.3555C163.094 56.5664 162.961 55.7109 162.961 54.7891ZM166.336 54.543V54.7891C166.336 55.3203 166.383 55.8164 166.477 56.2773C166.57 56.7383 166.719 57.1445 166.922 57.4961C167.133 57.8398 167.406 58.1094 167.742 58.3047C168.078 58.5 168.488 58.5977 168.973 58.5977C169.441 58.5977 169.844 58.5 170.18 58.3047C170.516 58.1094 170.785 57.8398 170.988 57.4961C171.191 57.1445 171.34 56.7383 171.434 56.2773C171.535 55.8164 171.586 55.3203 171.586 54.7891V54.543C171.586 54.0273 171.535 53.543 171.434 53.0898C171.34 52.6289 171.188 52.2227 170.977 51.8711C170.773 51.5117 170.504 51.2305 170.168 51.0273C169.832 50.8242 169.426 50.7227 168.949 50.7227C168.473 50.7227 168.066 50.8242 167.73 51.0273C167.402 51.2305 167.133 51.5117 166.922 51.8711C166.719 52.2227 166.57 52.6289 166.477 53.0898C166.383 53.543 166.336 54.0273 166.336 54.543ZM192.117 56.5352C192.117 56.2305 192.07 55.957 191.977 55.7148C191.891 55.4648 191.727 55.2383 191.484 55.0352C191.242 54.8242 190.902 54.6172 190.465 54.4141C190.027 54.2109 189.461 54 188.766 53.7812C187.992 53.5312 187.258 53.25 186.562 52.9375C185.875 52.625 185.266 52.2617 184.734 51.8477C184.211 51.4258 183.797 50.9375 183.492 50.3828C183.195 49.8281 183.047 49.1836 183.047 48.4492C183.047 47.7383 183.203 47.0938 183.516 46.5156C183.828 45.9297 184.266 45.4297 184.828 45.0156C185.391 44.5938 186.055 44.2695 186.82 44.043C187.594 43.8164 188.441 43.7031 189.363 43.7031C190.621 43.7031 191.719 43.9297 192.656 44.3828C193.594 44.8359 194.32 45.457 194.836 46.2461C195.359 47.0352 195.621 47.9375 195.621 48.9531H192.129C192.129 48.4531 192.023 48.0156 191.812 47.6406C191.609 47.2578 191.297 46.957 190.875 46.7383C190.461 46.5195 189.938 46.4102 189.305 46.4102C188.695 46.4102 188.188 46.5039 187.781 46.6914C187.375 46.8711 187.07 47.1172 186.867 47.4297C186.664 47.7344 186.562 48.0781 186.562 48.4609C186.562 48.75 186.633 49.0117 186.773 49.2461C186.922 49.4805 187.141 49.6992 187.43 49.9023C187.719 50.1055 188.074 50.2969 188.496 50.4766C188.918 50.6562 189.406 50.832 189.961 51.0039C190.891 51.2852 191.707 51.6016 192.41 51.9531C193.121 52.3047 193.715 52.6992 194.191 53.1367C194.668 53.5742 195.027 54.0703 195.27 54.625C195.512 55.1797 195.633 55.8086 195.633 56.5117C195.633 57.2539 195.488 57.918 195.199 58.5039C194.91 59.0898 194.492 59.5859 193.945 59.9922C193.398 60.3984 192.746 60.707 191.988 60.918C191.23 61.1289 190.383 61.2344 189.445 61.2344C188.602 61.2344 187.77 61.125 186.949 60.9062C186.129 60.6797 185.383 60.3398 184.711 59.8867C184.047 59.4336 183.516 58.8555 183.117 58.1523C182.719 57.4492 182.52 56.6172 182.52 55.6562H186.047C186.047 56.1875 186.129 56.6367 186.293 57.0039C186.457 57.3711 186.688 57.668 186.984 57.8945C187.289 58.1211 187.648 58.2852 188.062 58.3867C188.484 58.4883 188.945 58.5391 189.445 58.5391C190.055 58.5391 190.555 58.4531 190.945 58.2812C191.344 58.1094 191.637 57.8711 191.824 57.5664C192.02 57.2617 192.117 56.918 192.117 56.5352ZM201.188 50.9453V61H197.801V48.3203H200.977L201.188 50.9453ZM200.719 54.2148H199.781C199.781 53.332 199.887 52.5195 200.098 51.7773C200.316 51.0273 200.633 50.3789 201.047 49.832C201.469 49.2773 201.988 48.8477 202.605 48.543C203.223 48.2383 203.938 48.0859 204.75 48.0859C205.312 48.0859 205.828 48.1719 206.297 48.3438C206.766 48.5078 207.168 48.7695 207.504 49.1289C207.848 49.4805 208.113 49.9414 208.301 50.5117C208.488 51.0742 208.582 51.75 208.582 52.5391V61H205.207V52.9141C205.207 52.3359 205.129 51.8906 204.973 51.5781C204.816 51.2656 204.594 51.0469 204.305 50.9219C204.023 50.7969 203.684 50.7344 203.285 50.7344C202.848 50.7344 202.465 50.8242 202.137 51.0039C201.816 51.1836 201.551 51.4336 201.34 51.7539C201.129 52.0664 200.973 52.4336 200.871 52.8555C200.77 53.2773 200.719 53.7305 200.719 54.2148ZM208.266 53.8281L207.059 53.9805C207.059 53.1523 207.16 52.3828 207.363 51.6719C207.574 50.9609 207.883 50.3359 208.289 49.7969C208.703 49.2578 209.215 48.8398 209.824 48.543C210.434 48.2383 211.137 48.0859 211.934 48.0859C212.543 48.0859 213.098 48.1758 213.598 48.3555C214.098 48.5273 214.523 48.8047 214.875 49.1875C215.234 49.5625 215.508 50.0547 215.695 50.6641C215.891 51.2734 215.988 52.0195 215.988 52.9023V61H212.602V52.9023C212.602 52.3164 212.523 51.8711 212.367 51.5664C212.219 51.2539 212 51.0391 211.711 50.9219C211.43 50.7969 211.094 50.7344 210.703 50.7344C210.297 50.7344 209.941 50.8164 209.637 50.9805C209.332 51.1367 209.078 51.3555 208.875 51.6367C208.672 51.918 208.52 52.2461 208.418 52.6211C208.316 52.9883 208.266 53.3906 208.266 53.8281ZM225.445 58.1406V52.4922C225.445 52.0859 225.379 51.7383 225.246 51.4492C225.113 51.1523 224.906 50.9219 224.625 50.7578C224.352 50.5938 223.996 50.5117 223.559 50.5117C223.184 50.5117 222.859 50.5781 222.586 50.7109C222.312 50.8359 222.102 51.0195 221.953 51.2617C221.805 51.4961 221.73 51.7734 221.73 52.0938H218.355C218.355 51.5547 218.48 51.043 218.73 50.5586C218.98 50.0742 219.344 49.6484 219.82 49.2812C220.297 48.9062 220.863 48.6133 221.52 48.4023C222.184 48.1914 222.926 48.0859 223.746 48.0859C224.73 48.0859 225.605 48.25 226.371 48.5781C227.137 48.9062 227.738 49.3984 228.176 50.0547C228.621 50.7109 228.844 51.5312 228.844 52.5156V57.9414C228.844 58.6367 228.887 59.207 228.973 59.6523C229.059 60.0898 229.184 60.4727 229.348 60.8008V61H225.938C225.773 60.6562 225.648 60.2266 225.562 59.7109C225.484 59.1875 225.445 58.6641 225.445 58.1406ZM225.891 53.2773L225.914 55.1875H224.027C223.582 55.1875 223.195 55.2383 222.867 55.3398C222.539 55.4414 222.27 55.5859 222.059 55.7734C221.848 55.9531 221.691 56.1641 221.59 56.4062C221.496 56.6484 221.449 56.9141 221.449 57.2031C221.449 57.4922 221.516 57.7539 221.648 57.9883C221.781 58.2148 221.973 58.3945 222.223 58.5273C222.473 58.6523 222.766 58.7148 223.102 58.7148C223.609 58.7148 224.051 58.6133 224.426 58.4102C224.801 58.207 225.09 57.957 225.293 57.6602C225.504 57.3633 225.613 57.082 225.621 56.8164L226.512 58.2461C226.387 58.5664 226.215 58.8984 225.996 59.2422C225.785 59.5859 225.516 59.9102 225.188 60.2148C224.859 60.5117 224.465 60.7578 224.004 60.9531C223.543 61.1406 222.996 61.2344 222.363 61.2344C221.559 61.2344 220.828 61.0742 220.172 60.7539C219.523 60.4258 219.008 59.9766 218.625 59.4062C218.25 58.8281 218.062 58.1719 218.062 57.4375C218.062 56.7734 218.188 56.1836 218.438 55.668C218.688 55.1523 219.055 54.7188 219.539 54.3672C220.031 54.0078 220.645 53.7383 221.379 53.5586C222.113 53.3711 222.965 53.2773 223.934 53.2773H225.891ZM234.82 51.0859V61H231.445V48.3203H234.621L234.82 51.0859ZM238.641 48.2383L238.582 51.3672C238.418 51.3438 238.219 51.3242 237.984 51.3086C237.758 51.2852 237.551 51.2734 237.363 51.2734C236.887 51.2734 236.473 51.3359 236.121 51.4609C235.777 51.5781 235.488 51.7539 235.254 51.9883C235.027 52.2227 234.855 52.5078 234.738 52.8438C234.629 53.1797 234.566 53.5625 234.551 53.9922L233.871 53.7812C233.871 52.9609 233.953 52.207 234.117 51.5195C234.281 50.8242 234.52 50.2188 234.832 49.7031C235.152 49.1875 235.543 48.7891 236.004 48.5078C236.465 48.2266 236.992 48.0859 237.586 48.0859C237.773 48.0859 237.965 48.1016 238.16 48.1328C238.355 48.1562 238.516 48.1914 238.641 48.2383ZM247.031 48.3203V50.7109H239.648V48.3203H247.031ZM241.477 45.1914H244.852V57.1797C244.852 57.5469 244.898 57.8281 244.992 58.0234C245.094 58.2188 245.242 58.3555 245.438 58.4336C245.633 58.5039 245.879 58.5391 246.176 58.5391C246.387 58.5391 246.574 58.5312 246.738 58.5156C246.91 58.4922 247.055 58.4688 247.172 58.4453L247.184 60.9297C246.895 61.0234 246.582 61.0977 246.246 61.1523C245.91 61.207 245.539 61.2344 245.133 61.2344C244.391 61.2344 243.742 61.1133 243.188 60.8711C242.641 60.6211 242.219 60.2227 241.922 59.6758C241.625 59.1289 241.477 58.4102 241.477 57.5195V45.1914Z" fill="#888888"/>
<path d="M124.102 84.875V119H115.898L103.828 97.7656V119H95.6016V84.875H103.828L115.898 106.109V84.875H124.102ZM152.508 109.602C152.508 111.773 151.992 113.594 150.961 115.062C149.945 116.531 148.539 117.633 146.742 118.367C144.961 119.102 142.93 119.469 140.648 119.469C138.383 119.469 136.344 119.102 134.531 118.367C132.734 117.633 131.312 116.531 130.266 115.062C129.219 113.594 128.695 111.773 128.695 109.602C128.695 108.117 128.992 106.789 129.586 105.617C130.195 104.43 131.039 103.422 132.117 102.594C133.195 101.766 134.453 101.133 135.891 100.695C137.344 100.258 138.914 100.039 140.602 100.039C142.883 100.039 144.922 100.43 146.719 101.211C148.516 101.977 149.93 103.07 150.961 104.492C151.992 105.914 152.508 107.617 152.508 109.602ZM144.562 108.969C144.562 108.031 144.398 107.242 144.07 106.602C143.742 105.945 143.281 105.445 142.688 105.102C142.094 104.758 141.398 104.586 140.602 104.586C139.82 104.586 139.125 104.758 138.516 105.102C137.922 105.445 137.453 105.945 137.109 106.602C136.781 107.242 136.617 108.031 136.617 108.969C136.617 109.875 136.789 110.664 137.133 111.336C137.477 111.992 137.945 112.5 138.539 112.859C139.148 113.203 139.852 113.375 140.648 113.375C141.445 113.375 142.133 113.203 142.711 112.859C143.305 112.5 143.758 111.992 144.07 111.336C144.398 110.664 144.562 109.875 144.562 108.969ZM151.805 93.9922C151.805 95.7734 151.328 97.3359 150.375 98.6797C149.438 100.008 148.125 101.047 146.438 101.797C144.766 102.531 142.836 102.898 140.648 102.898C138.477 102.898 136.539 102.531 134.836 101.797C133.148 101.047 131.82 100.008 130.852 98.6797C129.898 97.3359 129.422 95.7734 129.422 93.9922C129.422 91.8984 129.898 90.1406 130.852 88.7188C131.82 87.2969 133.148 86.2188 134.836 85.4844C136.523 84.75 138.445 84.3828 140.602 84.3828C142.789 84.3828 144.727 84.75 146.414 85.4844C148.102 86.2188 149.422 87.2969 150.375 88.7188C151.328 90.1406 151.805 91.8984 151.805 93.9922ZM143.906 94.4141C143.906 93.6016 143.781 92.9062 143.531 92.3281C143.281 91.7344 142.914 91.2812 142.43 90.9688C141.945 90.6406 141.336 90.4766 140.602 90.4766C139.898 90.4766 139.305 90.6328 138.82 90.9453C138.336 91.2578 137.969 91.7109 137.719 92.3047C137.469 92.8828 137.344 93.5859 137.344 94.4141C137.344 95.2266 137.469 95.9375 137.719 96.5469C137.969 97.1562 138.336 97.6328 138.82 97.9766C139.32 98.3203 139.93 98.4922 140.648 98.4922C141.383 98.4922 141.984 98.3203 142.453 97.9766C142.938 97.6328 143.297 97.1562 143.531 96.5469C143.781 95.9375 143.906 95.2266 143.906 94.4141ZM185.648 84.875V119H177.445L165.375 97.7656V119H157.148V84.875H165.375L177.445 106.109V84.875H185.648ZM217.266 92.0469L208.945 119H200.109L212.648 84.875H218.25L217.266 92.0469ZM224.156 119L215.812 92.0469L214.734 84.875H220.406L233.016 119H224.156ZM223.828 106.273V112.625H206.32V106.273H223.828ZM249.68 112.836V93.6406H257.602V119H250.195L249.68 112.836ZM250.43 107.68L252.492 107.633C252.492 109.336 252.289 110.914 251.883 112.367C251.477 113.805 250.875 115.055 250.078 116.117C249.297 117.18 248.328 118.008 247.172 118.602C246.031 119.18 244.711 119.469 243.211 119.469C241.961 119.469 240.812 119.297 239.766 118.953C238.734 118.594 237.844 118.039 237.094 117.289C236.344 116.523 235.758 115.547 235.336 114.359C234.93 113.156 234.727 111.719 234.727 110.047V93.6406H242.625V110.094C242.625 110.656 242.695 111.141 242.836 111.547C242.977 111.953 243.18 112.297 243.445 112.578C243.711 112.844 244.039 113.047 244.43 113.188C244.836 113.312 245.297 113.375 245.812 113.375C247 113.375 247.93 113.125 248.602 112.625C249.273 112.125 249.742 111.445 250.008 110.586C250.289 109.727 250.43 108.758 250.43 107.68ZM275.32 93.6406V99.125H260.039V93.6406H275.32ZM263.25 87.3359H271.148V110.727C271.148 111.398 271.227 111.922 271.383 112.297C271.539 112.656 271.805 112.914 272.18 113.07C272.57 113.211 273.086 113.281 273.727 113.281C274.18 113.281 274.555 113.273 274.852 113.258C275.148 113.227 275.43 113.188 275.695 113.141V118.789C275.023 119.008 274.32 119.172 273.586 119.281C272.852 119.406 272.07 119.469 271.242 119.469C269.555 119.469 268.109 119.203 266.906 118.672C265.719 118.141 264.812 117.305 264.188 116.164C263.562 115.023 263.25 113.539 263.25 111.711V87.3359ZM276.773 106.578V106.086C276.773 104.227 277.039 102.516 277.57 100.953C278.102 99.375 278.883 98.0078 279.914 96.8516C280.945 95.6953 282.219 94.7969 283.734 94.1562C285.25 93.5 287 93.1719 288.984 93.1719C290.984 93.1719 292.742 93.5 294.258 94.1562C295.789 94.7969 297.07 95.6953 298.102 96.8516C299.133 98.0078 299.914 99.375 300.445 100.953C300.977 102.516 301.242 104.227 301.242 106.086V106.578C301.242 108.422 300.977 110.133 300.445 111.711C299.914 113.273 299.133 114.641 298.102 115.812C297.07 116.969 295.797 117.867 294.281 118.508C292.766 119.148 291.016 119.469 289.031 119.469C287.047 119.469 285.289 119.148 283.758 118.508C282.227 117.867 280.945 116.969 279.914 115.812C278.883 114.641 278.102 113.273 277.57 111.711C277.039 110.133 276.773 108.422 276.773 106.578ZM284.672 106.086V106.578C284.672 107.531 284.742 108.422 284.883 109.25C285.023 110.078 285.258 110.805 285.586 111.43C285.914 112.039 286.359 112.516 286.922 112.859C287.484 113.203 288.188 113.375 289.031 113.375C289.859 113.375 290.547 113.203 291.094 112.859C291.656 112.516 292.102 112.039 292.43 111.43C292.758 110.805 292.992 110.078 293.133 109.25C293.273 108.422 293.344 107.531 293.344 106.578V106.086C293.344 105.164 293.273 104.297 293.133 103.484C292.992 102.656 292.758 101.93 292.43 101.305C292.102 100.664 291.656 100.164 291.094 99.8047C290.531 99.4453 289.828 99.2656 288.984 99.2656C288.156 99.2656 287.461 99.4453 286.898 99.8047C286.352 100.164 285.914 100.664 285.586 101.305C285.258 101.93 285.023 102.656 284.883 103.484C284.742 104.297 284.672 105.164 284.672 106.086ZM312.727 99.0078V119H304.828V93.6406H312.234L312.727 99.0078ZM311.766 105.453L309.961 105.5C309.961 103.719 310.172 102.078 310.594 100.578C311.016 99.0781 311.641 97.7734 312.469 96.6641C313.297 95.5547 314.312 94.6953 315.516 94.0859C316.734 93.4766 318.141 93.1719 319.734 93.1719C320.844 93.1719 321.852 93.3438 322.758 93.6875C323.664 94.0156 324.445 94.5391 325.102 95.2578C325.758 95.9609 326.258 96.8828 326.602 98.0234C326.961 99.1484 327.141 100.5 327.141 102.078V119H319.242V103.086C319.242 102.008 319.117 101.195 318.867 100.648C318.633 100.102 318.289 99.7344 317.836 99.5469C317.383 99.3594 316.828 99.2656 316.172 99.2656C315.484 99.2656 314.867 99.4219 314.32 99.7344C313.773 100.047 313.305 100.484 312.914 101.047C312.539 101.594 312.25 102.242 312.047 102.992C311.859 103.742 311.766 104.562 311.766 105.453ZM326.25 105.453L324.047 105.5C324.047 103.719 324.242 102.078 324.633 100.578C325.039 99.0781 325.641 97.7734 326.438 96.6641C327.25 95.5547 328.258 94.6953 329.461 94.0859C330.664 93.4766 332.062 93.1719 333.656 93.1719C334.812 93.1719 335.875 93.3438 336.844 93.6875C337.812 94.0312 338.648 94.5859 339.352 95.3516C340.055 96.1172 340.602 97.1328 340.992 98.3984C341.383 99.6484 341.578 101.195 341.578 103.039V119H333.656V103.039C333.656 101.992 333.531 101.203 333.281 100.672C333.047 100.125 332.703 99.7578 332.25 99.5703C331.797 99.3672 331.258 99.2656 330.633 99.2656C329.883 99.2656 329.234 99.4219 328.688 99.7344C328.141 100.047 327.68 100.484 327.305 101.047C326.945 101.594 326.68 102.242 326.508 102.992C326.336 103.742 326.25 104.562 326.25 105.453ZM359.273 112.625V102.172C359.273 101.453 359.172 100.836 358.969 100.32C358.766 99.8047 358.445 99.4062 358.008 99.125C357.57 98.8281 356.984 98.6797 356.25 98.6797C355.656 98.6797 355.148 98.7812 354.727 98.9844C354.305 99.1875 353.984 99.4922 353.766 99.8984C353.547 100.305 353.438 100.82 353.438 101.445H345.539C345.539 100.273 345.797 99.1875 346.312 98.1875C346.844 97.1719 347.594 96.2891 348.562 95.5391C349.547 94.7891 350.719 94.2109 352.078 93.8047C353.453 93.3828 354.984 93.1719 356.672 93.1719C358.688 93.1719 360.484 93.5078 362.062 94.1797C363.656 94.8516 364.914 95.8594 365.836 97.2031C366.758 98.5312 367.219 100.203 367.219 102.219V112.602C367.219 114.258 367.312 115.516 367.5 116.375C367.688 117.219 367.953 117.961 368.297 118.602V119H360.375C360 118.219 359.719 117.266 359.531 116.141C359.359 115 359.273 113.828 359.273 112.625ZM360.234 103.508L360.281 107.727H356.789C356.055 107.727 355.43 107.828 354.914 108.031C354.414 108.234 354.008 108.516 353.695 108.875C353.398 109.219 353.18 109.609 353.039 110.047C352.914 110.484 352.852 110.945 352.852 111.43C352.852 111.898 352.961 112.32 353.18 112.695C353.414 113.055 353.727 113.336 354.117 113.539C354.508 113.742 354.945 113.844 355.43 113.844C356.305 113.844 357.047 113.68 357.656 113.352C358.281 113.008 358.758 112.594 359.086 112.109C359.414 111.625 359.578 111.172 359.578 110.75L361.312 113.984C361 114.609 360.641 115.242 360.234 115.883C359.844 116.523 359.352 117.117 358.758 117.664C358.18 118.195 357.469 118.633 356.625 118.977C355.781 119.305 354.758 119.469 353.555 119.469C351.992 119.469 350.555 119.148 349.242 118.508C347.945 117.867 346.906 116.977 346.125 115.836C345.344 114.68 344.953 113.352 344.953 111.852C344.953 110.539 345.188 109.367 345.656 108.336C346.141 107.305 346.867 106.43 347.836 105.711C348.805 104.992 350.039 104.445 351.539 104.07C353.039 103.695 354.805 103.508 356.836 103.508H360.234ZM384.961 93.6406V99.125H369.68V93.6406H384.961ZM372.891 87.3359H380.789V110.727C380.789 111.398 380.867 111.922 381.023 112.297C381.18 112.656 381.445 112.914 381.82 113.07C382.211 113.211 382.727 113.281 383.367 113.281C383.82 113.281 384.195 113.273 384.492 113.258C384.789 113.227 385.07 113.188 385.336 113.141V118.789C384.664 119.008 383.961 119.172 383.227 119.281C382.492 119.406 381.711 119.469 380.883 119.469C379.195 119.469 377.75 119.203 376.547 118.672C375.359 118.141 374.453 117.305 373.828 116.164C373.203 115.023 372.891 113.539 372.891 111.711V87.3359ZM396.445 93.6406V119H388.523V93.6406H396.445ZM388.055 87.1016C388.055 85.9766 388.461 85.0547 389.273 84.3359C390.086 83.6172 391.141 83.2578 392.438 83.2578C393.734 83.2578 394.789 83.6172 395.602 84.3359C396.414 85.0547 396.82 85.9766 396.82 87.1016C396.82 88.2266 396.414 89.1484 395.602 89.8672C394.789 90.5859 393.734 90.9453 392.438 90.9453C391.141 90.9453 390.086 90.5859 389.273 89.8672C388.461 89.1484 388.055 88.2266 388.055 87.1016ZM400.336 106.578V106.086C400.336 104.227 400.602 102.516 401.133 100.953C401.664 99.375 402.445 98.0078 403.477 96.8516C404.508 95.6953 405.781 94.7969 407.297 94.1562C408.812 93.5 410.562 93.1719 412.547 93.1719C414.547 93.1719 416.305 93.5 417.82 94.1562C419.352 94.7969 420.633 95.6953 421.664 96.8516C422.695 98.0078 423.477 99.375 424.008 100.953C424.539 102.516 424.805 104.227 424.805 106.086V106.578C424.805 108.422 424.539 110.133 424.008 111.711C423.477 113.273 422.695 114.641 421.664 115.812C420.633 116.969 419.359 117.867 417.844 118.508C416.328 119.148 414.578 119.469 412.594 119.469C410.609 119.469 408.852 119.148 407.32 118.508C405.789 117.867 404.508 116.969 403.477 115.812C402.445 114.641 401.664 113.273 401.133 111.711C400.602 110.133 400.336 108.422 400.336 106.578ZM408.234 106.086V106.578C408.234 107.531 408.305 108.422 408.445 109.25C408.586 110.078 408.82 110.805 409.148 111.43C409.477 112.039 409.922 112.516 410.484 112.859C411.047 113.203 411.75 113.375 412.594 113.375C413.422 113.375 414.109 113.203 414.656 112.859C415.219 112.516 415.664 112.039 415.992 111.43C416.32 110.805 416.555 110.078 416.695 109.25C416.836 108.422 416.906 107.531 416.906 106.578V106.086C416.906 105.164 416.836 104.297 416.695 103.484C416.555 102.656 416.32 101.93 415.992 101.305C415.664 100.664 415.219 100.164 414.656 99.8047C414.094 99.4453 413.391 99.2656 412.547 99.2656C411.719 99.2656 411.023 99.4453 410.461 99.8047C409.914 100.164 409.477 100.664 409.148 101.305C408.82 101.93 408.586 102.656 408.445 103.484C408.305 104.297 408.234 105.164 408.234 106.086ZM436.078 99.0547V119H428.18V93.6406H435.586L436.078 99.0547ZM435.141 105.453L433.289 105.5C433.289 103.562 433.523 101.836 433.992 100.32C434.461 98.7891 435.125 97.4922 435.984 96.4297C436.844 95.3672 437.867 94.5625 439.055 94.0156C440.258 93.4531 441.594 93.1719 443.062 93.1719C444.234 93.1719 445.305 93.3438 446.273 93.6875C447.258 94.0312 448.102 94.5859 448.805 95.3516C449.523 96.1172 450.07 97.1328 450.445 98.3984C450.836 99.6484 451.031 101.195 451.031 103.039V119H443.086V103.016C443.086 102 442.945 101.227 442.664 100.695C442.383 100.148 441.977 99.7734 441.445 99.5703C440.914 99.3672 440.266 99.2656 439.5 99.2656C438.688 99.2656 438 99.4219 437.438 99.7344C436.875 100.047 436.422 100.484 436.078 101.047C435.75 101.594 435.508 102.242 435.352 102.992C435.211 103.742 435.141 104.562 435.141 105.453Z" fill="black"/>
<path d="M1134 0H1348C1356.28 0 1363 6.71573 1363 15V148C1363 156.284 1356.28 163 1348 163H1134V0Z" fill="#358C9C"/>
<path d="M1244.75 74V89H1259.75" stroke="white" stroke-width="5" stroke-linecap="round" stroke-linejoin="round"/>
<path d="M1244.75 89.0001L1250.51 82.9813C1252.66 80.9124 1255.27 79.3875 1258.14 78.5335C1261 77.6794 1264.02 77.5209 1266.95 78.0711C1269.89 78.6214 1272.65 79.8644 1275.01 81.6968C1277.36 83.5293 1279.25 85.8981 1280.51 88.6063" stroke="white" stroke-width="5" stroke-linecap="round" stroke-linejoin="round"/>
<path d="M1263.5 44V59" stroke="white" stroke-width="5" stroke-linecap="round" stroke-linejoin="round"/>
<path d="M1282.25 104L1276.49 110.019C1274.34 112.088 1271.73 113.613 1268.86 114.467C1266 115.321 1262.98 115.479 1260.05 114.929C1257.11 114.379 1254.35 113.136 1251.99 111.303C1249.64 109.471 1247.75 107.102 1246.49 104.394" stroke="white" stroke-width="5" stroke-linecap="round" stroke-linejoin="round"/>
<path d="M1282.25 119V104H1267.25" stroke="white" stroke-width="5" stroke-linecap="round" stroke-linejoin="round"/>
<path d="M1282.25 68.375V59C1282.25 57.0109 1281.46 55.1032 1280.05 53.6967C1278.65 52.2902 1276.74 51.5 1274.75 51.5H1222.25C1220.26 51.5 1218.35 52.2902 1216.95 53.6967C1215.54 55.1032 1214.75 57.0109 1214.75 59V111.5C1214.75 113.489 1215.54 115.397 1216.95 116.803C1218.35 118.21 1220.26 119 1222.25 119H1238.38" stroke="white" stroke-width="5" stroke-linecap="round" stroke-linejoin="round"/>
<path d="M1214.75 74H1229.75" stroke="white" stroke-width="5" stroke-linecap="round" stroke-linejoin="round"/>
<path d="M1233.5 44V59" stroke="white" stroke-width="5" stroke-linecap="round" stroke-linejoin="round"/>
</svg>
