<svg width="1363" height="163" viewBox="0 0 1363 163" fill="none" xmlns="http://www.w3.org/2000/svg">
<path d="M0 15C0 6.71573 6.71573 0 15 0H37V163H15C6.71573 163 0 156.284 0 148V15Z" fill="#424242"/>
<rect width="1097" height="163" transform="translate(37)" fill="#F0F0F0"/>
<path d="M101.906 53.9219L94.3945 51.2383V48.0859L104.602 52.375V54.6367L101.906 53.9219ZM94.3945 56.1719L101.918 53.4297L104.602 52.7852V55.0352L94.3945 59.3242V56.1719ZM122.789 55.3398H126.293C126.223 56.4883 125.906 57.5078 125.344 58.3984C124.789 59.2891 124.012 59.9844 123.012 60.4844C122.02 60.9844 120.824 61.2344 119.426 61.2344C118.332 61.2344 117.352 61.0469 116.484 60.6719C115.617 60.2891 114.875 59.7422 114.258 59.0312C113.648 58.3203 113.184 57.4609 112.863 56.4531C112.543 55.4453 112.383 54.3164 112.383 53.0664V51.8828C112.383 50.6328 112.547 49.5039 112.875 48.4961C113.211 47.4805 113.688 46.6172 114.305 45.9062C114.93 45.1953 115.676 44.6484 116.543 44.2656C117.41 43.8828 118.379 43.6914 119.449 43.6914C120.871 43.6914 122.07 43.9492 123.047 44.4648C124.031 44.9805 124.793 45.6914 125.332 46.5977C125.879 47.5039 126.207 48.5352 126.316 49.6914H122.801C122.762 49.0039 122.625 48.4219 122.391 47.9453C122.156 47.4609 121.801 47.0977 121.324 46.8555C120.855 46.6055 120.23 46.4805 119.449 46.4805C118.863 46.4805 118.352 46.5898 117.914 46.8086C117.477 47.0273 117.109 47.3594 116.812 47.8047C116.516 48.25 116.293 48.8125 116.145 49.4922C116.004 50.1641 115.934 50.9531 115.934 51.8594V53.0664C115.934 53.9492 116 54.7266 116.133 55.3984C116.266 56.0625 116.469 56.625 116.742 57.0859C117.023 57.5391 117.383 57.8828 117.82 58.1172C118.266 58.3438 118.801 58.457 119.426 58.457C120.16 58.457 120.766 58.3398 121.242 58.1055C121.719 57.8711 122.082 57.5234 122.332 57.0625C122.59 56.6016 122.742 56.0273 122.789 55.3398ZM135.234 58.1406V52.4922C135.234 52.0859 135.168 51.7383 135.035 51.4492C134.902 51.1523 134.695 50.9219 134.414 50.7578C134.141 50.5938 133.785 50.5117 133.348 50.5117C132.973 50.5117 132.648 50.5781 132.375 50.7109C132.102 50.8359 131.891 51.0195 131.742 51.2617C131.594 51.4961 131.52 51.7734 131.52 52.0938H128.145C128.145 51.5547 128.27 51.043 128.52 50.5586C128.77 50.0742 129.133 49.6484 129.609 49.2812C130.086 48.9062 130.652 48.6133 131.309 48.4023C131.973 48.1914 132.715 48.0859 133.535 48.0859C134.52 48.0859 135.395 48.25 136.16 48.5781C136.926 48.9062 137.527 49.3984 137.965 50.0547C138.41 50.7109 138.633 51.5312 138.633 52.5156V57.9414C138.633 58.6367 138.676 59.207 138.762 59.6523C138.848 60.0898 138.973 60.4727 139.137 60.8008V61H135.727C135.562 60.6562 135.438 60.2266 135.352 59.7109C135.273 59.1875 135.234 58.6641 135.234 58.1406ZM135.68 53.2773L135.703 55.1875H133.816C133.371 55.1875 132.984 55.2383 132.656 55.3398C132.328 55.4414 132.059 55.5859 131.848 55.7734C131.637 55.9531 131.48 56.1641 131.379 56.4062C131.285 56.6484 131.238 56.9141 131.238 57.2031C131.238 57.4922 131.305 57.7539 131.438 57.9883C131.57 58.2148 131.762 58.3945 132.012 58.5273C132.262 58.6523 132.555 58.7148 132.891 58.7148C133.398 58.7148 133.84 58.6133 134.215 58.4102C134.59 58.207 134.879 57.957 135.082 57.6602C135.293 57.3633 135.402 57.082 135.41 56.8164L136.301 58.2461C136.176 58.5664 136.004 58.8984 135.785 59.2422C135.574 59.5859 135.305 59.9102 134.977 60.2148C134.648 60.5117 134.254 60.7578 133.793 60.9531C133.332 61.1406 132.785 61.2344 132.152 61.2344C131.348 61.2344 130.617 61.0742 129.961 60.7539C129.312 60.4258 128.797 59.9766 128.414 59.4062C128.039 58.8281 127.852 58.1719 127.852 57.4375C127.852 56.7734 127.977 56.1836 128.227 55.668C128.477 55.1523 128.844 54.7188 129.328 54.3672C129.82 54.0078 130.434 53.7383 131.168 53.5586C131.902 53.3711 132.754 53.2773 133.723 53.2773H135.68ZM144.609 51.0859V61H141.234V48.3203H144.41L144.609 51.0859ZM148.43 48.2383L148.371 51.3672C148.207 51.3438 148.008 51.3242 147.773 51.3086C147.547 51.2852 147.34 51.2734 147.152 51.2734C146.676 51.2734 146.262 51.3359 145.91 51.4609C145.566 51.5781 145.277 51.7539 145.043 51.9883C144.816 52.2227 144.645 52.5078 144.527 52.8438C144.418 53.1797 144.355 53.5625 144.34 53.9922L143.66 53.7812C143.66 52.9609 143.742 52.207 143.906 51.5195C144.07 50.8242 144.309 50.2188 144.621 49.7031C144.941 49.1875 145.332 48.7891 145.793 48.5078C146.254 48.2266 146.781 48.0859 147.375 48.0859C147.562 48.0859 147.754 48.1016 147.949 48.1328C148.145 48.1562 148.305 48.1914 148.43 48.2383ZM157.816 48.3203H160.875V60.5781C160.875 61.7344 160.617 62.7148 160.102 63.5195C159.594 64.332 158.883 64.9453 157.969 65.3594C157.055 65.7812 155.992 65.9922 154.781 65.9922C154.25 65.9922 153.688 65.9219 153.094 65.7812C152.508 65.6406 151.945 65.4219 151.406 65.125C150.875 64.8281 150.43 64.4531 150.07 64L151.559 62.0078C151.949 62.4609 152.402 62.8125 152.918 63.0625C153.434 63.3203 154.004 63.4492 154.629 63.4492C155.238 63.4492 155.754 63.3359 156.176 63.1094C156.598 62.8906 156.922 62.5664 157.148 62.1367C157.375 61.7148 157.488 61.2031 157.488 60.6016V51.25L157.816 48.3203ZM149.285 54.8125V54.5664C149.285 53.5977 149.402 52.7188 149.637 51.9297C149.879 51.1328 150.219 50.4492 150.656 49.8789C151.102 49.3086 151.641 48.8672 152.273 48.5547C152.906 48.2422 153.621 48.0859 154.418 48.0859C155.262 48.0859 155.969 48.2422 156.539 48.5547C157.109 48.8672 157.578 49.3125 157.945 49.8906C158.312 50.4609 158.598 51.1367 158.801 51.918C159.012 52.6914 159.176 53.5391 159.293 54.4609V55C159.176 55.8828 159 56.7031 158.766 57.4609C158.531 58.2188 158.223 58.8828 157.84 59.4531C157.457 60.0156 156.98 60.4531 156.41 60.7656C155.848 61.0781 155.176 61.2344 154.395 61.2344C153.613 61.2344 152.906 61.0742 152.273 60.7539C151.648 60.4336 151.113 59.9844 150.668 59.4062C150.223 58.8281 149.879 58.1484 149.637 57.3672C149.402 56.5859 149.285 55.7344 149.285 54.8125ZM152.66 54.5664V54.8125C152.66 55.3359 152.711 55.8242 152.812 56.2773C152.914 56.7305 153.07 57.1328 153.281 57.4844C153.5 57.8281 153.77 58.0977 154.09 58.293C154.418 58.4805 154.805 58.5742 155.25 58.5742C155.867 58.5742 156.371 58.4453 156.762 58.1875C157.152 57.9219 157.445 57.5586 157.641 57.0977C157.836 56.6367 157.949 56.1055 157.98 55.5039V53.9688C157.965 53.4766 157.898 53.0352 157.781 52.6445C157.664 52.2461 157.5 51.9062 157.289 51.625C157.078 51.3438 156.805 51.125 156.469 50.9688C156.133 50.8125 155.734 50.7344 155.273 50.7344C154.828 50.7344 154.441 50.8359 154.113 51.0391C153.793 51.2344 153.523 51.5039 153.305 51.8477C153.094 52.1914 152.934 52.5977 152.824 53.0664C152.715 53.5273 152.66 54.0273 152.66 54.5664ZM162.961 54.7891V54.543C162.961 53.6133 163.094 52.7578 163.359 51.9766C163.625 51.1875 164.012 50.5039 164.52 49.9258C165.027 49.3477 165.652 48.8984 166.395 48.5781C167.137 48.25 167.988 48.0859 168.949 48.0859C169.91 48.0859 170.766 48.25 171.516 48.5781C172.266 48.8984 172.895 49.3477 173.402 49.9258C173.918 50.5039 174.309 51.1875 174.574 51.9766C174.84 52.7578 174.973 53.6133 174.973 54.543V54.7891C174.973 55.7109 174.84 56.5664 174.574 57.3555C174.309 58.1367 173.918 58.8203 173.402 59.4062C172.895 59.9844 172.27 60.4336 171.527 60.7539C170.785 61.0742 169.934 61.2344 168.973 61.2344C168.012 61.2344 167.156 61.0742 166.406 60.7539C165.664 60.4336 165.035 59.9844 164.52 59.4062C164.012 58.8203 163.625 58.1367 163.359 57.3555C163.094 56.5664 162.961 55.7109 162.961 54.7891ZM166.336 54.543V54.7891C166.336 55.3203 166.383 55.8164 166.477 56.2773C166.57 56.7383 166.719 57.1445 166.922 57.4961C167.133 57.8398 167.406 58.1094 167.742 58.3047C168.078 58.5 168.488 58.5977 168.973 58.5977C169.441 58.5977 169.844 58.5 170.18 58.3047C170.516 58.1094 170.785 57.8398 170.988 57.4961C171.191 57.1445 171.34 56.7383 171.434 56.2773C171.535 55.8164 171.586 55.3203 171.586 54.7891V54.543C171.586 54.0273 171.535 53.543 171.434 53.0898C171.34 52.6289 171.188 52.2227 170.977 51.8711C170.773 51.5117 170.504 51.2305 170.168 51.0273C169.832 50.8242 169.426 50.7227 168.949 50.7227C168.473 50.7227 168.066 50.8242 167.73 51.0273C167.402 51.2305 167.133 51.5117 166.922 51.8711C166.719 52.2227 166.57 52.6289 166.477 53.0898C166.383 53.543 166.336 54.0273 166.336 54.543ZM192.117 56.5352C192.117 56.2305 192.07 55.957 191.977 55.7148C191.891 55.4648 191.727 55.2383 191.484 55.0352C191.242 54.8242 190.902 54.6172 190.465 54.4141C190.027 54.2109 189.461 54 188.766 53.7812C187.992 53.5312 187.258 53.25 186.562 52.9375C185.875 52.625 185.266 52.2617 184.734 51.8477C184.211 51.4258 183.797 50.9375 183.492 50.3828C183.195 49.8281 183.047 49.1836 183.047 48.4492C183.047 47.7383 183.203 47.0938 183.516 46.5156C183.828 45.9297 184.266 45.4297 184.828 45.0156C185.391 44.5938 186.055 44.2695 186.82 44.043C187.594 43.8164 188.441 43.7031 189.363 43.7031C190.621 43.7031 191.719 43.9297 192.656 44.3828C193.594 44.8359 194.32 45.457 194.836 46.2461C195.359 47.0352 195.621 47.9375 195.621 48.9531H192.129C192.129 48.4531 192.023 48.0156 191.812 47.6406C191.609 47.2578 191.297 46.957 190.875 46.7383C190.461 46.5195 189.938 46.4102 189.305 46.4102C188.695 46.4102 188.188 46.5039 187.781 46.6914C187.375 46.8711 187.07 47.1172 186.867 47.4297C186.664 47.7344 186.562 48.0781 186.562 48.4609C186.562 48.75 186.633 49.0117 186.773 49.2461C186.922 49.4805 187.141 49.6992 187.43 49.9023C187.719 50.1055 188.074 50.2969 188.496 50.4766C188.918 50.6562 189.406 50.832 189.961 51.0039C190.891 51.2852 191.707 51.6016 192.41 51.9531C193.121 52.3047 193.715 52.6992 194.191 53.1367C194.668 53.5742 195.027 54.0703 195.27 54.625C195.512 55.1797 195.633 55.8086 195.633 56.5117C195.633 57.2539 195.488 57.918 195.199 58.5039C194.91 59.0898 194.492 59.5859 193.945 59.9922C193.398 60.3984 192.746 60.707 191.988 60.918C191.23 61.1289 190.383 61.2344 189.445 61.2344C188.602 61.2344 187.77 61.125 186.949 60.9062C186.129 60.6797 185.383 60.3398 184.711 59.8867C184.047 59.4336 183.516 58.8555 183.117 58.1523C182.719 57.4492 182.52 56.6172 182.52 55.6562H186.047C186.047 56.1875 186.129 56.6367 186.293 57.0039C186.457 57.3711 186.688 57.668 186.984 57.8945C187.289 58.1211 187.648 58.2852 188.062 58.3867C188.484 58.4883 188.945 58.5391 189.445 58.5391C190.055 58.5391 190.555 58.4531 190.945 58.2812C191.344 58.1094 191.637 57.8711 191.824 57.5664C192.02 57.2617 192.117 56.918 192.117 56.5352ZM201.188 50.9453V61H197.801V48.3203H200.977L201.188 50.9453ZM200.719 54.2148H199.781C199.781 53.332 199.887 52.5195 200.098 51.7773C200.316 51.0273 200.633 50.3789 201.047 49.832C201.469 49.2773 201.988 48.8477 202.605 48.543C203.223 48.2383 203.938 48.0859 204.75 48.0859C205.312 48.0859 205.828 48.1719 206.297 48.3438C206.766 48.5078 207.168 48.7695 207.504 49.1289C207.848 49.4805 208.113 49.9414 208.301 50.5117C208.488 51.0742 208.582 51.75 208.582 52.5391V61H205.207V52.9141C205.207 52.3359 205.129 51.8906 204.973 51.5781C204.816 51.2656 204.594 51.0469 204.305 50.9219C204.023 50.7969 203.684 50.7344 203.285 50.7344C202.848 50.7344 202.465 50.8242 202.137 51.0039C201.816 51.1836 201.551 51.4336 201.34 51.7539C201.129 52.0664 200.973 52.4336 200.871 52.8555C200.77 53.2773 200.719 53.7305 200.719 54.2148ZM208.266 53.8281L207.059 53.9805C207.059 53.1523 207.16 52.3828 207.363 51.6719C207.574 50.9609 207.883 50.3359 208.289 49.7969C208.703 49.2578 209.215 48.8398 209.824 48.543C210.434 48.2383 211.137 48.0859 211.934 48.0859C212.543 48.0859 213.098 48.1758 213.598 48.3555C214.098 48.5273 214.523 48.8047 214.875 49.1875C215.234 49.5625 215.508 50.0547 215.695 50.6641C215.891 51.2734 215.988 52.0195 215.988 52.9023V61H212.602V52.9023C212.602 52.3164 212.523 51.8711 212.367 51.5664C212.219 51.2539 212 51.0391 211.711 50.9219C211.43 50.7969 211.094 50.7344 210.703 50.7344C210.297 50.7344 209.941 50.8164 209.637 50.9805C209.332 51.1367 209.078 51.3555 208.875 51.6367C208.672 51.918 208.52 52.2461 208.418 52.6211C208.316 52.9883 208.266 53.3906 208.266 53.8281ZM225.445 58.1406V52.4922C225.445 52.0859 225.379 51.7383 225.246 51.4492C225.113 51.1523 224.906 50.9219 224.625 50.7578C224.352 50.5938 223.996 50.5117 223.559 50.5117C223.184 50.5117 222.859 50.5781 222.586 50.7109C222.312 50.8359 222.102 51.0195 221.953 51.2617C221.805 51.4961 221.73 51.7734 221.73 52.0938H218.355C218.355 51.5547 218.48 51.043 218.73 50.5586C218.98 50.0742 219.344 49.6484 219.82 49.2812C220.297 48.9062 220.863 48.6133 221.52 48.4023C222.184 48.1914 222.926 48.0859 223.746 48.0859C224.73 48.0859 225.605 48.25 226.371 48.5781C227.137 48.9062 227.738 49.3984 228.176 50.0547C228.621 50.7109 228.844 51.5312 228.844 52.5156V57.9414C228.844 58.6367 228.887 59.207 228.973 59.6523C229.059 60.0898 229.184 60.4727 229.348 60.8008V61H225.938C225.773 60.6562 225.648 60.2266 225.562 59.7109C225.484 59.1875 225.445 58.6641 225.445 58.1406ZM225.891 53.2773L225.914 55.1875H224.027C223.582 55.1875 223.195 55.2383 222.867 55.3398C222.539 55.4414 222.27 55.5859 222.059 55.7734C221.848 55.9531 221.691 56.1641 221.59 56.4062C221.496 56.6484 221.449 56.9141 221.449 57.2031C221.449 57.4922 221.516 57.7539 221.648 57.9883C221.781 58.2148 221.973 58.3945 222.223 58.5273C222.473 58.6523 222.766 58.7148 223.102 58.7148C223.609 58.7148 224.051 58.6133 224.426 58.4102C224.801 58.207 225.09 57.957 225.293 57.6602C225.504 57.3633 225.613 57.082 225.621 56.8164L226.512 58.2461C226.387 58.5664 226.215 58.8984 225.996 59.2422C225.785 59.5859 225.516 59.9102 225.188 60.2148C224.859 60.5117 224.465 60.7578 224.004 60.9531C223.543 61.1406 222.996 61.2344 222.363 61.2344C221.559 61.2344 220.828 61.0742 220.172 60.7539C219.523 60.4258 219.008 59.9766 218.625 59.4062C218.25 58.8281 218.062 58.1719 218.062 57.4375C218.062 56.7734 218.188 56.1836 218.438 55.668C218.688 55.1523 219.055 54.7188 219.539 54.3672C220.031 54.0078 220.645 53.7383 221.379 53.5586C222.113 53.3711 222.965 53.2773 223.934 53.2773H225.891ZM234.82 51.0859V61H231.445V48.3203H234.621L234.82 51.0859ZM238.641 48.2383L238.582 51.3672C238.418 51.3438 238.219 51.3242 237.984 51.3086C237.758 51.2852 237.551 51.2734 237.363 51.2734C236.887 51.2734 236.473 51.3359 236.121 51.4609C235.777 51.5781 235.488 51.7539 235.254 51.9883C235.027 52.2227 234.855 52.5078 234.738 52.8438C234.629 53.1797 234.566 53.5625 234.551 53.9922L233.871 53.7812C233.871 52.9609 233.953 52.207 234.117 51.5195C234.281 50.8242 234.52 50.2188 234.832 49.7031C235.152 49.1875 235.543 48.7891 236.004 48.5078C236.465 48.2266 236.992 48.0859 237.586 48.0859C237.773 48.0859 237.965 48.1016 238.16 48.1328C238.355 48.1562 238.516 48.1914 238.641 48.2383ZM247.031 48.3203V50.7109H239.648V48.3203H247.031ZM241.477 45.1914H244.852V57.1797C244.852 57.5469 244.898 57.8281 244.992 58.0234C245.094 58.2188 245.242 58.3555 245.438 58.4336C245.633 58.5039 245.879 58.5391 246.176 58.5391C246.387 58.5391 246.574 58.5312 246.738 58.5156C246.91 58.4922 247.055 58.4688 247.172 58.4453L247.184 60.9297C246.895 61.0234 246.582 61.0977 246.246 61.1523C245.91 61.207 245.539 61.2344 245.133 61.2344C244.391 61.2344 243.742 61.1133 243.188 60.8711C242.641 60.6211 242.219 60.2227 241.922 59.6758C241.625 59.1289 241.477 58.4102 241.477 57.5195V45.1914Z" fill="#888888"/>
<path d="M109.219 107.422H100.734V101.07H109.219C110.375 101.07 111.312 100.875 112.031 100.484C112.75 100.094 113.273 99.5547 113.602 98.8672C113.945 98.1641 114.117 97.375 114.117 96.5C114.117 95.5625 113.945 94.6953 113.602 93.8984C113.273 93.1016 112.75 92.4609 112.031 91.9766C111.312 91.4766 110.375 91.2266 109.219 91.2266H103.828V119H95.6016V84.875H109.219C111.953 84.875 114.305 85.375 116.273 86.375C118.258 87.375 119.781 88.75 120.844 90.5C121.906 92.2344 122.438 94.2188 122.438 96.4531C122.438 98.6562 121.906 100.578 120.844 102.219C119.781 103.859 118.258 105.141 116.273 106.062C114.305 106.969 111.953 107.422 109.219 107.422ZM134.461 99.9219V119H126.562V93.6406H133.945L134.461 99.9219ZM141.961 93.4531L141.82 100.789C141.508 100.758 141.086 100.719 140.555 100.672C140.023 100.625 139.578 100.602 139.219 100.602C138.297 100.602 137.5 100.711 136.828 100.93C136.172 101.133 135.625 101.445 135.188 101.867C134.766 102.273 134.453 102.789 134.25 103.414C134.062 104.039 133.977 104.766 133.992 105.594L132.562 104.656C132.562 102.953 132.727 101.406 133.055 100.016C133.398 98.6094 133.883 97.3984 134.508 96.3828C135.133 95.3516 135.891 94.5625 136.781 94.0156C137.672 93.4531 138.672 93.1719 139.781 93.1719C140.172 93.1719 140.555 93.1953 140.93 93.2422C141.32 93.2891 141.664 93.3594 141.961 93.4531ZM142.852 106.578V106.086C142.852 104.227 143.117 102.516 143.648 100.953C144.18 99.375 144.961 98.0078 145.992 96.8516C147.023 95.6953 148.297 94.7969 149.812 94.1562C151.328 93.5 153.078 93.1719 155.062 93.1719C157.062 93.1719 158.82 93.5 160.336 94.1562C161.867 94.7969 163.148 95.6953 164.18 96.8516C165.211 98.0078 165.992 99.375 166.523 100.953C167.055 102.516 167.32 104.227 167.32 106.086V106.578C167.32 108.422 167.055 110.133 166.523 111.711C165.992 113.273 165.211 114.641 164.18 115.812C163.148 116.969 161.875 117.867 160.359 118.508C158.844 119.148 157.094 119.469 155.109 119.469C153.125 119.469 151.367 119.148 149.836 118.508C148.305 117.867 147.023 116.969 145.992 115.812C144.961 114.641 144.18 113.273 143.648 111.711C143.117 110.133 142.852 108.422 142.852 106.578ZM150.75 106.086V106.578C150.75 107.531 150.82 108.422 150.961 109.25C151.102 110.078 151.336 110.805 151.664 111.43C151.992 112.039 152.438 112.516 153 112.859C153.562 113.203 154.266 113.375 155.109 113.375C155.938 113.375 156.625 113.203 157.172 112.859C157.734 112.516 158.18 112.039 158.508 111.43C158.836 110.805 159.07 110.078 159.211 109.25C159.352 108.422 159.422 107.531 159.422 106.578V106.086C159.422 105.164 159.352 104.297 159.211 103.484C159.07 102.656 158.836 101.93 158.508 101.305C158.18 100.664 157.734 100.164 157.172 99.8047C156.609 99.4453 155.906 99.2656 155.062 99.2656C154.234 99.2656 153.539 99.4453 152.977 99.8047C152.43 100.164 151.992 100.664 151.664 101.305C151.336 101.93 151.102 102.656 150.961 103.484C150.82 104.297 150.75 105.164 150.75 106.086ZM171.422 93.6406H179.344V119.82C179.344 121.852 178.953 123.562 178.172 124.953C177.391 126.359 176.273 127.422 174.82 128.141C173.367 128.875 171.633 129.242 169.617 129.242C168.945 129.242 168.328 129.211 167.766 129.148C167.188 129.102 166.555 129 165.867 128.844V122.867C166.273 122.93 166.648 122.977 166.992 123.008C167.336 123.055 167.711 123.078 168.117 123.078C168.836 123.078 169.438 122.961 169.922 122.727C170.406 122.492 170.773 122.133 171.023 121.648C171.289 121.164 171.422 120.555 171.422 119.82V93.6406ZM170.836 87.1016C170.836 85.9766 171.242 85.0547 172.055 84.3359C172.867 83.6172 173.922 83.2578 175.219 83.2578C176.516 83.2578 177.57 83.6172 178.383 84.3359C179.195 85.0547 179.602 85.9766 179.602 87.1016C179.602 88.2266 179.195 89.1484 178.383 89.8672C177.57 90.5859 176.516 90.9453 175.219 90.9453C173.922 90.9453 172.867 90.5859 172.055 89.8672C171.242 89.1484 170.836 88.2266 170.836 87.1016ZM196.102 119.469C194.039 119.469 192.195 119.148 190.57 118.508C188.945 117.852 187.57 116.953 186.445 115.812C185.336 114.672 184.484 113.359 183.891 111.875C183.312 110.391 183.023 108.82 183.023 107.164V106.273C183.023 104.414 183.281 102.695 183.797 101.117C184.312 99.5234 185.078 98.1328 186.094 96.9453C187.109 95.7578 188.383 94.8359 189.914 94.1797C191.445 93.5078 193.227 93.1719 195.258 93.1719C197.055 93.1719 198.664 93.4609 200.086 94.0391C201.508 94.6172 202.711 95.4453 203.695 96.5234C204.695 97.6016 205.453 98.9062 205.969 100.438C206.5 101.969 206.766 103.688 206.766 105.594V108.805H186.047V103.859H199.055V103.25C199.07 102.406 198.922 101.688 198.609 101.094C198.312 100.5 197.875 100.047 197.297 99.7344C196.719 99.4219 196.016 99.2656 195.188 99.2656C194.328 99.2656 193.617 99.4531 193.055 99.8281C192.508 100.203 192.078 100.719 191.766 101.375C191.469 102.016 191.258 102.758 191.133 103.602C191.008 104.445 190.945 105.336 190.945 106.273V107.164C190.945 108.102 191.07 108.953 191.32 109.719C191.586 110.484 191.961 111.141 192.445 111.688C192.945 112.219 193.539 112.633 194.227 112.93C194.93 113.227 195.727 113.375 196.617 113.375C197.695 113.375 198.758 113.172 199.805 112.766C200.852 112.359 201.75 111.688 202.5 110.75L206.086 115.016C205.57 115.75 204.836 116.461 203.883 117.148C202.945 117.836 201.82 118.398 200.508 118.836C199.195 119.258 197.727 119.469 196.102 119.469ZM220.688 113.375C221.422 113.375 222.047 113.242 222.562 112.977C223.094 112.695 223.492 112.305 223.758 111.805C224.039 111.289 224.172 110.672 224.156 109.953H231.586C231.602 111.859 231.133 113.531 230.18 114.969C229.242 116.391 227.961 117.5 226.336 118.297C224.727 119.078 222.906 119.469 220.875 119.469C218.891 119.469 217.156 119.148 215.672 118.508C214.188 117.852 212.945 116.945 211.945 115.789C210.961 114.617 210.219 113.25 209.719 111.688C209.234 110.125 208.992 108.43 208.992 106.602V106.062C208.992 104.234 209.234 102.539 209.719 100.977C210.219 99.3984 210.961 98.0312 211.945 96.875C212.945 95.7031 214.18 94.7969 215.648 94.1562C217.133 93.5 218.859 93.1719 220.828 93.1719C222.938 93.1719 224.797 93.5703 226.406 94.3672C228.031 95.1641 229.305 96.3203 230.227 97.8359C231.148 99.3516 231.602 101.188 231.586 103.344H224.156C224.172 102.578 224.055 101.891 223.805 101.281C223.555 100.672 223.164 100.188 222.633 99.8281C222.117 99.4531 221.453 99.2656 220.641 99.2656C219.828 99.2656 219.172 99.4453 218.672 99.8047C218.172 100.164 217.789 100.664 217.523 101.305C217.273 101.93 217.102 102.648 217.008 103.461C216.93 104.273 216.891 105.141 216.891 106.062V106.602C216.891 107.539 216.93 108.422 217.008 109.25C217.102 110.062 217.281 110.781 217.547 111.406C217.812 112.016 218.195 112.5 218.695 112.859C219.195 113.203 219.859 113.375 220.688 113.375ZM248.32 93.6406V99.125H233.039V93.6406H248.32ZM236.25 87.3359H244.148V110.727C244.148 111.398 244.227 111.922 244.383 112.297C244.539 112.656 244.805 112.914 245.18 113.07C245.57 113.211 246.086 113.281 246.727 113.281C247.18 113.281 247.555 113.273 247.852 113.258C248.148 113.227 248.43 113.188 248.695 113.141V118.789C248.023 119.008 247.32 119.172 246.586 119.281C245.852 119.406 245.07 119.469 244.242 119.469C242.555 119.469 241.109 119.203 239.906 118.672C238.719 118.141 237.812 117.305 237.188 116.164C236.562 115.023 236.25 113.539 236.25 111.711V87.3359ZM292.664 101.258V102.641C292.664 105.25 292.297 107.594 291.562 109.672C290.844 111.734 289.82 113.5 288.492 114.969C287.164 116.422 285.594 117.539 283.781 118.32C281.969 119.086 279.969 119.469 277.781 119.469C275.578 119.469 273.562 119.086 271.734 118.32C269.922 117.539 268.344 116.422 267 114.969C265.672 113.5 264.641 111.734 263.906 109.672C263.188 107.594 262.828 105.25 262.828 102.641V101.258C262.828 98.6484 263.188 96.3047 263.906 94.2266C264.641 92.1484 265.664 90.3828 266.977 88.9297C268.305 87.4609 269.875 86.3438 271.688 85.5781C273.516 84.7969 275.531 84.4062 277.734 84.4062C279.922 84.4062 281.922 84.7969 283.734 85.5781C285.562 86.3438 287.141 87.4609 288.469 88.9297C289.797 90.3828 290.828 92.1484 291.562 94.2266C292.297 96.3047 292.664 98.6484 292.664 101.258ZM284.32 102.641V101.211C284.32 99.5234 284.172 98.0391 283.875 96.7578C283.594 95.4609 283.172 94.375 282.609 93.5C282.047 92.625 281.352 91.9688 280.523 91.5312C279.711 91.0781 278.781 90.8516 277.734 90.8516C276.641 90.8516 275.688 91.0781 274.875 91.5312C274.062 91.9688 273.383 92.625 272.836 93.5C272.289 94.375 271.875 95.4609 271.594 96.7578C271.328 98.0391 271.195 99.5234 271.195 101.211V102.641C271.195 104.312 271.328 105.797 271.594 107.094C271.875 108.375 272.289 109.461 272.836 110.352C273.398 111.242 274.086 111.914 274.898 112.367C275.727 112.82 276.688 113.047 277.781 113.047C278.828 113.047 279.758 112.82 280.57 112.367C281.383 111.914 282.062 111.242 282.609 110.352C283.172 109.461 283.594 108.375 283.875 107.094C284.172 105.797 284.32 104.312 284.32 102.641ZM305.695 113.586L310.688 93.6406H319.008L310.711 119H305.789L305.695 113.586ZM302.742 93.6406L307.664 113.586L307.617 119H302.672L294.398 93.6406H302.742ZM333.305 119.469C331.242 119.469 329.398 119.148 327.773 118.508C326.148 117.852 324.773 116.953 323.648 115.812C322.539 114.672 321.688 113.359 321.094 111.875C320.516 110.391 320.227 108.82 320.227 107.164V106.273C320.227 104.414 320.484 102.695 321 101.117C321.516 99.5234 322.281 98.1328 323.297 96.9453C324.312 95.7578 325.586 94.8359 327.117 94.1797C328.648 93.5078 330.43 93.1719 332.461 93.1719C334.258 93.1719 335.867 93.4609 337.289 94.0391C338.711 94.6172 339.914 95.4453 340.898 96.5234C341.898 97.6016 342.656 98.9062 343.172 100.438C343.703 101.969 343.969 103.688 343.969 105.594V108.805H323.25V103.859H336.258V103.25C336.273 102.406 336.125 101.688 335.812 101.094C335.516 100.5 335.078 100.047 334.5 99.7344C333.922 99.4219 333.219 99.2656 332.391 99.2656C331.531 99.2656 330.82 99.4531 330.258 99.8281C329.711 100.203 329.281 100.719 328.969 101.375C328.672 102.016 328.461 102.758 328.336 103.602C328.211 104.445 328.148 105.336 328.148 106.273V107.164C328.148 108.102 328.273 108.953 328.523 109.719C328.789 110.484 329.164 111.141 329.648 111.688C330.148 112.219 330.742 112.633 331.43 112.93C332.133 113.227 332.93 113.375 333.82 113.375C334.898 113.375 335.961 113.172 337.008 112.766C338.055 112.359 338.953 111.688 339.703 110.75L343.289 115.016C342.773 115.75 342.039 116.461 341.086 117.148C340.148 117.836 339.023 118.398 337.711 118.836C336.398 119.258 334.93 119.469 333.305 119.469ZM355.148 99.9219V119H347.25V93.6406H354.633L355.148 99.9219ZM362.648 93.4531L362.508 100.789C362.195 100.758 361.773 100.719 361.242 100.672C360.711 100.625 360.266 100.602 359.906 100.602C358.984 100.602 358.188 100.711 357.516 100.93C356.859 101.133 356.312 101.445 355.875 101.867C355.453 102.273 355.141 102.789 354.938 103.414C354.75 104.039 354.664 104.766 354.68 105.594L353.25 104.656C353.25 102.953 353.414 101.406 353.742 100.016C354.086 98.6094 354.57 97.3984 355.195 96.3828C355.82 95.3516 356.578 94.5625 357.469 94.0156C358.359 93.4531 359.359 93.1719 360.469 93.1719C360.859 93.1719 361.242 93.1953 361.617 93.2422C362.008 93.2891 362.352 93.3594 362.648 93.4531ZM374.93 113.586L379.922 93.6406H388.242L379.945 119H375.023L374.93 113.586ZM371.977 93.6406L376.898 113.586L376.852 119H371.906L363.633 93.6406H371.977ZM398.93 93.6406V119H391.008V93.6406H398.93ZM390.539 87.1016C390.539 85.9766 390.945 85.0547 391.758 84.3359C392.57 83.6172 393.625 83.2578 394.922 83.2578C396.219 83.2578 397.273 83.6172 398.086 84.3359C398.898 85.0547 399.305 85.9766 399.305 87.1016C399.305 88.2266 398.898 89.1484 398.086 89.8672C397.273 90.5859 396.219 90.9453 394.922 90.9453C393.625 90.9453 392.57 90.5859 391.758 89.8672C390.945 89.1484 390.539 88.2266 390.539 87.1016ZM416.086 119.469C414.023 119.469 412.18 119.148 410.555 118.508C408.93 117.852 407.555 116.953 406.43 115.812C405.32 114.672 404.469 113.359 403.875 111.875C403.297 110.391 403.008 108.82 403.008 107.164V106.273C403.008 104.414 403.266 102.695 403.781 101.117C404.297 99.5234 405.062 98.1328 406.078 96.9453C407.094 95.7578 408.367 94.8359 409.898 94.1797C411.43 93.5078 413.211 93.1719 415.242 93.1719C417.039 93.1719 418.648 93.4609 420.07 94.0391C421.492 94.6172 422.695 95.4453 423.68 96.5234C424.68 97.6016 425.438 98.9062 425.953 100.438C426.484 101.969 426.75 103.688 426.75 105.594V108.805H406.031V103.859H419.039V103.25C419.055 102.406 418.906 101.688 418.594 101.094C418.297 100.5 417.859 100.047 417.281 99.7344C416.703 99.4219 416 99.2656 415.172 99.2656C414.312 99.2656 413.602 99.4531 413.039 99.8281C412.492 100.203 412.062 100.719 411.75 101.375C411.453 102.016 411.242 102.758 411.117 103.602C410.992 104.445 410.93 105.336 410.93 106.273V107.164C410.93 108.102 411.055 108.953 411.305 109.719C411.57 110.484 411.945 111.141 412.43 111.688C412.93 112.219 413.523 112.633 414.211 112.93C414.914 113.227 415.711 113.375 416.602 113.375C417.68 113.375 418.742 113.172 419.789 112.766C420.836 112.359 421.734 111.688 422.484 110.75L426.07 115.016C425.555 115.75 424.82 116.461 423.867 117.148C422.93 117.836 421.805 118.398 420.492 118.836C419.18 119.258 417.711 119.469 416.086 119.469ZM437.672 111.453L442.359 93.6406H447.305L445.547 102.57L440.906 119H436.945L437.672 111.453ZM435.82 93.6406L438.727 111.312L439.055 119H434.25L428.25 93.6406H435.82ZM451.477 110.938L454.406 93.6406H461.977L456.023 119H451.219L451.477 110.938ZM447.867 93.6406L452.602 111.406L453.328 119H449.32L444.773 102.617L443.086 93.6406H447.867Z" fill="black"/>
<path d="M1134 0H1348C1356.28 0 1363 6.71573 1363 15V148C1363 156.284 1356.28 163 1348 163H1134V0Z" fill="#052B47"/>
<path d="M1234.26 103.786H1262.74V109.357H1234.26V103.786ZM1239.96 114.929H1257.04V120.5H1239.96V114.929ZM1248.5 42.5C1240.95 42.5 1233.71 45.4349 1228.37 50.6592C1223.03 55.8834 1220.03 62.969 1220.03 70.3571C1219.84 74.4057 1220.63 78.4412 1222.34 82.1315C1224.05 85.8219 1226.64 89.0616 1229.88 91.5843C1232.73 94.175 1234.26 95.6514 1234.26 98.2143H1239.96C1239.96 93.0886 1236.8 90.2193 1233.72 87.4614C1231.06 85.4676 1228.94 82.8658 1227.55 79.8838C1226.15 76.9019 1225.53 73.6308 1225.72 70.3571C1225.72 64.4466 1228.12 58.7781 1232.39 54.5988C1236.67 50.4194 1242.46 48.0714 1248.5 48.0714C1254.54 48.0714 1260.33 50.4194 1264.61 54.5988C1268.88 58.7781 1271.28 64.4466 1271.28 70.3571C1271.47 73.6333 1270.84 76.9059 1269.44 79.888C1268.04 82.8701 1265.92 85.4706 1263.25 87.4614C1260.2 90.2471 1257.04 93.0329 1257.04 98.2143H1262.74C1262.74 95.6514 1264.25 94.175 1267.12 91.5564C1270.36 89.0381 1272.94 85.8031 1274.66 82.1176C1276.37 78.4321 1277.16 74.4014 1276.97 70.3571C1276.97 66.6989 1276.24 63.0765 1274.81 59.6967C1273.37 56.3169 1271.28 53.2459 1268.63 50.6592C1265.99 48.0724 1262.85 46.0205 1259.4 44.6205C1255.94 43.2205 1252.24 42.5 1248.5 42.5Z" fill="white"/>
</svg>
